<svg width="213" height="213" viewBox="0 0 213 213" fill="none" xmlns="http://www.w3.org/2000/svg">
<path d="M84.821 109.958C84.605 109.958 84.429 109.894 84.293 109.766C84.165 109.63 84.101 109.454 84.101 109.238C84.101 109.022 84.165 108.85 84.293 108.722C84.429 108.586 84.605 108.518 84.821 108.518C85.037 108.518 85.209 108.586 85.337 108.722C85.473 108.85 85.541 109.022 85.541 109.238C85.541 109.454 85.473 109.63 85.337 109.766C85.209 109.894 85.037 109.958 84.821 109.958ZM85.301 117.11H84.341V111.11H85.301V117.11ZM90.8405 116.69C90.4405 117.05 89.9245 117.23 89.2925 117.23C88.8045 117.23 88.4045 117.098 88.0925 116.834C87.7885 116.57 87.6325 116.166 87.6245 115.622V111.938H86.4245V111.11H87.6245V109.67L88.5845 109.406V111.11H90.8045V111.938H88.5845V115.454C88.5845 115.742 88.6645 115.962 88.8245 116.114C88.9925 116.258 89.2125 116.33 89.4845 116.33C89.8685 116.33 90.2085 116.182 90.5045 115.886L90.8405 116.69ZM96.9839 113.798C96.9839 114.022 96.9679 114.246 96.9359 114.47H92.4119C92.4679 115.078 92.6679 115.55 93.0119 115.886C93.3639 116.222 93.8159 116.39 94.3679 116.39C94.8079 116.39 95.1719 116.314 95.4599 116.162C95.7559 116.01 95.9559 115.79 96.0599 115.502L96.8639 115.922C96.6239 116.346 96.3039 116.67 95.9039 116.894C95.5039 117.118 94.9919 117.23 94.3679 117.23C93.4639 117.23 92.7519 116.954 92.2319 116.402C91.7199 115.85 91.4639 115.086 91.4639 114.11C91.4639 113.134 91.7079 112.37 92.1959 111.818C92.6919 111.266 93.3919 110.99 94.2959 110.99C94.8559 110.99 95.3399 111.114 95.7479 111.362C96.1559 111.61 96.4639 111.946 96.6719 112.37C96.8799 112.794 96.9839 113.27 96.9839 113.798ZM94.2959 111.83C93.7679 111.83 93.3399 111.986 93.0119 112.298C92.6919 112.61 92.4959 113.05 92.4239 113.618H96.0599C95.9959 113.058 95.8119 112.622 95.5079 112.31C95.2039 111.99 94.7999 111.83 94.2959 111.83ZM101.281 110.99C101.569 110.99 101.789 111.03 101.941 111.11L101.749 112.046C101.557 111.942 101.305 111.89 100.993 111.89C100.737 111.89 100.485 111.966 100.237 112.118C99.9965 112.262 99.7965 112.486 99.6365 112.79C99.4845 113.086 99.4085 113.446 99.4085 113.87V117.11H98.4485V111.11H99.2285L99.3605 112.094C99.6965 111.358 100.337 110.99 101.281 110.99ZM107.743 116.414C107.903 116.414 108.063 116.394 108.223 116.354L108.163 117.11C107.939 117.19 107.699 117.23 107.443 117.23C107.131 117.23 106.883 117.162 106.699 117.026C106.523 116.89 106.411 116.662 106.363 116.342C106.179 116.622 105.907 116.842 105.547 117.002C105.195 117.154 104.823 117.23 104.431 117.23C103.839 117.23 103.351 117.094 102.967 116.822C102.583 116.542 102.391 116.142 102.391 115.622C102.391 115.166 102.591 114.774 102.991 114.446C103.391 114.11 103.971 113.878 104.731 113.75L106.327 113.486V113.15C106.327 112.75 106.203 112.43 105.955 112.19C105.707 111.95 105.363 111.83 104.923 111.83C104.523 111.83 104.175 111.926 103.879 112.118C103.591 112.31 103.367 112.594 103.207 112.97L102.499 112.454C102.659 112.006 102.955 111.65 103.387 111.386C103.827 111.122 104.339 110.99 104.923 110.99C105.635 110.99 106.207 111.162 106.639 111.506C107.071 111.85 107.287 112.358 107.287 113.03V115.982C107.287 116.126 107.323 116.234 107.395 116.306C107.467 116.378 107.583 116.414 107.743 116.414ZM104.479 116.39C104.983 116.39 105.415 116.27 105.775 116.03C106.143 115.79 106.327 115.478 106.327 115.094V114.266L104.983 114.518C104.447 114.614 104.047 114.754 103.783 114.938C103.519 115.114 103.387 115.342 103.387 115.622C103.387 115.87 103.483 116.062 103.675 116.198C103.867 116.326 104.135 116.39 104.479 116.39ZM112.697 116.69C112.297 117.05 111.781 117.23 111.149 117.23C110.661 117.23 110.261 117.098 109.949 116.834C109.645 116.57 109.489 116.166 109.481 115.622V111.938H108.281V111.11H109.481V109.67L110.441 109.406V111.11H112.661V111.938H110.441V115.454C110.441 115.742 110.521 115.962 110.681 116.114C110.849 116.258 111.069 116.33 111.341 116.33C111.725 116.33 112.065 116.182 112.361 115.886L112.697 116.69ZM114.173 109.958C113.957 109.958 113.781 109.894 113.645 109.766C113.517 109.63 113.453 109.454 113.453 109.238C113.453 109.022 113.517 108.85 113.645 108.722C113.781 108.586 113.957 108.518 114.173 108.518C114.389 108.518 114.561 108.586 114.689 108.722C114.825 108.85 114.893 109.022 114.893 109.238C114.893 109.454 114.825 109.63 114.689 109.766C114.561 109.894 114.389 109.958 114.173 109.958ZM114.653 117.11H113.693V111.11H114.653V117.11ZM119.052 110.99C119.956 110.99 120.664 111.266 121.176 111.818C121.696 112.37 121.956 113.134 121.956 114.11C121.956 115.086 121.696 115.85 121.176 116.402C120.664 116.954 119.956 117.23 119.052 117.23C118.148 117.23 117.436 116.954 116.916 116.402C116.404 115.85 116.148 115.086 116.148 114.11C116.148 113.134 116.404 112.37 116.916 111.818C117.436 111.266 118.148 110.99 119.052 110.99ZM119.052 111.818C118.444 111.818 117.968 112.022 117.624 112.43C117.28 112.838 117.108 113.398 117.108 114.11C117.108 114.822 117.28 115.382 117.624 115.79C117.968 116.198 118.444 116.402 119.052 116.402C119.66 116.402 120.136 116.198 120.48 115.79C120.824 115.382 120.996 114.822 120.996 114.11C120.996 113.398 120.824 112.838 120.48 112.43C120.136 112.022 119.66 111.818 119.052 111.818ZM126.377 110.99C127.057 110.99 127.617 111.186 128.057 111.578C128.497 111.97 128.717 112.534 128.717 113.27V117.11H127.757V113.606C127.757 112.982 127.621 112.53 127.349 112.25C127.085 111.97 126.729 111.83 126.281 111.83C125.961 111.83 125.661 111.902 125.381 112.046C125.101 112.182 124.869 112.41 124.685 112.73C124.509 113.042 124.421 113.438 124.421 113.918V117.11H123.461V111.11H124.301L124.361 112.046C124.561 111.686 124.837 111.422 125.189 111.254C125.541 111.078 125.937 110.99 126.377 110.99Z" fill="black"/>
<path d="M70.5518 73.2048V81.9648H69.7118L69.6518 80.9208C69.4758 81.2728 69.2038 81.5568 68.8358 81.7728C68.4758 81.9808 68.0638 82.0848 67.5998 82.0848C66.7598 82.0848 66.0918 81.8088 65.5958 81.2568C65.1078 80.6968 64.8638 79.9328 64.8638 78.9648C64.8638 77.9968 65.1078 77.2368 65.5958 76.6848C66.0918 76.1248 66.7598 75.8448 67.5998 75.8448C68.0398 75.8448 68.4318 75.9408 68.7758 76.1328C69.1278 76.3248 69.3998 76.5808 69.5918 76.9008V73.2048H70.5518ZM67.7078 81.2448C68.2838 81.2448 68.7398 81.0448 69.0758 80.6448C69.4198 80.2448 69.5918 79.7088 69.5918 79.0368V78.8928C69.5918 78.2208 69.4198 77.6848 69.0758 77.2848C68.7398 76.8848 68.2838 76.6848 67.7078 76.6848C67.1238 76.6848 66.6638 76.8928 66.3278 77.3088C65.9918 77.7168 65.8238 78.2688 65.8238 78.9648C65.8238 79.6608 65.9918 80.2168 66.3278 80.6328C66.6638 81.0408 67.1238 81.2448 67.7078 81.2448ZM77.5703 78.6528C77.5703 78.8768 77.5543 79.1008 77.5223 79.3248H72.9983C73.0543 79.9328 73.2543 80.4048 73.5983 80.7408C73.9503 81.0768 74.4023 81.2448 74.9543 81.2448C75.3943 81.2448 75.7583 81.1688 76.0463 81.0168C76.3423 80.8648 76.5423 80.6448 76.6463 80.3568L77.4503 80.7768C77.2103 81.2008 76.8903 81.5248 76.4903 81.7488C76.0903 81.9728 75.5783 82.0848 74.9543 82.0848C74.0503 82.0848 73.3383 81.8088 72.8183 81.2568C72.3063 80.7048 72.0503 79.9408 72.0503 78.9648C72.0503 77.9888 72.2943 77.2248 72.7823 76.6728C73.2783 76.1208 73.9783 75.8448 74.8823 75.8448C75.4423 75.8448 75.9263 75.9688 76.3343 76.2168C76.7423 76.4648 77.0503 76.8008 77.2583 77.2248C77.4663 77.6488 77.5703 78.1248 77.5703 78.6528ZM74.8823 76.6848C74.3543 76.6848 73.9263 76.8408 73.5983 77.1528C73.2783 77.4648 73.0823 77.9048 73.0103 78.4728H76.6463C76.5823 77.9128 76.3983 77.4768 76.0943 77.1648C75.7903 76.8448 75.3863 76.6848 74.8823 76.6848ZM81.075 82.0848C80.499 82.0848 79.979 81.9728 79.515 81.7488C79.051 81.5168 78.711 81.1768 78.495 80.7288L79.275 80.1888C79.411 80.5408 79.647 80.8048 79.983 80.9808C80.319 81.1568 80.715 81.2448 81.171 81.2448C81.643 81.2448 82.003 81.1608 82.251 80.9928C82.499 80.8248 82.623 80.6128 82.623 80.3568C82.623 80.1248 82.507 79.9408 82.275 79.8048C82.043 79.6608 81.635 79.5368 81.051 79.4328C80.475 79.3288 80.019 79.2048 79.683 79.0608C79.347 78.9088 79.103 78.7208 78.951 78.4968C78.799 78.2648 78.723 77.9808 78.723 77.6448C78.723 77.3168 78.819 77.0168 79.011 76.7448C79.203 76.4728 79.479 76.2568 79.839 76.0968C80.199 75.9288 80.615 75.8448 81.087 75.8448C81.727 75.8448 82.239 75.9648 82.623 76.2048C83.015 76.4368 83.295 76.7968 83.463 77.2848L82.647 77.7648C82.519 77.3808 82.323 77.1048 82.059 76.9368C81.803 76.7688 81.479 76.6848 81.087 76.6848C80.695 76.6848 80.363 76.7728 80.091 76.9488C79.819 77.1248 79.683 77.3288 79.683 77.5608C79.683 77.8248 79.799 78.0288 80.031 78.1728C80.271 78.3168 80.695 78.4408 81.303 78.5448C82.135 78.6808 82.723 78.8848 83.067 79.1568C83.411 79.4288 83.583 79.8128 83.583 80.3088C83.583 80.6528 83.479 80.9608 83.271 81.2328C83.071 81.4968 82.779 81.7048 82.395 81.8568C82.019 82.0088 81.579 82.0848 81.075 82.0848ZM85.4831 74.8128C85.2671 74.8128 85.0911 74.7488 84.9551 74.6208C84.8271 74.4848 84.7631 74.3088 84.7631 74.0928C84.7631 73.8768 84.8271 73.7048 84.9551 73.5768C85.0911 73.4408 85.2671 73.3728 85.4831 73.3728C85.6991 73.3728 85.8711 73.4408 85.9991 73.5768C86.1351 73.7048 86.2031 73.8768 86.2031 74.0928C86.2031 74.3088 86.1351 74.4848 85.9991 74.6208C85.8711 74.7488 85.6991 74.8128 85.4831 74.8128ZM85.9631 81.9648H85.0031V75.9648H85.9631V81.9648ZM91.1786 81.1968C91.7466 81.1968 92.1906 81.3248 92.5106 81.5808C92.8306 81.8368 92.9906 82.1848 92.9906 82.6248C92.9906 83.0088 92.8586 83.3448 92.5946 83.6328C92.3306 83.9288 91.9706 84.1528 91.5146 84.3048C91.0666 84.4648 90.5706 84.5448 90.0266 84.5448C89.1146 84.5448 88.4266 84.3968 87.9626 84.1008C87.4986 83.8128 87.2666 83.4328 87.2666 82.9608C87.2666 82.6888 87.3586 82.4488 87.5426 82.2408C87.7346 82.0328 87.9946 81.8848 88.3226 81.7968C88.0746 81.6768 87.8746 81.5248 87.7226 81.3408C87.5786 81.1568 87.5066 80.9408 87.5066 80.6928C87.5066 80.3968 87.5866 80.1528 87.7466 79.9608C87.9066 79.7608 88.1266 79.6128 88.4066 79.5168C88.1186 79.3408 87.8986 79.1128 87.7466 78.8328C87.6026 78.5448 87.5306 78.2248 87.5306 77.8728C87.5306 77.4808 87.6346 77.1328 87.8426 76.8288C88.0506 76.5168 88.3426 76.2768 88.7186 76.1088C89.0946 75.9328 89.5186 75.8448 89.9906 75.8448C90.4386 75.8448 90.8466 75.9248 91.2146 76.0848C91.4386 75.2688 92.0026 74.8608 92.9066 74.8608L93.1226 75.7008C92.3386 75.7008 91.8626 75.9208 91.6946 76.3608C91.9346 76.5448 92.1186 76.7648 92.2466 77.0208C92.3826 77.2768 92.4506 77.5608 92.4506 77.8728C92.4506 78.2648 92.3466 78.6168 92.1386 78.9288C91.9306 79.2328 91.6386 79.4728 91.2626 79.6488C90.8866 79.8168 90.4626 79.9008 89.9906 79.9008C89.6386 79.9008 89.3306 79.8648 89.0666 79.7928C88.8266 79.8488 88.6546 79.9368 88.5506 80.0568C88.4466 80.1768 88.3946 80.3408 88.3946 80.5488C88.3946 80.7568 88.4666 80.9168 88.6106 81.0288C88.7546 81.1408 88.9466 81.1968 89.1866 81.1968H91.1786ZM89.9906 76.6248C89.5746 76.6248 89.2266 76.7408 88.9466 76.9728C88.6666 77.2048 88.5266 77.5048 88.5266 77.8728C88.5266 78.2408 88.6666 78.5408 88.9466 78.7728C89.2266 79.0048 89.5746 79.1208 89.9906 79.1208C90.4066 79.1208 90.7546 79.0048 91.0346 78.7728C91.3146 78.5408 91.4546 78.2408 91.4546 77.8728C91.4546 77.5048 91.3146 77.2048 91.0346 76.9728C90.7546 76.7408 90.4066 76.6248 89.9906 76.6248ZM90.1346 83.7408C90.7426 83.7408 91.2226 83.6408 91.5746 83.4408C91.9266 83.2488 92.1026 83.0128 92.1026 82.7328C92.1026 82.5008 92.0106 82.3248 91.8266 82.2048C91.6506 82.0848 91.3466 82.0248 90.9146 82.0248H89.3066C88.9386 82.0248 88.6546 82.0888 88.4546 82.2168C88.2546 82.3528 88.1546 82.5368 88.1546 82.7688C88.1546 83.0728 88.3226 83.3088 88.6586 83.4768C88.9946 83.6528 89.4866 83.7408 90.1346 83.7408ZM96.9726 75.8448C97.6526 75.8448 98.2126 76.0408 98.6526 76.4328C99.0926 76.8248 99.3126 77.3888 99.3126 78.1248V81.9648H98.3526V78.4608C98.3526 77.8368 98.2166 77.3848 97.9446 77.1048C97.6806 76.8248 97.3246 76.6848 96.8766 76.6848C96.5566 76.6848 96.2566 76.7568 95.9766 76.9008C95.6966 77.0368 95.4646 77.2648 95.2806 77.5848C95.1046 77.8968 95.0166 78.2928 95.0166 78.7728V81.9648H94.0566V75.9648H94.8966L94.9566 76.9008C95.1566 76.5408 95.4326 76.2768 95.7846 76.1088C96.1366 75.9328 96.5326 75.8448 96.9726 75.8448ZM106.896 82.0848C106.32 82.0848 105.8 81.9728 105.336 81.7488C104.872 81.5168 104.532 81.1768 104.316 80.7288L105.096 80.1888C105.232 80.5408 105.468 80.8048 105.804 80.9808C106.14 81.1568 106.536 81.2448 106.992 81.2448C107.464 81.2448 107.824 81.1608 108.072 80.9928C108.32 80.8248 108.444 80.6128 108.444 80.3568C108.444 80.1248 108.328 79.9408 108.096 79.8048C107.864 79.6608 107.456 79.5368 106.872 79.4328C106.296 79.3288 105.84 79.2048 105.504 79.0608C105.168 78.9088 104.924 78.7208 104.772 78.4968C104.62 78.2648 104.544 77.9808 104.544 77.6448C104.544 77.3168 104.64 77.0168 104.832 76.7448C105.024 76.4728 105.3 76.2568 105.66 76.0968C106.02 75.9288 106.436 75.8448 106.908 75.8448C107.548 75.8448 108.06 75.9648 108.444 76.2048C108.836 76.4368 109.116 76.7968 109.284 77.2848L108.468 77.7648C108.34 77.3808 108.144 77.1048 107.88 76.9368C107.624 76.7688 107.3 76.6848 106.908 76.6848C106.516 76.6848 106.184 76.7728 105.912 76.9488C105.64 77.1248 105.504 77.3288 105.504 77.5608C105.504 77.8248 105.62 78.0288 105.852 78.1728C106.092 78.3168 106.516 78.4408 107.124 78.5448C107.956 78.6808 108.544 78.8848 108.888 79.1568C109.232 79.4288 109.404 79.8128 109.404 80.3088C109.404 80.6528 109.3 80.9608 109.092 81.2328C108.892 81.4968 108.6 81.7048 108.216 81.8568C107.84 82.0088 107.4 82.0848 106.896 82.0848ZM113.356 75.8448C114.26 75.8448 114.968 76.1208 115.48 76.6728C116 77.2248 116.26 77.9888 116.26 78.9648C116.26 79.9408 116 80.7048 115.48 81.2568C114.968 81.8088 114.26 82.0848 113.356 82.0848C112.452 82.0848 111.74 81.8088 111.22 81.2568C110.708 80.7048 110.452 79.9408 110.452 78.9648C110.452 77.9888 110.708 77.2248 111.22 76.6728C111.74 76.1208 112.452 75.8448 113.356 75.8448ZM113.356 76.6728C112.748 76.6728 112.272 76.8768 111.928 77.2848C111.584 77.6928 111.412 78.2528 111.412 78.9648C111.412 79.6768 111.584 80.2368 111.928 80.6448C112.272 81.0528 112.748 81.2568 113.356 81.2568C113.964 81.2568 114.44 81.0528 114.784 80.6448C115.128 80.2368 115.3 79.6768 115.3 78.9648C115.3 78.2528 115.128 77.6928 114.784 77.2848C114.44 76.8768 113.964 76.6728 113.356 76.6728ZM118.677 80.3568C118.677 80.6608 118.721 80.8728 118.809 80.9928C118.905 81.1048 119.077 81.1608 119.325 81.1608C119.493 81.1608 119.637 81.1488 119.757 81.1248C119.885 81.1008 120.033 81.0568 120.201 80.9928L120.045 81.9168C119.781 82.0288 119.485 82.0848 119.157 82.0848C118.669 82.0848 118.305 81.9528 118.065 81.6888C117.833 81.4248 117.717 81.0208 117.717 80.4768V73.2048H118.677V80.3568ZM126.269 75.9648V81.9648H125.429L125.369 81.0528C124.969 81.7408 124.253 82.0848 123.221 82.0848C122.573 82.0848 122.041 81.9048 121.625 81.5448C121.217 81.1848 121.013 80.6328 121.013 79.8888V75.9648H121.973V79.6368C121.973 80.2208 122.093 80.6368 122.333 80.8848C122.573 81.1248 122.925 81.2448 123.389 81.2448C123.941 81.2448 124.397 81.0768 124.757 80.7408C125.125 80.4048 125.309 79.9008 125.309 79.2288V75.9648H126.269ZM131.815 81.5448C131.415 81.9048 130.899 82.0848 130.267 82.0848C129.779 82.0848 129.379 81.9528 129.067 81.6888C128.763 81.4248 128.607 81.0208 128.599 80.4768V76.7928H127.399V75.9648H128.599V74.5248L129.559 74.2608V75.9648H131.779V76.7928H129.559V80.3088C129.559 80.5968 129.639 80.8168 129.799 80.9688C129.967 81.1128 130.187 81.1848 130.459 81.1848C130.843 81.1848 131.183 81.0368 131.479 80.7408L131.815 81.5448ZM133.29 74.8128C133.074 74.8128 132.898 74.7488 132.762 74.6208C132.634 74.4848 132.57 74.3088 132.57 74.0928C132.57 73.8768 132.634 73.7048 132.762 73.5768C132.898 73.4408 133.074 73.3728 133.29 73.3728C133.506 73.3728 133.678 73.4408 133.806 73.5768C133.942 73.7048 134.01 73.8768 134.01 74.0928C134.01 74.3088 133.942 74.4848 133.806 74.6208C133.678 74.7488 133.506 74.8128 133.29 74.8128ZM133.77 81.9648H132.81V75.9648H133.77V81.9648ZM138.169 75.8448C139.073 75.8448 139.781 76.1208 140.294 76.6728C140.813 77.2248 141.073 77.9888 141.073 78.9648C141.073 79.9408 140.813 80.7048 140.294 81.2568C139.781 81.8088 139.073 82.0848 138.169 82.0848C137.265 82.0848 136.553 81.8088 136.033 81.2568C135.521 80.7048 135.265 79.9408 135.265 78.9648C135.265 77.9888 135.521 77.2248 136.033 76.6728C136.553 76.1208 137.265 75.8448 138.169 75.8448ZM138.169 76.6728C137.561 76.6728 137.085 76.8768 136.741 77.2848C136.397 77.6928 136.225 78.2528 136.225 78.9648C136.225 79.6768 136.397 80.2368 136.741 80.6448C137.085 81.0528 137.561 81.2568 138.169 81.2568C138.777 81.2568 139.253 81.0528 139.597 80.6448C139.941 80.2368 140.113 79.6768 140.113 78.9648C140.113 78.2528 139.941 77.6928 139.597 77.2848C139.253 76.8768 138.777 76.6728 138.169 76.6728ZM145.494 75.8448C146.174 75.8448 146.734 76.0408 147.174 76.4328C147.614 76.8248 147.834 77.3888 147.834 78.1248V81.9648H146.874V78.4608C146.874 77.8368 146.738 77.3848 146.466 77.1048C146.202 76.8248 145.846 76.6848 145.398 76.6848C145.078 76.6848 144.778 76.7568 144.498 76.9008C144.218 77.0368 143.986 77.2648 143.802 77.5848C143.626 77.8968 143.538 78.2928 143.538 78.7728V81.9648H142.578V75.9648H143.418L143.478 76.9008C143.678 76.5408 143.954 76.2768 144.306 76.1088C144.658 75.9328 145.054 75.8448 145.494 75.8448Z" fill="black"/>
<path d="M76.3005 143.495V152.255H75.4605L75.4005 151.211C75.2245 151.563 74.9525 151.847 74.5845 152.063C74.2245 152.271 73.8125 152.375 73.3485 152.375C72.5085 152.375 71.8405 152.099 71.3445 151.547C70.8565 150.987 70.6125 150.223 70.6125 149.255C70.6125 148.287 70.8565 147.527 71.3445 146.975C71.8405 146.415 72.5085 146.135 73.3485 146.135C73.7885 146.135 74.1805 146.231 74.5245 146.423C74.8765 146.615 75.1485 146.871 75.3405 147.191V143.495H76.3005ZM73.4565 151.535C74.0325 151.535 74.4885 151.335 74.8245 150.935C75.1685 150.535 75.3405 149.999 75.3405 149.327V149.183C75.3405 148.511 75.1685 147.975 74.8245 147.575C74.4885 147.175 74.0325 146.975 73.4565 146.975C72.8725 146.975 72.4125 147.183 72.0765 147.599C71.7405 148.007 71.5725 148.559 71.5725 149.255C71.5725 149.951 71.7405 150.507 72.0765 150.923C72.4125 151.331 72.8725 151.535 73.4565 151.535ZM83.3191 148.943C83.3191 149.167 83.3031 149.391 83.2711 149.615H78.7471C78.8031 150.223 79.0031 150.695 79.3471 151.031C79.6991 151.367 80.1511 151.535 80.7031 151.535C81.1431 151.535 81.5071 151.459 81.7951 151.307C82.0911 151.155 82.2911 150.935 82.3951 150.647L83.1991 151.067C82.9591 151.491 82.6391 151.815 82.2391 152.039C81.8391 152.263 81.3271 152.375 80.7031 152.375C79.7991 152.375 79.0871 152.099 78.5671 151.547C78.0551 150.995 77.7991 150.231 77.7991 149.255C77.7991 148.279 78.0431 147.515 78.5311 146.963C79.0271 146.411 79.7271 146.135 80.6311 146.135C81.1911 146.135 81.6751 146.259 82.0831 146.507C82.4911 146.755 82.7991 147.091 83.0071 147.515C83.2151 147.939 83.3191 148.415 83.3191 148.943ZM80.6311 146.975C80.1031 146.975 79.6751 147.131 79.3471 147.443C79.0271 147.755 78.8311 148.195 78.7591 148.763H82.3951C82.3311 148.203 82.1471 147.767 81.8431 147.455C81.5391 147.135 81.1351 146.975 80.6311 146.975ZM89.5997 146.255L87.1037 152.255H86.1437L83.6477 146.255H84.7397L86.6357 151.283L88.5917 146.255H89.5997ZM95.6421 148.943C95.6421 149.167 95.6261 149.391 95.5941 149.615H91.0701C91.1261 150.223 91.3261 150.695 91.6701 151.031C92.0221 151.367 92.4741 151.535 93.0261 151.535C93.4661 151.535 93.8301 151.459 94.1181 151.307C94.4141 151.155 94.6141 150.935 94.7181 150.647L95.5221 151.067C95.2821 151.491 94.9621 151.815 94.5621 152.039C94.1621 152.263 93.6501 152.375 93.0261 152.375C92.1221 152.375 91.4101 152.099 90.8901 151.547C90.3781 150.995 90.1221 150.231 90.1221 149.255C90.1221 148.279 90.3661 147.515 90.8541 146.963C91.3501 146.411 92.0501 146.135 92.9541 146.135C93.5141 146.135 93.9981 146.259 94.4061 146.507C94.8141 146.755 95.1221 147.091 95.3301 147.515C95.5381 147.939 95.6421 148.415 95.6421 148.943ZM92.9541 146.975C92.4261 146.975 91.9981 147.131 91.6701 147.443C91.3501 147.755 91.1541 148.195 91.0821 148.763H94.7181C94.6541 148.203 94.4701 147.767 94.1661 147.455C93.8621 147.135 93.4581 146.975 92.9541 146.975ZM98.0187 150.647C98.0187 150.951 98.0627 151.163 98.1507 151.283C98.2467 151.395 98.4187 151.451 98.6667 151.451C98.8347 151.451 98.9787 151.439 99.0987 151.415C99.2267 151.391 99.3747 151.347 99.5427 151.283L99.3867 152.207C99.1227 152.319 98.8267 152.375 98.4987 152.375C98.0107 152.375 97.6467 152.243 97.4067 151.979C97.1747 151.715 97.0587 151.311 97.0587 150.767V143.495H98.0187V150.647ZM102.947 146.135C103.851 146.135 104.559 146.411 105.071 146.963C105.591 147.515 105.851 148.279 105.851 149.255C105.851 150.231 105.591 150.995 105.071 151.547C104.559 152.099 103.851 152.375 102.947 152.375C102.043 152.375 101.331 152.099 100.811 151.547C100.299 150.995 100.043 150.231 100.043 149.255C100.043 148.279 100.299 147.515 100.811 146.963C101.331 146.411 102.043 146.135 102.947 146.135ZM102.947 146.963C102.339 146.963 101.863 147.167 101.519 147.575C101.175 147.983 101.003 148.543 101.003 149.255C101.003 149.967 101.175 150.527 101.519 150.935C101.863 151.343 102.339 151.547 102.947 151.547C103.555 151.547 104.031 151.343 104.375 150.935C104.719 150.527 104.891 149.967 104.891 149.255C104.891 148.543 104.719 147.983 104.375 147.575C104.031 147.167 103.555 146.963 102.947 146.963ZM110.307 146.135C111.147 146.135 111.811 146.415 112.299 146.975C112.795 147.527 113.043 148.287 113.043 149.255C113.043 150.223 112.795 150.987 112.299 151.547C111.811 152.099 111.147 152.375 110.307 152.375C109.867 152.375 109.471 152.279 109.119 152.087C108.775 151.895 108.507 151.639 108.315 151.319V154.775H107.355V146.255H108.195L108.255 147.299C108.431 146.947 108.699 146.667 109.059 146.459C109.427 146.243 109.843 146.135 110.307 146.135ZM110.199 151.535C110.783 151.535 111.243 151.331 111.579 150.923C111.915 150.507 112.083 149.951 112.083 149.255C112.083 148.559 111.915 148.007 111.579 147.599C111.243 147.183 110.783 146.975 110.199 146.975C109.623 146.975 109.163 147.175 108.819 147.575C108.483 147.975 108.315 148.511 108.315 149.183V149.327C108.315 149.999 108.483 150.535 108.819 150.935C109.163 151.335 109.623 151.535 110.199 151.535ZM121.526 146.135C121.926 146.135 122.298 146.219 122.642 146.387C122.994 146.547 123.278 146.799 123.494 147.143C123.71 147.487 123.818 147.911 123.818 148.415V152.255H122.858V148.511C122.858 147.991 122.726 147.607 122.462 147.359C122.206 147.103 121.866 146.975 121.442 146.975C121.122 146.975 120.826 147.055 120.554 147.215C120.29 147.367 120.074 147.595 119.906 147.899C119.746 148.195 119.666 148.551 119.666 148.967V152.255H118.706V148.511C118.706 147.991 118.574 147.607 118.31 147.359C118.054 147.103 117.714 146.975 117.29 146.975C117.002 146.975 116.722 147.051 116.45 147.203C116.178 147.347 115.954 147.575 115.778 147.887C115.602 148.199 115.514 148.587 115.514 149.051V152.255H114.554V146.255H115.394L115.454 147.191C115.662 146.839 115.934 146.575 116.27 146.399C116.614 146.223 116.982 146.135 117.374 146.135C117.814 146.135 118.218 146.235 118.586 146.435C118.962 146.635 119.246 146.927 119.438 147.311C119.614 146.927 119.902 146.635 120.302 146.435C120.702 146.235 121.11 146.135 121.526 146.135ZM130.78 148.943C130.78 149.167 130.764 149.391 130.732 149.615H126.208C126.264 150.223 126.464 150.695 126.808 151.031C127.16 151.367 127.612 151.535 128.164 151.535C128.604 151.535 128.968 151.459 129.256 151.307C129.552 151.155 129.752 150.935 129.856 150.647L130.66 151.067C130.42 151.491 130.1 151.815 129.7 152.039C129.3 152.263 128.788 152.375 128.164 152.375C127.26 152.375 126.548 152.099 126.028 151.547C125.516 150.995 125.26 150.231 125.26 149.255C125.26 148.279 125.504 147.515 125.992 146.963C126.488 146.411 127.188 146.135 128.092 146.135C128.652 146.135 129.136 146.259 129.544 146.507C129.952 146.755 130.26 147.091 130.468 147.515C130.676 147.939 130.78 148.415 130.78 148.943ZM128.092 146.975C127.564 146.975 127.136 147.131 126.808 147.443C126.488 147.755 126.292 148.195 126.22 148.763H129.856C129.792 148.203 129.608 147.767 129.304 147.455C129 147.135 128.596 146.975 128.092 146.975ZM135.16 146.135C135.84 146.135 136.4 146.331 136.84 146.723C137.28 147.115 137.5 147.679 137.5 148.415V152.255H136.54V148.751C136.54 148.127 136.404 147.675 136.132 147.395C135.868 147.115 135.512 146.975 135.064 146.975C134.744 146.975 134.444 147.047 134.164 147.191C133.884 147.327 133.652 147.555 133.468 147.875C133.292 148.187 133.204 148.583 133.204 149.063V152.255H132.244V146.255H133.084L133.144 147.191C133.344 146.831 133.62 146.567 133.972 146.399C134.324 146.223 134.72 146.135 135.16 146.135ZM142.904 151.835C142.504 152.195 141.988 152.375 141.356 152.375C140.868 152.375 140.468 152.243 140.156 151.979C139.852 151.715 139.696 151.311 139.688 150.767V147.083H138.488V146.255H139.688V144.815L140.648 144.551V146.255H142.868V147.083H140.648V150.599C140.648 150.887 140.728 151.107 140.888 151.259C141.056 151.403 141.276 151.475 141.548 151.475C141.932 151.475 142.272 151.327 142.568 151.031L142.904 151.835Z" fill="black"/>
<circle cx="106.5" cy="106.5" r="106" stroke="black" stroke-linecap="square" stroke-linejoin="round" stroke-dasharray="50 100 25 100"/>
<circle cx="106.5" cy="106.5" r="97.48" stroke="black" stroke-linejoin="round" stroke-dasharray="2 5 2 5 10 2 5 2"/>
</svg>
