<svg width="335" height="297" viewBox="0 0 335 297" fill="none" xmlns="http://www.w3.org/2000/svg">
<path d="M35.1841 26.08V34H34.2241V28.192C34.2241 28.024 34.2321 27.716 34.2481 27.268C33.9761 27.532 33.6601 27.764 33.3001 27.964C32.9401 28.156 32.5721 28.296 32.1961 28.384L31.9441 27.508C32.1361 27.484 32.3961 27.396 32.7241 27.244C33.0521 27.084 33.3681 26.9 33.6721 26.692C33.9761 26.476 34.2001 26.272 34.3441 26.08H35.1841ZM37.6462 32.56C37.8782 32.56 38.0662 32.632 38.2102 32.776C38.3542 32.92 38.4262 33.108 38.4262 33.34C38.4262 33.572 38.3542 33.76 38.2102 33.904C38.0662 34.048 37.8782 34.12 37.6462 34.12C37.4142 34.12 37.2262 34.048 37.0822 33.904C36.9382 33.76 36.8662 33.572 36.8662 33.34C36.8662 33.108 36.9382 32.92 37.0822 32.776C37.2262 32.632 37.4142 32.56 37.6462 32.56ZM49.0516 25.24V34H48.2116L48.1516 32.956C47.9756 33.308 47.7036 33.592 47.3356 33.808C46.9756 34.016 46.5636 34.12 46.0996 34.12C45.2596 34.12 44.5916 33.844 44.0956 33.292C43.6076 32.732 43.3636 31.968 43.3636 31C43.3636 30.032 43.6076 29.272 44.0956 28.72C44.5916 28.16 45.2596 27.88 46.0996 27.88C46.5396 27.88 46.9316 27.976 47.2756 28.168C47.6276 28.36 47.8996 28.616 48.0916 28.936V25.24H49.0516ZM46.2076 33.28C46.7836 33.28 47.2396 33.08 47.5756 32.68C47.9196 32.28 48.0916 31.744 48.0916 31.072V30.928C48.0916 30.256 47.9196 29.72 47.5756 29.32C47.2396 28.92 46.7836 28.72 46.2076 28.72C45.6236 28.72 45.1636 28.928 44.8276 29.344C44.4916 29.752 44.3236 30.304 44.3236 31C44.3236 31.696 44.4916 32.252 44.8276 32.668C45.1636 33.076 45.6236 33.28 46.2076 33.28ZM56.0702 30.688C56.0702 30.912 56.0542 31.136 56.0222 31.36H51.4982C51.5542 31.968 51.7542 32.44 52.0982 32.776C52.4502 33.112 52.9022 33.28 53.4542 33.28C53.8942 33.28 54.2582 33.204 54.5462 33.052C54.8422 32.9 55.0422 32.68 55.1462 32.392L55.9502 32.812C55.7102 33.236 55.3902 33.56 54.9902 33.784C54.5902 34.008 54.0782 34.12 53.4542 34.12C52.5502 34.12 51.8382 33.844 51.3182 33.292C50.8062 32.74 50.5502 31.976 50.5502 31C50.5502 30.024 50.7942 29.26 51.2822 28.708C51.7782 28.156 52.4782 27.88 53.3822 27.88C53.9422 27.88 54.4262 28.004 54.8342 28.252C55.2422 28.5 55.5502 28.836 55.7582 29.26C55.9662 29.684 56.0702 30.16 56.0702 30.688ZM53.3822 28.72C52.8542 28.72 52.4262 28.876 52.0982 29.188C51.7782 29.5 51.5822 29.94 51.5102 30.508H55.1462C55.0822 29.948 54.8982 29.512 54.5942 29.2C54.2902 28.88 53.8862 28.72 53.3822 28.72ZM58.9042 28H60.9082V28.828H58.9042V34H57.9442V28.828H56.7442V28H57.9442V26.992C57.9442 26.44 58.1122 26 58.4482 25.672C58.7842 25.344 59.2722 25.18 59.9122 25.18C60.1282 25.18 60.3242 25.204 60.5002 25.252C60.6842 25.3 60.8282 25.368 60.9322 25.456L60.6802 26.236C60.4882 26.116 60.2602 26.056 59.9962 26.056C59.2682 26.056 58.9042 26.4 58.9042 27.088V28ZM62.6722 26.848C62.4562 26.848 62.2802 26.784 62.1442 26.656C62.0162 26.52 61.9522 26.344 61.9522 26.128C61.9522 25.912 62.0162 25.74 62.1442 25.612C62.2802 25.476 62.4562 25.408 62.6722 25.408C62.8882 25.408 63.0602 25.476 63.1882 25.612C63.3242 25.74 63.3922 25.912 63.3922 26.128C63.3922 26.344 63.3242 26.52 63.1882 26.656C63.0602 26.784 62.8882 26.848 62.6722 26.848ZM63.1522 34H62.1922V28H63.1522V34ZM67.9424 27.88C68.6224 27.88 69.1824 28.076 69.6224 28.468C70.0624 28.86 70.2824 29.424 70.2824 30.16V34H69.3224V30.496C69.3224 29.872 69.1864 29.42 68.9144 29.14C68.6504 28.86 68.2944 28.72 67.8464 28.72C67.5264 28.72 67.2264 28.792 66.9464 28.936C66.6664 29.072 66.4344 29.3 66.2504 29.62C66.0744 29.932 65.9864 30.328 65.9864 30.808V34H65.0264V28H65.8664L65.9264 28.936C66.1264 28.576 66.4024 28.312 66.7544 28.144C67.1064 27.968 67.5024 27.88 67.9424 27.88ZM77.2441 30.688C77.2441 30.912 77.2281 31.136 77.1961 31.36H72.6721C72.7281 31.968 72.9281 32.44 73.2721 32.776C73.6241 33.112 74.0761 33.28 74.6281 33.28C75.0681 33.28 75.4321 33.204 75.7201 33.052C76.0161 32.9 76.2161 32.68 76.3201 32.392L77.1241 32.812C76.8841 33.236 76.5641 33.56 76.1641 33.784C75.7641 34.008 75.2521 34.12 74.6281 34.12C73.7241 34.12 73.0121 33.844 72.4921 33.292C71.9801 32.74 71.7241 31.976 71.7241 31C71.7241 30.024 71.9681 29.26 72.4561 28.708C72.9521 28.156 73.6521 27.88 74.5561 27.88C75.1161 27.88 75.6001 28.004 76.0081 28.252C76.4161 28.5 76.7241 28.836 76.9321 29.26C77.1401 29.684 77.2441 30.16 77.2441 30.688ZM74.5561 28.72C74.0281 28.72 73.6001 28.876 73.2721 29.188C72.9521 29.5 72.7561 29.94 72.6841 30.508H76.3201C76.2561 29.948 76.0721 29.512 75.7681 29.2C75.4641 28.88 75.0601 28.72 74.5561 28.72Z" fill="black"/>
<path d="M249.388 33.22C250.484 32.412 251.324 31.748 251.908 31.228C252.492 30.7 252.908 30.224 253.156 29.8C253.412 29.368 253.54 28.916 253.54 28.444C253.54 27.972 253.388 27.592 253.084 27.304C252.78 27.008 252.372 26.86 251.86 26.86C251.324 26.86 250.888 27.036 250.552 27.388C250.224 27.74 250.032 28.216 249.976 28.816L249.136 28.312C249.24 27.6 249.528 27.032 250 26.608C250.48 26.176 251.112 25.96 251.896 25.96C252.424 25.96 252.888 26.064 253.288 26.272C253.696 26.48 254.008 26.772 254.224 27.148C254.44 27.524 254.548 27.956 254.548 28.444C254.548 28.956 254.424 29.448 254.176 29.92C253.936 30.392 253.54 30.888 252.988 31.408C252.436 31.928 251.692 32.5 250.756 33.124V33.136C251.284 33.112 251.68 33.1 251.944 33.1H254.716V34H249.388V33.22ZM256.732 32.56C256.964 32.56 257.152 32.632 257.296 32.776C257.44 32.92 257.512 33.108 257.512 33.34C257.512 33.572 257.44 33.76 257.296 33.904C257.152 34.048 256.964 34.12 256.732 34.12C256.5 34.12 256.312 34.048 256.168 33.904C256.024 33.76 255.952 33.572 255.952 33.34C255.952 33.108 256.024 32.92 256.168 32.776C256.312 32.632 256.5 32.56 256.732 32.56ZM268.137 25.24V34H267.297L267.237 32.956C267.061 33.308 266.789 33.592 266.421 33.808C266.061 34.016 265.649 34.12 265.185 34.12C264.345 34.12 263.677 33.844 263.181 33.292C262.693 32.732 262.449 31.968 262.449 31C262.449 30.032 262.693 29.272 263.181 28.72C263.677 28.16 264.345 27.88 265.185 27.88C265.625 27.88 266.017 27.976 266.361 28.168C266.713 28.36 266.985 28.616 267.177 28.936V25.24H268.137ZM265.293 33.28C265.869 33.28 266.325 33.08 266.661 32.68C267.005 32.28 267.177 31.744 267.177 31.072V30.928C267.177 30.256 267.005 29.72 266.661 29.32C266.325 28.92 265.869 28.72 265.293 28.72C264.709 28.72 264.249 28.928 263.913 29.344C263.577 29.752 263.409 30.304 263.409 31C263.409 31.696 263.577 32.252 263.913 32.668C264.249 33.076 264.709 33.28 265.293 33.28ZM275.156 30.688C275.156 30.912 275.14 31.136 275.108 31.36H270.584C270.64 31.968 270.84 32.44 271.184 32.776C271.536 33.112 271.988 33.28 272.54 33.28C272.98 33.28 273.344 33.204 273.632 33.052C273.928 32.9 274.128 32.68 274.232 32.392L275.036 32.812C274.796 33.236 274.476 33.56 274.076 33.784C273.676 34.008 273.164 34.12 272.54 34.12C271.636 34.12 270.924 33.844 270.404 33.292C269.892 32.74 269.636 31.976 269.636 31C269.636 30.024 269.88 29.26 270.368 28.708C270.864 28.156 271.564 27.88 272.468 27.88C273.028 27.88 273.512 28.004 273.92 28.252C274.328 28.5 274.636 28.836 274.844 29.26C275.052 29.684 275.156 30.16 275.156 30.688ZM272.468 28.72C271.94 28.72 271.512 28.876 271.184 29.188C270.864 29.5 270.668 29.94 270.596 30.508H274.232C274.168 29.948 273.984 29.512 273.68 29.2C273.376 28.88 272.972 28.72 272.468 28.72ZM278.661 34.12C278.085 34.12 277.565 34.008 277.101 33.784C276.637 33.552 276.297 33.212 276.081 32.764L276.861 32.224C276.997 32.576 277.233 32.84 277.569 33.016C277.905 33.192 278.301 33.28 278.757 33.28C279.229 33.28 279.589 33.196 279.837 33.028C280.085 32.86 280.209 32.648 280.209 32.392C280.209 32.16 280.093 31.976 279.861 31.84C279.629 31.696 279.221 31.572 278.637 31.468C278.061 31.364 277.605 31.24 277.269 31.096C276.933 30.944 276.689 30.756 276.537 30.532C276.385 30.3 276.309 30.016 276.309 29.68C276.309 29.352 276.405 29.052 276.597 28.78C276.789 28.508 277.065 28.292 277.425 28.132C277.785 27.964 278.201 27.88 278.673 27.88C279.313 27.88 279.825 28 280.209 28.24C280.601 28.472 280.881 28.832 281.049 29.32L280.233 29.8C280.105 29.416 279.909 29.14 279.645 28.972C279.389 28.804 279.065 28.72 278.673 28.72C278.281 28.72 277.949 28.808 277.677 28.984C277.405 29.16 277.269 29.364 277.269 29.596C277.269 29.86 277.385 30.064 277.617 30.208C277.857 30.352 278.281 30.476 278.889 30.58C279.721 30.716 280.309 30.92 280.653 31.192C280.997 31.464 281.169 31.848 281.169 32.344C281.169 32.688 281.065 32.996 280.857 33.268C280.657 33.532 280.365 33.74 279.981 33.892C279.605 34.044 279.165 34.12 278.661 34.12ZM283.069 26.848C282.853 26.848 282.677 26.784 282.541 26.656C282.413 26.52 282.349 26.344 282.349 26.128C282.349 25.912 282.413 25.74 282.541 25.612C282.677 25.476 282.853 25.408 283.069 25.408C283.285 25.408 283.457 25.476 283.585 25.612C283.721 25.74 283.789 25.912 283.789 26.128C283.789 26.344 283.721 26.52 283.585 26.656C283.457 26.784 283.285 26.848 283.069 26.848ZM283.549 34H282.589V28H283.549V34ZM288.764 33.232C289.332 33.232 289.776 33.36 290.096 33.616C290.416 33.872 290.576 34.22 290.576 34.66C290.576 35.044 290.444 35.38 290.18 35.668C289.916 35.964 289.556 36.188 289.1 36.34C288.652 36.5 288.156 36.58 287.612 36.58C286.7 36.58 286.012 36.432 285.548 36.136C285.084 35.848 284.852 35.468 284.852 34.996C284.852 34.724 284.944 34.484 285.128 34.276C285.32 34.068 285.58 33.92 285.908 33.832C285.66 33.712 285.46 33.56 285.308 33.376C285.164 33.192 285.092 32.976 285.092 32.728C285.092 32.432 285.172 32.188 285.332 31.996C285.492 31.796 285.712 31.648 285.992 31.552C285.704 31.376 285.484 31.148 285.332 30.868C285.188 30.58 285.116 30.26 285.116 29.908C285.116 29.516 285.22 29.168 285.428 28.864C285.636 28.552 285.928 28.312 286.304 28.144C286.68 27.968 287.104 27.88 287.576 27.88C288.024 27.88 288.432 27.96 288.8 28.12C289.024 27.304 289.588 26.896 290.492 26.896L290.708 27.736C289.924 27.736 289.448 27.956 289.28 28.396C289.52 28.58 289.704 28.8 289.832 29.056C289.968 29.312 290.036 29.596 290.036 29.908C290.036 30.3 289.932 30.652 289.724 30.964C289.516 31.268 289.224 31.508 288.848 31.684C288.472 31.852 288.048 31.936 287.576 31.936C287.224 31.936 286.916 31.9 286.652 31.828C286.412 31.884 286.24 31.972 286.136 32.092C286.032 32.212 285.98 32.376 285.98 32.584C285.98 32.792 286.052 32.952 286.196 33.064C286.34 33.176 286.532 33.232 286.772 33.232H288.764ZM287.576 28.66C287.16 28.66 286.812 28.776 286.532 29.008C286.252 29.24 286.112 29.54 286.112 29.908C286.112 30.276 286.252 30.576 286.532 30.808C286.812 31.04 287.16 31.156 287.576 31.156C287.992 31.156 288.34 31.04 288.62 30.808C288.9 30.576 289.04 30.276 289.04 29.908C289.04 29.54 288.9 29.24 288.62 29.008C288.34 28.776 287.992 28.66 287.576 28.66ZM287.72 35.776C288.328 35.776 288.808 35.676 289.16 35.476C289.512 35.284 289.688 35.048 289.688 34.768C289.688 34.536 289.596 34.36 289.412 34.24C289.236 34.12 288.932 34.06 288.5 34.06H286.892C286.524 34.06 286.24 34.124 286.04 34.252C285.84 34.388 285.74 34.572 285.74 34.804C285.74 35.108 285.908 35.344 286.244 35.512C286.58 35.688 287.072 35.776 287.72 35.776ZM294.558 27.88C295.238 27.88 295.798 28.076 296.238 28.468C296.678 28.86 296.898 29.424 296.898 30.16V34H295.938V30.496C295.938 29.872 295.802 29.42 295.53 29.14C295.266 28.86 294.91 28.72 294.462 28.72C294.142 28.72 293.842 28.792 293.562 28.936C293.282 29.072 293.05 29.3 292.866 29.62C292.69 29.932 292.602 30.328 292.602 30.808V34H291.642V28H292.482L292.542 28.936C292.742 28.576 293.018 28.312 293.37 28.144C293.722 27.968 294.118 27.88 294.558 27.88Z" fill="black"/>
<path d="M34.9921 260.96C35.5121 260.96 35.9561 261.056 36.3241 261.248C36.7001 261.432 36.9841 261.68 37.1761 261.992C37.3681 262.304 37.4641 262.648 37.4641 263.024C37.4641 263.392 37.3961 263.724 37.2601 264.02C37.1241 264.316 36.9401 264.552 36.7081 264.728C36.4841 264.896 36.2401 264.98 35.9761 264.98V265.004C36.4801 265.004 36.8841 265.188 37.1881 265.556C37.4921 265.916 37.6441 266.356 37.6441 266.876C37.6441 267.3 37.5281 267.684 37.2961 268.028C37.0721 268.372 36.7481 268.64 36.3241 268.832C35.9001 269.024 35.4121 269.12 34.8601 269.12C33.5401 269.12 32.6281 268.488 32.1241 267.224L33.0121 266.756C33.1721 267.244 33.3921 267.612 33.6721 267.86C33.9601 268.1 34.3801 268.22 34.9321 268.22C35.4681 268.22 35.8881 268.088 36.1921 267.824C36.4961 267.552 36.6481 267.204 36.6481 266.78C36.6481 266.292 36.5001 265.952 36.2041 265.76C35.9161 265.56 35.4561 265.46 34.8241 265.46H34.5121V264.56H34.8241C35.9201 264.56 36.4681 264.112 36.4681 263.216C36.4681 262.768 36.3401 262.432 36.0841 262.208C35.8361 261.976 35.4761 261.86 35.0041 261.86C34.5401 261.86 34.1681 261.968 33.8881 262.184C33.6161 262.392 33.4281 262.688 33.3241 263.072L32.4241 262.652C32.6161 262.132 32.9401 261.72 33.3961 261.416C33.8601 261.112 34.3921 260.96 34.9921 260.96ZM39.7321 267.56C39.9641 267.56 40.1521 267.632 40.2961 267.776C40.4401 267.92 40.5121 268.108 40.5121 268.34C40.5121 268.572 40.4401 268.76 40.2961 268.904C40.1521 269.048 39.9641 269.12 39.7321 269.12C39.5001 269.12 39.3121 269.048 39.1681 268.904C39.0241 268.76 38.9521 268.572 38.9521 268.34C38.9521 268.108 39.0241 267.92 39.1681 267.776C39.3121 267.632 39.5001 267.56 39.7321 267.56ZM51.1375 260.24V269H50.2975L50.2375 267.956C50.0615 268.308 49.7895 268.592 49.4215 268.808C49.0615 269.016 48.6495 269.12 48.1855 269.12C47.3455 269.12 46.6775 268.844 46.1815 268.292C45.6935 267.732 45.4495 266.968 45.4495 266C45.4495 265.032 45.6935 264.272 46.1815 263.72C46.6775 263.16 47.3455 262.88 48.1855 262.88C48.6255 262.88 49.0175 262.976 49.3615 263.168C49.7135 263.36 49.9855 263.616 50.1775 263.936V260.24H51.1375ZM48.2935 268.28C48.8695 268.28 49.3255 268.08 49.6615 267.68C50.0055 267.28 50.1775 266.744 50.1775 266.072V265.928C50.1775 265.256 50.0055 264.72 49.6615 264.32C49.3255 263.92 48.8695 263.72 48.2935 263.72C47.7095 263.72 47.2495 263.928 46.9135 264.344C46.5775 264.752 46.4095 265.304 46.4095 266C46.4095 266.696 46.5775 267.252 46.9135 267.668C47.2495 268.076 47.7095 268.28 48.2935 268.28ZM58.1561 265.688C58.1561 265.912 58.1401 266.136 58.1081 266.36H53.5841C53.6401 266.968 53.8401 267.44 54.1841 267.776C54.5361 268.112 54.9881 268.28 55.5401 268.28C55.9801 268.28 56.3441 268.204 56.6321 268.052C56.9281 267.9 57.1281 267.68 57.2321 267.392L58.0361 267.812C57.7961 268.236 57.4761 268.56 57.0761 268.784C56.6761 269.008 56.1641 269.12 55.5401 269.12C54.6361 269.12 53.9241 268.844 53.4041 268.292C52.8921 267.74 52.6361 266.976 52.6361 266C52.6361 265.024 52.8801 264.26 53.3681 263.708C53.8641 263.156 54.5641 262.88 55.4681 262.88C56.0281 262.88 56.5121 263.004 56.9201 263.252C57.3281 263.5 57.6361 263.836 57.8441 264.26C58.0521 264.684 58.1561 265.16 58.1561 265.688ZM55.4681 263.72C54.9401 263.72 54.5121 263.876 54.1841 264.188C53.8641 264.5 53.6681 264.94 53.5961 265.508H57.2321C57.1681 264.948 56.9841 264.512 56.6801 264.2C56.3761 263.88 55.9721 263.72 55.4681 263.72ZM64.4367 263L61.9407 269H60.9807L58.4847 263H59.5767L61.4727 268.028L63.4287 263H64.4367ZM70.4791 265.688C70.4791 265.912 70.4631 266.136 70.4311 266.36H65.9071C65.9631 266.968 66.1631 267.44 66.5071 267.776C66.8591 268.112 67.3111 268.28 67.8631 268.28C68.3031 268.28 68.6671 268.204 68.9551 268.052C69.2511 267.9 69.4511 267.68 69.5551 267.392L70.3591 267.812C70.1191 268.236 69.7991 268.56 69.3991 268.784C68.9991 269.008 68.4871 269.12 67.8631 269.12C66.9591 269.12 66.2471 268.844 65.7271 268.292C65.2151 267.74 64.9591 266.976 64.9591 266C64.9591 265.024 65.2031 264.26 65.6911 263.708C66.1871 263.156 66.8871 262.88 67.7911 262.88C68.3511 262.88 68.8351 263.004 69.2431 263.252C69.6511 263.5 69.9591 263.836 70.1671 264.26C70.3751 264.684 70.4791 265.16 70.4791 265.688ZM67.7911 263.72C67.2631 263.72 66.8351 263.876 66.5071 264.188C66.1871 264.5 65.9911 264.94 65.9191 265.508H69.5551C69.4911 264.948 69.3071 264.512 69.0031 264.2C68.6991 263.88 68.2951 263.72 67.7911 263.72ZM72.8557 267.392C72.8557 267.696 72.8997 267.908 72.9877 268.028C73.0837 268.14 73.2557 268.196 73.5037 268.196C73.6717 268.196 73.8157 268.184 73.9357 268.16C74.0637 268.136 74.2117 268.092 74.3797 268.028L74.2237 268.952C73.9597 269.064 73.6637 269.12 73.3357 269.12C72.8477 269.12 72.4837 268.988 72.2437 268.724C72.0117 268.46 71.8957 268.056 71.8957 267.512V260.24H72.8557V267.392ZM77.7837 262.88C78.6877 262.88 79.3957 263.156 79.9077 263.708C80.4277 264.26 80.6877 265.024 80.6877 266C80.6877 266.976 80.4277 267.74 79.9077 268.292C79.3957 268.844 78.6877 269.12 77.7837 269.12C76.8797 269.12 76.1677 268.844 75.6477 268.292C75.1357 267.74 74.8797 266.976 74.8797 266C74.8797 265.024 75.1357 264.26 75.6477 263.708C76.1677 263.156 76.8797 262.88 77.7837 262.88ZM77.7837 263.708C77.1757 263.708 76.6997 263.912 76.3557 264.32C76.0117 264.728 75.8397 265.288 75.8397 266C75.8397 266.712 76.0117 267.272 76.3557 267.68C76.6997 268.088 77.1757 268.292 77.7837 268.292C78.3917 268.292 78.8677 268.088 79.2117 267.68C79.5557 267.272 79.7277 266.712 79.7277 266C79.7277 265.288 79.5557 264.728 79.2117 264.32C78.8677 263.912 78.3917 263.708 77.7837 263.708ZM85.1445 262.88C85.9845 262.88 86.6485 263.16 87.1365 263.72C87.6325 264.272 87.8805 265.032 87.8805 266C87.8805 266.968 87.6325 267.732 87.1365 268.292C86.6485 268.844 85.9845 269.12 85.1445 269.12C84.7045 269.12 84.3085 269.024 83.9565 268.832C83.6125 268.64 83.3445 268.384 83.1525 268.064V271.52H82.1925V263H83.0325L83.0925 264.044C83.2685 263.692 83.5365 263.412 83.8965 263.204C84.2645 262.988 84.6805 262.88 85.1445 262.88ZM85.0365 268.28C85.6205 268.28 86.0805 268.076 86.4165 267.668C86.7525 267.252 86.9205 266.696 86.9205 266C86.9205 265.304 86.7525 264.752 86.4165 264.344C86.0805 263.928 85.6205 263.72 85.0365 263.72C84.4605 263.72 84.0005 263.92 83.6565 264.32C83.3205 264.72 83.1525 265.256 83.1525 265.928V266.072C83.1525 266.744 83.3205 267.28 83.6565 267.68C84.0005 268.08 84.4605 268.28 85.0365 268.28Z" fill="black"/>
<path d="M255.256 266.924H253.852V269H252.892V266.924H249.028V266.216L252.64 261.08H253.852V266.096H255.256V266.924ZM250.048 266.096H252.892V263.132L252.94 261.86H252.916C252.716 262.268 252.452 262.708 252.124 263.18L250.048 266.096ZM256.943 267.56C257.175 267.56 257.363 267.632 257.507 267.776C257.651 267.92 257.723 268.108 257.723 268.34C257.723 268.572 257.651 268.76 257.507 268.904C257.363 269.048 257.175 269.12 256.943 269.12C256.711 269.12 256.523 269.048 256.379 268.904C256.235 268.76 256.163 268.572 256.163 268.34C256.163 268.108 256.235 267.92 256.379 267.776C256.523 267.632 256.711 267.56 256.943 267.56ZM265.852 262.88C266.14 262.88 266.36 262.92 266.512 263L266.32 263.936C266.128 263.832 265.876 263.78 265.564 263.78C265.308 263.78 265.056 263.856 264.808 264.008C264.568 264.152 264.368 264.376 264.208 264.68C264.056 264.976 263.98 265.336 263.98 265.76V269H263.02V263H263.8L263.932 263.984C264.268 263.248 264.908 262.88 265.852 262.88ZM272.519 265.688C272.519 265.912 272.503 266.136 272.471 266.36H267.947C268.003 266.968 268.203 267.44 268.547 267.776C268.899 268.112 269.351 268.28 269.903 268.28C270.343 268.28 270.707 268.204 270.995 268.052C271.291 267.9 271.491 267.68 271.595 267.392L272.399 267.812C272.159 268.236 271.839 268.56 271.439 268.784C271.039 269.008 270.527 269.12 269.903 269.12C268.999 269.12 268.287 268.844 267.767 268.292C267.255 267.74 266.999 266.976 266.999 266C266.999 265.024 267.243 264.26 267.731 263.708C268.227 263.156 268.927 262.88 269.831 262.88C270.391 262.88 270.875 263.004 271.283 263.252C271.691 263.5 271.999 263.836 272.207 264.26C272.415 264.684 272.519 265.16 272.519 265.688ZM269.831 263.72C269.303 263.72 268.875 263.876 268.547 264.188C268.227 264.5 268.031 264.94 267.959 265.508H271.595C271.531 264.948 271.347 264.512 271.043 264.2C270.739 263.88 270.335 263.72 269.831 263.72ZM274.896 267.392C274.896 267.696 274.94 267.908 275.028 268.028C275.124 268.14 275.296 268.196 275.544 268.196C275.712 268.196 275.856 268.184 275.976 268.16C276.104 268.136 276.252 268.092 276.42 268.028L276.264 268.952C276 269.064 275.704 269.12 275.376 269.12C274.888 269.12 274.524 268.988 274.284 268.724C274.052 268.46 273.936 268.056 273.936 267.512V260.24H274.896V267.392ZM282.44 265.688C282.44 265.912 282.424 266.136 282.392 266.36H277.868C277.924 266.968 278.124 267.44 278.468 267.776C278.82 268.112 279.272 268.28 279.824 268.28C280.264 268.28 280.628 268.204 280.916 268.052C281.212 267.9 281.412 267.68 281.516 267.392L282.32 267.812C282.08 268.236 281.76 268.56 281.36 268.784C280.96 269.008 280.448 269.12 279.824 269.12C278.92 269.12 278.208 268.844 277.688 268.292C277.176 267.74 276.92 266.976 276.92 266C276.92 265.024 277.164 264.26 277.652 263.708C278.148 263.156 278.848 262.88 279.752 262.88C280.312 262.88 280.796 263.004 281.204 263.252C281.612 263.5 281.92 263.836 282.128 264.26C282.336 264.684 282.44 265.16 282.44 265.688ZM279.752 263.72C279.224 263.72 278.796 263.876 278.468 264.188C278.148 264.5 277.952 264.94 277.88 265.508H281.516C281.452 264.948 281.268 264.512 280.964 264.2C280.66 263.88 280.256 263.72 279.752 263.72ZM288.825 268.304C288.985 268.304 289.145 268.284 289.305 268.244L289.245 269C289.021 269.08 288.781 269.12 288.525 269.12C288.213 269.12 287.965 269.052 287.781 268.916C287.605 268.78 287.493 268.552 287.445 268.232C287.261 268.512 286.989 268.732 286.629 268.892C286.277 269.044 285.905 269.12 285.513 269.12C284.921 269.12 284.433 268.984 284.049 268.712C283.665 268.432 283.473 268.032 283.473 267.512C283.473 267.056 283.673 266.664 284.073 266.336C284.473 266 285.053 265.768 285.813 265.64L287.409 265.376V265.04C287.409 264.64 287.285 264.32 287.037 264.08C286.789 263.84 286.445 263.72 286.005 263.72C285.605 263.72 285.257 263.816 284.961 264.008C284.673 264.2 284.449 264.484 284.289 264.86L283.581 264.344C283.741 263.896 284.037 263.54 284.469 263.276C284.909 263.012 285.421 262.88 286.005 262.88C286.717 262.88 287.289 263.052 287.721 263.396C288.153 263.74 288.369 264.248 288.369 264.92V267.872C288.369 268.016 288.405 268.124 288.477 268.196C288.549 268.268 288.665 268.304 288.825 268.304ZM285.561 268.28C286.065 268.28 286.497 268.16 286.857 267.92C287.225 267.68 287.409 267.368 287.409 266.984V266.156L286.065 266.408C285.529 266.504 285.129 266.644 284.865 266.828C284.601 267.004 284.469 267.232 284.469 267.512C284.469 267.76 284.565 267.952 284.757 268.088C284.949 268.216 285.217 268.28 285.561 268.28ZM292.382 269.12C291.806 269.12 291.286 269.008 290.822 268.784C290.358 268.552 290.018 268.212 289.802 267.764L290.582 267.224C290.718 267.576 290.954 267.84 291.29 268.016C291.626 268.192 292.022 268.28 292.478 268.28C292.95 268.28 293.31 268.196 293.558 268.028C293.806 267.86 293.93 267.648 293.93 267.392C293.93 267.16 293.814 266.976 293.582 266.84C293.35 266.696 292.942 266.572 292.358 266.468C291.782 266.364 291.326 266.24 290.99 266.096C290.654 265.944 290.41 265.756 290.258 265.532C290.106 265.3 290.03 265.016 290.03 264.68C290.03 264.352 290.126 264.052 290.318 263.78C290.51 263.508 290.786 263.292 291.146 263.132C291.506 262.964 291.922 262.88 292.394 262.88C293.034 262.88 293.546 263 293.93 263.24C294.322 263.472 294.602 263.832 294.77 264.32L293.954 264.8C293.826 264.416 293.63 264.14 293.366 263.972C293.11 263.804 292.786 263.72 292.394 263.72C292.002 263.72 291.67 263.808 291.398 263.984C291.126 264.16 290.99 264.364 290.99 264.596C290.99 264.86 291.106 265.064 291.338 265.208C291.578 265.352 292.002 265.476 292.61 265.58C293.442 265.716 294.03 265.92 294.374 266.192C294.718 266.464 294.89 266.848 294.89 267.344C294.89 267.688 294.786 267.996 294.578 268.268C294.378 268.532 294.086 268.74 293.702 268.892C293.326 269.044 292.886 269.12 292.382 269.12ZM301.458 265.688C301.458 265.912 301.442 266.136 301.41 266.36H296.886C296.942 266.968 297.142 267.44 297.486 267.776C297.838 268.112 298.29 268.28 298.842 268.28C299.282 268.28 299.646 268.204 299.934 268.052C300.23 267.9 300.43 267.68 300.534 267.392L301.338 267.812C301.098 268.236 300.778 268.56 300.378 268.784C299.978 269.008 299.466 269.12 298.842 269.12C297.938 269.12 297.226 268.844 296.706 268.292C296.194 267.74 295.938 266.976 295.938 266C295.938 265.024 296.182 264.26 296.67 263.708C297.166 263.156 297.866 262.88 298.77 262.88C299.33 262.88 299.814 263.004 300.222 263.252C300.63 263.5 300.938 263.836 301.146 264.26C301.354 264.684 301.458 265.16 301.458 265.688ZM298.77 263.72C298.242 263.72 297.814 263.876 297.486 264.188C297.166 264.5 296.97 264.94 296.898 265.508H300.534C300.47 264.948 300.286 264.512 299.982 264.2C299.678 263.88 299.274 263.72 298.77 263.72Z" fill="black"/>
<circle cx="206.5" cy="147" r="106" transform="rotate(90 206.5 147)" stroke="black" stroke-linejoin="bevel" stroke-dasharray="5 1 2 1"/>
<circle cx="128.5" cy="148" r="106" transform="rotate(90 128.5 148)" stroke="black" stroke-linejoin="bevel" stroke-dasharray="5 1 2 1"/>
<circle cx="167.5" cy="148" r="106" transform="rotate(90 167.5 148)" stroke="black" stroke-linejoin="bevel" stroke-dasharray="5 1 2 1"/>
</svg>
