<svg width="214" height="291" viewBox="0 0 214 291" fill="none" xmlns="http://www.w3.org/2000/svg">
<path d="M86.684 17.08V25H85.724V19.192C85.724 19.024 85.732 18.716 85.748 18.268C85.476 18.532 85.16 18.764 84.8 18.964C84.44 19.156 84.072 19.296 83.696 19.384L83.444 18.508C83.636 18.484 83.896 18.396 84.224 18.244C84.552 18.084 84.868 17.9 85.172 17.692C85.476 17.476 85.7 17.272 85.844 17.08H86.684ZM89.1462 23.56C89.3782 23.56 89.5662 23.632 89.7102 23.776C89.8542 23.92 89.9262 24.108 89.9262 24.34C89.9262 24.572 89.8542 24.76 89.7102 24.904C89.5662 25.048 89.3782 25.12 89.1462 25.12C88.9142 25.12 88.7262 25.048 88.5822 24.904C88.4382 24.76 88.3662 24.572 88.3662 24.34C88.3662 24.108 88.4382 23.92 88.5822 23.776C88.7262 23.632 88.9142 23.56 89.1462 23.56ZM100.552 16.24V25H99.7115L99.6515 23.956C99.4755 24.308 99.2035 24.592 98.8355 24.808C98.4755 25.016 98.0635 25.12 97.5995 25.12C96.7595 25.12 96.0915 24.844 95.5955 24.292C95.1075 23.732 94.8635 22.968 94.8635 22C94.8635 21.032 95.1075 20.272 95.5955 19.72C96.0915 19.16 96.7595 18.88 97.5995 18.88C98.0395 18.88 98.4315 18.976 98.7755 19.168C99.1275 19.36 99.3995 19.616 99.5915 19.936V16.24H100.552ZM97.7075 24.28C98.2835 24.28 98.7395 24.08 99.0755 23.68C99.4195 23.28 99.5915 22.744 99.5915 22.072V21.928C99.5915 21.256 99.4195 20.72 99.0755 20.32C98.7395 19.92 98.2835 19.72 97.7075 19.72C97.1235 19.72 96.6635 19.928 96.3275 20.344C95.9915 20.752 95.8235 21.304 95.8235 22C95.8235 22.696 95.9915 23.252 96.3275 23.668C96.6635 24.076 97.1235 24.28 97.7075 24.28ZM107.57 21.688C107.57 21.912 107.554 22.136 107.522 22.36H102.998C103.054 22.968 103.254 23.44 103.598 23.776C103.95 24.112 104.402 24.28 104.954 24.28C105.394 24.28 105.758 24.204 106.046 24.052C106.342 23.9 106.542 23.68 106.646 23.392L107.45 23.812C107.21 24.236 106.89 24.56 106.49 24.784C106.09 25.008 105.578 25.12 104.954 25.12C104.05 25.12 103.338 24.844 102.818 24.292C102.306 23.74 102.05 22.976 102.05 22C102.05 21.024 102.294 20.26 102.782 19.708C103.278 19.156 103.978 18.88 104.882 18.88C105.442 18.88 105.926 19.004 106.334 19.252C106.742 19.5 107.05 19.836 107.258 20.26C107.466 20.684 107.57 21.16 107.57 21.688ZM104.882 19.72C104.354 19.72 103.926 19.876 103.598 20.188C103.278 20.5 103.082 20.94 103.01 21.508H106.646C106.582 20.948 106.398 20.512 106.094 20.2C105.79 19.88 105.386 19.72 104.882 19.72ZM110.404 19H112.408V19.828H110.404V25H109.444V19.828H108.244V19H109.444V17.992C109.444 17.44 109.612 17 109.948 16.672C110.284 16.344 110.772 16.18 111.412 16.18C111.628 16.18 111.824 16.204 112 16.252C112.184 16.3 112.328 16.368 112.432 16.456L112.18 17.236C111.988 17.116 111.76 17.056 111.496 17.056C110.768 17.056 110.404 17.4 110.404 18.088V19ZM114.172 17.848C113.956 17.848 113.78 17.784 113.644 17.656C113.516 17.52 113.452 17.344 113.452 17.128C113.452 16.912 113.516 16.74 113.644 16.612C113.78 16.476 113.956 16.408 114.172 16.408C114.388 16.408 114.56 16.476 114.688 16.612C114.824 16.74 114.892 16.912 114.892 17.128C114.892 17.344 114.824 17.52 114.688 17.656C114.56 17.784 114.388 17.848 114.172 17.848ZM114.652 25H113.692V19H114.652V25ZM119.442 18.88C120.122 18.88 120.682 19.076 121.122 19.468C121.562 19.86 121.782 20.424 121.782 21.16V25H120.822V21.496C120.822 20.872 120.686 20.42 120.414 20.14C120.15 19.86 119.794 19.72 119.346 19.72C119.026 19.72 118.726 19.792 118.446 19.936C118.166 20.072 117.934 20.3 117.75 20.62C117.574 20.932 117.486 21.328 117.486 21.808V25H116.526V19H117.366L117.426 19.936C117.626 19.576 117.902 19.312 118.254 19.144C118.606 18.968 119.002 18.88 119.442 18.88ZM128.744 21.688C128.744 21.912 128.728 22.136 128.696 22.36H124.172C124.228 22.968 124.428 23.44 124.772 23.776C125.124 24.112 125.576 24.28 126.128 24.28C126.568 24.28 126.932 24.204 127.22 24.052C127.516 23.9 127.716 23.68 127.82 23.392L128.624 23.812C128.384 24.236 128.064 24.56 127.664 24.784C127.264 25.008 126.752 25.12 126.128 25.12C125.224 25.12 124.512 24.844 123.992 24.292C123.48 23.74 123.224 22.976 123.224 22C123.224 21.024 123.468 20.26 123.956 19.708C124.452 19.156 125.152 18.88 126.056 18.88C126.616 18.88 127.1 19.004 127.508 19.252C127.916 19.5 128.224 19.836 128.432 20.26C128.64 20.684 128.744 21.16 128.744 21.688ZM126.056 19.72C125.528 19.72 125.1 19.876 124.772 20.188C124.452 20.5 124.256 20.94 124.184 21.508H127.82C127.756 20.948 127.572 20.512 127.268 20.2C126.964 19.88 126.56 19.72 126.056 19.72Z" fill="black"/>
<path d="M81.888 63.22C82.984 62.412 83.824 61.748 84.408 61.228C84.992 60.7 85.408 60.224 85.656 59.8C85.912 59.368 86.04 58.916 86.04 58.444C86.04 57.972 85.888 57.592 85.584 57.304C85.28 57.008 84.872 56.86 84.36 56.86C83.824 56.86 83.388 57.036 83.052 57.388C82.724 57.74 82.532 58.216 82.476 58.816L81.636 58.312C81.74 57.6 82.028 57.032 82.5 56.608C82.98 56.176 83.612 55.96 84.396 55.96C84.924 55.96 85.388 56.064 85.788 56.272C86.196 56.48 86.508 56.772 86.724 57.148C86.94 57.524 87.048 57.956 87.048 58.444C87.048 58.956 86.924 59.448 86.676 59.92C86.436 60.392 86.04 60.888 85.488 61.408C84.936 61.928 84.192 62.5 83.256 63.124V63.136C83.784 63.112 84.18 63.1 84.444 63.1H87.216V64H81.888V63.22ZM89.2321 62.56C89.4641 62.56 89.6521 62.632 89.7961 62.776C89.9401 62.92 90.0121 63.108 90.0121 63.34C90.0121 63.572 89.9401 63.76 89.7961 63.904C89.6521 64.048 89.4641 64.12 89.2321 64.12C89.0001 64.12 88.8121 64.048 88.6681 63.904C88.5241 63.76 88.4521 63.572 88.4521 63.34C88.4521 63.108 88.5241 62.92 88.6681 62.776C88.8121 62.632 89.0001 62.56 89.2321 62.56ZM100.637 55.24V64H99.7974L99.7374 62.956C99.5614 63.308 99.2894 63.592 98.9214 63.808C98.5614 64.016 98.1494 64.12 97.6854 64.12C96.8454 64.12 96.1774 63.844 95.6814 63.292C95.1934 62.732 94.9494 61.968 94.9494 61C94.9494 60.032 95.1934 59.272 95.6814 58.72C96.1774 58.16 96.8454 57.88 97.6854 57.88C98.1254 57.88 98.5174 57.976 98.8614 58.168C99.2134 58.36 99.4854 58.616 99.6774 58.936V55.24H100.637ZM97.7934 63.28C98.3694 63.28 98.8254 63.08 99.1614 62.68C99.5054 62.28 99.6774 61.744 99.6774 61.072V60.928C99.6774 60.256 99.5054 59.72 99.1614 59.32C98.8254 58.92 98.3694 58.72 97.7934 58.72C97.2094 58.72 96.7494 58.928 96.4134 59.344C96.0774 59.752 95.9094 60.304 95.9094 61C95.9094 61.696 96.0774 62.252 96.4134 62.668C96.7494 63.076 97.2094 63.28 97.7934 63.28ZM107.656 60.688C107.656 60.912 107.64 61.136 107.608 61.36H103.084C103.14 61.968 103.34 62.44 103.684 62.776C104.036 63.112 104.488 63.28 105.04 63.28C105.48 63.28 105.844 63.204 106.132 63.052C106.428 62.9 106.628 62.68 106.732 62.392L107.536 62.812C107.296 63.236 106.976 63.56 106.576 63.784C106.176 64.008 105.664 64.12 105.04 64.12C104.136 64.12 103.424 63.844 102.904 63.292C102.392 62.74 102.136 61.976 102.136 61C102.136 60.024 102.38 59.26 102.868 58.708C103.364 58.156 104.064 57.88 104.968 57.88C105.528 57.88 106.012 58.004 106.42 58.252C106.828 58.5 107.136 58.836 107.344 59.26C107.552 59.684 107.656 60.16 107.656 60.688ZM104.968 58.72C104.44 58.72 104.012 58.876 103.684 59.188C103.364 59.5 103.168 59.94 103.096 60.508H106.732C106.668 59.948 106.484 59.512 106.18 59.2C105.876 58.88 105.472 58.72 104.968 58.72ZM111.161 64.12C110.585 64.12 110.065 64.008 109.601 63.784C109.137 63.552 108.797 63.212 108.581 62.764L109.361 62.224C109.497 62.576 109.733 62.84 110.069 63.016C110.405 63.192 110.801 63.28 111.257 63.28C111.729 63.28 112.089 63.196 112.337 63.028C112.585 62.86 112.709 62.648 112.709 62.392C112.709 62.16 112.593 61.976 112.361 61.84C112.129 61.696 111.721 61.572 111.137 61.468C110.561 61.364 110.105 61.24 109.769 61.096C109.433 60.944 109.189 60.756 109.037 60.532C108.885 60.3 108.809 60.016 108.809 59.68C108.809 59.352 108.905 59.052 109.097 58.78C109.289 58.508 109.565 58.292 109.925 58.132C110.285 57.964 110.701 57.88 111.173 57.88C111.813 57.88 112.325 58 112.709 58.24C113.101 58.472 113.381 58.832 113.549 59.32L112.733 59.8C112.605 59.416 112.409 59.14 112.145 58.972C111.889 58.804 111.565 58.72 111.173 58.72C110.781 58.72 110.449 58.808 110.177 58.984C109.905 59.16 109.769 59.364 109.769 59.596C109.769 59.86 109.885 60.064 110.117 60.208C110.357 60.352 110.781 60.476 111.389 60.58C112.221 60.716 112.809 60.92 113.153 61.192C113.497 61.464 113.669 61.848 113.669 62.344C113.669 62.688 113.565 62.996 113.357 63.268C113.157 63.532 112.865 63.74 112.481 63.892C112.105 64.044 111.665 64.12 111.161 64.12ZM115.569 56.848C115.353 56.848 115.177 56.784 115.041 56.656C114.913 56.52 114.849 56.344 114.849 56.128C114.849 55.912 114.913 55.74 115.041 55.612C115.177 55.476 115.353 55.408 115.569 55.408C115.785 55.408 115.957 55.476 116.085 55.612C116.221 55.74 116.289 55.912 116.289 56.128C116.289 56.344 116.221 56.52 116.085 56.656C115.957 56.784 115.785 56.848 115.569 56.848ZM116.049 64H115.089V58H116.049V64ZM121.264 63.232C121.832 63.232 122.276 63.36 122.596 63.616C122.916 63.872 123.076 64.22 123.076 64.66C123.076 65.044 122.944 65.38 122.68 65.668C122.416 65.964 122.056 66.188 121.6 66.34C121.152 66.5 120.656 66.58 120.112 66.58C119.2 66.58 118.512 66.432 118.048 66.136C117.584 65.848 117.352 65.468 117.352 64.996C117.352 64.724 117.444 64.484 117.628 64.276C117.82 64.068 118.08 63.92 118.408 63.832C118.16 63.712 117.96 63.56 117.808 63.376C117.664 63.192 117.592 62.976 117.592 62.728C117.592 62.432 117.672 62.188 117.832 61.996C117.992 61.796 118.212 61.648 118.492 61.552C118.204 61.376 117.984 61.148 117.832 60.868C117.688 60.58 117.616 60.26 117.616 59.908C117.616 59.516 117.72 59.168 117.928 58.864C118.136 58.552 118.428 58.312 118.804 58.144C119.18 57.968 119.604 57.88 120.076 57.88C120.524 57.88 120.932 57.96 121.3 58.12C121.524 57.304 122.088 56.896 122.992 56.896L123.208 57.736C122.424 57.736 121.948 57.956 121.78 58.396C122.02 58.58 122.204 58.8 122.332 59.056C122.468 59.312 122.536 59.596 122.536 59.908C122.536 60.3 122.432 60.652 122.224 60.964C122.016 61.268 121.724 61.508 121.348 61.684C120.972 61.852 120.548 61.936 120.076 61.936C119.724 61.936 119.416 61.9 119.152 61.828C118.912 61.884 118.74 61.972 118.636 62.092C118.532 62.212 118.48 62.376 118.48 62.584C118.48 62.792 118.552 62.952 118.696 63.064C118.84 63.176 119.032 63.232 119.272 63.232H121.264ZM120.076 58.66C119.66 58.66 119.312 58.776 119.032 59.008C118.752 59.24 118.612 59.54 118.612 59.908C118.612 60.276 118.752 60.576 119.032 60.808C119.312 61.04 119.66 61.156 120.076 61.156C120.492 61.156 120.84 61.04 121.12 60.808C121.4 60.576 121.54 60.276 121.54 59.908C121.54 59.54 121.4 59.24 121.12 59.008C120.84 58.776 120.492 58.66 120.076 58.66ZM120.22 65.776C120.828 65.776 121.308 65.676 121.66 65.476C122.012 65.284 122.188 65.048 122.188 64.768C122.188 64.536 122.096 64.36 121.912 64.24C121.736 64.12 121.432 64.06 121 64.06H119.392C119.024 64.06 118.74 64.124 118.54 64.252C118.34 64.388 118.24 64.572 118.24 64.804C118.24 65.108 118.408 65.344 118.744 65.512C119.08 65.688 119.572 65.776 120.22 65.776ZM127.058 57.88C127.738 57.88 128.298 58.076 128.738 58.468C129.178 58.86 129.398 59.424 129.398 60.16V64H128.438V60.496C128.438 59.872 128.302 59.42 128.03 59.14C127.766 58.86 127.41 58.72 126.962 58.72C126.642 58.72 126.342 58.792 126.062 58.936C125.782 59.072 125.55 59.3 125.366 59.62C125.19 59.932 125.102 60.328 125.102 60.808V64H124.142V58H124.982L125.042 58.936C125.242 58.576 125.518 58.312 125.87 58.144C126.222 57.968 126.618 57.88 127.058 57.88Z" fill="black"/>
<path d="M81.492 136.96C82.012 136.96 82.456 137.056 82.824 137.248C83.2 137.432 83.484 137.68 83.676 137.992C83.868 138.304 83.964 138.648 83.964 139.024C83.964 139.392 83.896 139.724 83.76 140.02C83.624 140.316 83.44 140.552 83.208 140.728C82.984 140.896 82.74 140.98 82.476 140.98V141.004C82.98 141.004 83.384 141.188 83.688 141.556C83.992 141.916 84.144 142.356 84.144 142.876C84.144 143.3 84.028 143.684 83.796 144.028C83.572 144.372 83.248 144.64 82.824 144.832C82.4 145.024 81.912 145.12 81.36 145.12C80.04 145.12 79.128 144.488 78.624 143.224L79.512 142.756C79.672 143.244 79.892 143.612 80.172 143.86C80.46 144.1 80.88 144.22 81.432 144.22C81.968 144.22 82.388 144.088 82.692 143.824C82.996 143.552 83.148 143.204 83.148 142.78C83.148 142.292 83 141.952 82.704 141.76C82.416 141.56 81.956 141.46 81.324 141.46H81.012V140.56H81.324C82.42 140.56 82.968 140.112 82.968 139.216C82.968 138.768 82.84 138.432 82.584 138.208C82.336 137.976 81.976 137.86 81.504 137.86C81.04 137.86 80.668 137.968 80.388 138.184C80.116 138.392 79.928 138.688 79.824 139.072L78.924 138.652C79.116 138.132 79.44 137.72 79.896 137.416C80.36 137.112 80.892 136.96 81.492 136.96ZM86.2321 143.56C86.4641 143.56 86.6521 143.632 86.7961 143.776C86.9401 143.92 87.0121 144.108 87.0121 144.34C87.0121 144.572 86.9401 144.76 86.7961 144.904C86.6521 145.048 86.4641 145.12 86.2321 145.12C86.0001 145.12 85.8121 145.048 85.6681 144.904C85.5241 144.76 85.4521 144.572 85.4521 144.34C85.4521 144.108 85.5241 143.92 85.6681 143.776C85.8121 143.632 86.0001 143.56 86.2321 143.56ZM97.6374 136.24V145H96.7974L96.7374 143.956C96.5614 144.308 96.2894 144.592 95.9214 144.808C95.5614 145.016 95.1494 145.12 94.6854 145.12C93.8454 145.12 93.1774 144.844 92.6814 144.292C92.1934 143.732 91.9494 142.968 91.9494 142C91.9494 141.032 92.1934 140.272 92.6814 139.72C93.1774 139.16 93.8454 138.88 94.6854 138.88C95.1254 138.88 95.5174 138.976 95.8614 139.168C96.2134 139.36 96.4854 139.616 96.6774 139.936V136.24H97.6374ZM94.7934 144.28C95.3694 144.28 95.8254 144.08 96.1614 143.68C96.5054 143.28 96.6774 142.744 96.6774 142.072V141.928C96.6774 141.256 96.5054 140.72 96.1614 140.32C95.8254 139.92 95.3694 139.72 94.7934 139.72C94.2094 139.72 93.7494 139.928 93.4134 140.344C93.0774 140.752 92.9094 141.304 92.9094 142C92.9094 142.696 93.0774 143.252 93.4134 143.668C93.7494 144.076 94.2094 144.28 94.7934 144.28ZM104.656 141.688C104.656 141.912 104.64 142.136 104.608 142.36H100.084C100.14 142.968 100.34 143.44 100.684 143.776C101.036 144.112 101.488 144.28 102.04 144.28C102.48 144.28 102.844 144.204 103.132 144.052C103.428 143.9 103.628 143.68 103.732 143.392L104.536 143.812C104.296 144.236 103.976 144.56 103.576 144.784C103.176 145.008 102.664 145.12 102.04 145.12C101.136 145.12 100.424 144.844 99.904 144.292C99.392 143.74 99.136 142.976 99.136 142C99.136 141.024 99.38 140.26 99.868 139.708C100.364 139.156 101.064 138.88 101.968 138.88C102.528 138.88 103.012 139.004 103.42 139.252C103.828 139.5 104.136 139.836 104.344 140.26C104.552 140.684 104.656 141.16 104.656 141.688ZM101.968 139.72C101.44 139.72 101.012 139.876 100.684 140.188C100.364 140.5 100.168 140.94 100.096 141.508H103.732C103.668 140.948 103.484 140.512 103.18 140.2C102.876 139.88 102.472 139.72 101.968 139.72ZM110.937 139L108.441 145H107.481L104.985 139H106.077L107.973 144.028L109.929 139H110.937ZM116.979 141.688C116.979 141.912 116.963 142.136 116.931 142.36H112.407C112.463 142.968 112.663 143.44 113.007 143.776C113.359 144.112 113.811 144.28 114.363 144.28C114.803 144.28 115.167 144.204 115.455 144.052C115.751 143.9 115.951 143.68 116.055 143.392L116.859 143.812C116.619 144.236 116.299 144.56 115.899 144.784C115.499 145.008 114.987 145.12 114.363 145.12C113.459 145.12 112.747 144.844 112.227 144.292C111.715 143.74 111.459 142.976 111.459 142C111.459 141.024 111.703 140.26 112.191 139.708C112.687 139.156 113.387 138.88 114.291 138.88C114.851 138.88 115.335 139.004 115.743 139.252C116.151 139.5 116.459 139.836 116.667 140.26C116.875 140.684 116.979 141.16 116.979 141.688ZM114.291 139.72C113.763 139.72 113.335 139.876 113.007 140.188C112.687 140.5 112.491 140.94 112.419 141.508H116.055C115.991 140.948 115.807 140.512 115.503 140.2C115.199 139.88 114.795 139.72 114.291 139.72ZM119.356 143.392C119.356 143.696 119.4 143.908 119.488 144.028C119.584 144.14 119.756 144.196 120.004 144.196C120.172 144.196 120.316 144.184 120.436 144.16C120.564 144.136 120.712 144.092 120.88 144.028L120.724 144.952C120.46 145.064 120.164 145.12 119.836 145.12C119.348 145.12 118.984 144.988 118.744 144.724C118.512 144.46 118.396 144.056 118.396 143.512V136.24H119.356V143.392ZM124.284 138.88C125.188 138.88 125.896 139.156 126.408 139.708C126.928 140.26 127.188 141.024 127.188 142C127.188 142.976 126.928 143.74 126.408 144.292C125.896 144.844 125.188 145.12 124.284 145.12C123.38 145.12 122.668 144.844 122.148 144.292C121.636 143.74 121.38 142.976 121.38 142C121.38 141.024 121.636 140.26 122.148 139.708C122.668 139.156 123.38 138.88 124.284 138.88ZM124.284 139.708C123.676 139.708 123.2 139.912 122.856 140.32C122.512 140.728 122.34 141.288 122.34 142C122.34 142.712 122.512 143.272 122.856 143.68C123.2 144.088 123.676 144.292 124.284 144.292C124.892 144.292 125.368 144.088 125.712 143.68C126.056 143.272 126.228 142.712 126.228 142C126.228 141.288 126.056 140.728 125.712 140.32C125.368 139.912 124.892 139.708 124.284 139.708ZM131.644 138.88C132.484 138.88 133.148 139.16 133.636 139.72C134.132 140.272 134.38 141.032 134.38 142C134.38 142.968 134.132 143.732 133.636 144.292C133.148 144.844 132.484 145.12 131.644 145.12C131.204 145.12 130.808 145.024 130.456 144.832C130.112 144.64 129.844 144.384 129.652 144.064V147.52H128.692V139H129.532L129.592 140.044C129.768 139.692 130.036 139.412 130.396 139.204C130.764 138.988 131.18 138.88 131.644 138.88ZM131.536 144.28C132.12 144.28 132.58 144.076 132.916 143.668C133.252 143.252 133.42 142.696 133.42 142C133.42 141.304 133.252 140.752 132.916 140.344C132.58 139.928 132.12 139.72 131.536 139.72C130.96 139.72 130.5 139.92 130.156 140.32C129.82 140.72 129.652 141.256 129.652 141.928V142.072C129.652 142.744 129.82 143.28 130.156 143.68C130.5 144.08 130.96 144.28 131.536 144.28Z" fill="black"/>
<path d="M87.756 272.924H86.352V275H85.392V272.924H81.528V272.216L85.14 267.08H86.352V272.096H87.756V272.924ZM82.548 272.096H85.392V269.132L85.44 267.86H85.416C85.216 268.268 84.952 268.708 84.624 269.18L82.548 272.096ZM89.443 273.56C89.675 273.56 89.863 273.632 90.007 273.776C90.151 273.92 90.223 274.108 90.223 274.34C90.223 274.572 90.151 274.76 90.007 274.904C89.863 275.048 89.675 275.12 89.443 275.12C89.211 275.12 89.023 275.048 88.879 274.904C88.735 274.76 88.663 274.572 88.663 274.34C88.663 274.108 88.735 273.92 88.879 273.776C89.023 273.632 89.211 273.56 89.443 273.56ZM98.3524 268.88C98.6404 268.88 98.8604 268.92 99.0124 269L98.8204 269.936C98.6284 269.832 98.3764 269.78 98.0644 269.78C97.8084 269.78 97.5564 269.856 97.3084 270.008C97.0684 270.152 96.8684 270.376 96.7084 270.68C96.5564 270.976 96.4804 271.336 96.4804 271.76V275H95.5204V269H96.3004L96.4324 269.984C96.7684 269.248 97.4084 268.88 98.3524 268.88ZM105.019 271.688C105.019 271.912 105.003 272.136 104.971 272.36H100.447C100.503 272.968 100.703 273.44 101.047 273.776C101.399 274.112 101.851 274.28 102.403 274.28C102.843 274.28 103.207 274.204 103.495 274.052C103.791 273.9 103.991 273.68 104.095 273.392L104.899 273.812C104.659 274.236 104.339 274.56 103.939 274.784C103.539 275.008 103.027 275.12 102.403 275.12C101.499 275.12 100.787 274.844 100.267 274.292C99.7553 273.74 99.4993 272.976 99.4993 272C99.4993 271.024 99.7433 270.26 100.231 269.708C100.727 269.156 101.427 268.88 102.331 268.88C102.891 268.88 103.375 269.004 103.783 269.252C104.191 269.5 104.499 269.836 104.707 270.26C104.915 270.684 105.019 271.16 105.019 271.688ZM102.331 269.72C101.803 269.72 101.375 269.876 101.047 270.188C100.727 270.5 100.531 270.94 100.459 271.508H104.095C104.031 270.948 103.847 270.512 103.543 270.2C103.239 269.88 102.835 269.72 102.331 269.72ZM107.396 273.392C107.396 273.696 107.44 273.908 107.528 274.028C107.624 274.14 107.796 274.196 108.044 274.196C108.212 274.196 108.356 274.184 108.476 274.16C108.604 274.136 108.752 274.092 108.92 274.028L108.764 274.952C108.5 275.064 108.204 275.12 107.876 275.12C107.388 275.12 107.024 274.988 106.784 274.724C106.552 274.46 106.436 274.056 106.436 273.512V266.24H107.396V273.392ZM114.94 271.688C114.94 271.912 114.924 272.136 114.892 272.36H110.368C110.424 272.968 110.624 273.44 110.968 273.776C111.32 274.112 111.772 274.28 112.324 274.28C112.764 274.28 113.128 274.204 113.416 274.052C113.712 273.9 113.912 273.68 114.016 273.392L114.82 273.812C114.58 274.236 114.26 274.56 113.86 274.784C113.46 275.008 112.948 275.12 112.324 275.12C111.42 275.12 110.708 274.844 110.188 274.292C109.676 273.74 109.42 272.976 109.42 272C109.42 271.024 109.664 270.26 110.152 269.708C110.648 269.156 111.348 268.88 112.252 268.88C112.812 268.88 113.296 269.004 113.704 269.252C114.112 269.5 114.42 269.836 114.628 270.26C114.836 270.684 114.94 271.16 114.94 271.688ZM112.252 269.72C111.724 269.72 111.296 269.876 110.968 270.188C110.648 270.5 110.452 270.94 110.38 271.508H114.016C113.952 270.948 113.768 270.512 113.464 270.2C113.16 269.88 112.756 269.72 112.252 269.72ZM121.325 274.304C121.485 274.304 121.645 274.284 121.805 274.244L121.745 275C121.521 275.08 121.281 275.12 121.025 275.12C120.713 275.12 120.465 275.052 120.281 274.916C120.105 274.78 119.993 274.552 119.945 274.232C119.761 274.512 119.489 274.732 119.129 274.892C118.777 275.044 118.405 275.12 118.013 275.12C117.421 275.12 116.933 274.984 116.549 274.712C116.165 274.432 115.973 274.032 115.973 273.512C115.973 273.056 116.173 272.664 116.573 272.336C116.973 272 117.553 271.768 118.313 271.64L119.909 271.376V271.04C119.909 270.64 119.785 270.32 119.537 270.08C119.289 269.84 118.945 269.72 118.505 269.72C118.105 269.72 117.757 269.816 117.461 270.008C117.173 270.2 116.949 270.484 116.789 270.86L116.081 270.344C116.241 269.896 116.537 269.54 116.969 269.276C117.409 269.012 117.921 268.88 118.505 268.88C119.217 268.88 119.789 269.052 120.221 269.396C120.653 269.74 120.869 270.248 120.869 270.92V273.872C120.869 274.016 120.905 274.124 120.977 274.196C121.049 274.268 121.165 274.304 121.325 274.304ZM118.061 274.28C118.565 274.28 118.997 274.16 119.357 273.92C119.725 273.68 119.909 273.368 119.909 272.984V272.156L118.565 272.408C118.029 272.504 117.629 272.644 117.365 272.828C117.101 273.004 116.969 273.232 116.969 273.512C116.969 273.76 117.065 273.952 117.257 274.088C117.449 274.216 117.717 274.28 118.061 274.28ZM124.881 275.12C124.305 275.12 123.785 275.008 123.321 274.784C122.857 274.552 122.517 274.212 122.301 273.764L123.081 273.224C123.217 273.576 123.453 273.84 123.789 274.016C124.125 274.192 124.521 274.28 124.977 274.28C125.449 274.28 125.809 274.196 126.057 274.028C126.305 273.86 126.429 273.648 126.429 273.392C126.429 273.16 126.313 272.976 126.081 272.84C125.849 272.696 125.441 272.572 124.857 272.468C124.281 272.364 123.825 272.24 123.489 272.096C123.153 271.944 122.909 271.756 122.757 271.532C122.605 271.3 122.529 271.016 122.529 270.68C122.529 270.352 122.625 270.052 122.817 269.78C123.009 269.508 123.285 269.292 123.645 269.132C124.005 268.964 124.421 268.88 124.893 268.88C125.533 268.88 126.045 269 126.429 269.24C126.821 269.472 127.101 269.832 127.269 270.32L126.453 270.8C126.325 270.416 126.129 270.14 125.865 269.972C125.609 269.804 125.285 269.72 124.893 269.72C124.501 269.72 124.169 269.808 123.897 269.984C123.625 270.16 123.489 270.364 123.489 270.596C123.489 270.86 123.605 271.064 123.837 271.208C124.077 271.352 124.501 271.476 125.109 271.58C125.941 271.716 126.529 271.92 126.873 272.192C127.217 272.464 127.389 272.848 127.389 273.344C127.389 273.688 127.285 273.996 127.077 274.268C126.877 274.532 126.585 274.74 126.201 274.892C125.825 275.044 125.385 275.12 124.881 275.12ZM133.958 271.688C133.958 271.912 133.942 272.136 133.91 272.36H129.386C129.442 272.968 129.642 273.44 129.986 273.776C130.338 274.112 130.79 274.28 131.342 274.28C131.782 274.28 132.146 274.204 132.434 274.052C132.73 273.9 132.93 273.68 133.034 273.392L133.838 273.812C133.598 274.236 133.278 274.56 132.878 274.784C132.478 275.008 131.966 275.12 131.342 275.12C130.438 275.12 129.726 274.844 129.206 274.292C128.694 273.74 128.438 272.976 128.438 272C128.438 271.024 128.682 270.26 129.17 269.708C129.666 269.156 130.366 268.88 131.27 268.88C131.83 268.88 132.314 269.004 132.722 269.252C133.13 269.5 133.438 269.836 133.646 270.26C133.854 270.684 133.958 271.16 133.958 271.688ZM131.27 269.72C130.742 269.72 130.314 269.876 129.986 270.188C129.666 270.5 129.47 270.94 129.398 271.508H133.034C132.97 270.948 132.786 270.512 132.482 270.2C132.178 269.88 131.774 269.72 131.27 269.72Z" fill="black"/>
<circle cx="106.5" cy="106.5" r="106" stroke="black" stroke-linejoin="bevel" stroke-dasharray="5 1 2 1"/>
<circle cx="107.5" cy="184.5" r="106" stroke="black" stroke-linejoin="bevel" stroke-dasharray="5 1 2 1"/>
<circle cx="107.5" cy="145.5" r="106" stroke="black" stroke-linejoin="bevel" stroke-dasharray="5 1 2 1"/>
</svg>
