<svg width="181" height="434" viewBox="0 0 181 434" fill="none" xmlns="http://www.w3.org/2000/svg">
<path d="M67.8918 270.331L64.8804 274.713L64.1063 274.511L63.7987 270.318L61.4549 273.82L60.6808 273.618L60.3247 268.358L61.1859 268.583L61.3245 272.825L63.7212 269.244L64.4953 269.446L64.7306 273.713L67.0305 270.107L67.8918 270.331ZM69.5057 269.76C69.3315 269.714 69.2037 269.626 69.1224 269.495C69.0493 269.358 69.0366 269.204 69.0844 269.03C69.1322 268.857 69.2219 268.732 69.3534 268.656C69.4932 268.575 69.6501 268.558 69.8243 268.603C69.9985 268.648 70.1221 268.739 70.1953 268.875C70.2766 269.007 70.2934 269.159 70.2456 269.333C70.1978 269.506 70.104 269.633 69.9643 269.714C69.8327 269.79 69.6799 269.805 69.5057 269.76ZM68.3103 275.607L67.5361 275.405L68.8637 270.585L69.6379 270.786L68.3103 275.607ZM73.454 271.678C73.6862 271.738 73.8548 271.817 73.9597 271.913L73.5977 272.625C73.4659 272.501 73.2742 272.406 73.0226 272.34C72.8162 272.287 72.5962 272.295 72.3625 272.365C72.1372 272.43 71.9263 272.568 71.73 272.778C71.542 272.984 71.401 273.258 71.3072 273.598L70.5903 276.201L69.8162 275.999L71.1438 271.179L71.7727 271.343L71.6615 272.161C72.0953 271.641 72.6928 271.479 73.454 271.678ZM78.2088 275.335C78.1592 275.515 78.0967 275.692 78.0214 275.865L74.3733 274.914C74.2839 275.414 74.3408 275.836 74.5438 276.178C74.7533 276.522 75.0806 276.752 75.5258 276.868C75.8806 276.96 76.1909 276.976 76.4568 276.914C76.7291 276.854 76.9391 276.72 77.0866 276.51L77.642 277.017C77.3547 277.307 77.025 277.5 76.6529 277.596C76.2807 277.692 75.8431 277.674 75.3399 277.543C74.6109 277.353 74.0979 276.981 73.8007 276.429C73.51 275.877 73.4726 275.21 73.6885 274.426C73.9045 273.642 74.2703 273.079 74.7859 272.738C75.308 272.399 75.9336 272.324 76.6625 272.514C77.1141 272.632 77.477 272.833 77.7511 273.118C78.0252 273.403 78.1992 273.738 78.2732 274.123C78.3471 274.507 78.3256 274.911 78.2088 275.335ZM76.4767 273.189C76.0509 273.078 75.6713 273.114 75.3377 273.295C75.0107 273.479 74.7552 273.791 74.5715 274.232L77.5035 274.997C77.5758 274.533 77.5239 274.144 77.3478 273.83C77.1735 273.509 76.8831 273.295 76.4767 273.189ZM81.0889 273.772L82.7049 274.193L82.5217 274.858L80.9057 274.437L79.7613 278.592L78.9872 278.39L80.1315 274.235L79.1639 273.983L79.3471 273.318L80.3147 273.57L80.5378 272.76C80.6599 272.316 80.8927 271.998 81.2363 271.805C81.5798 271.612 82.0096 271.583 82.5257 271.718C82.6998 271.763 82.8526 271.824 82.9839 271.899C83.1216 271.977 83.2227 272.061 83.2871 272.154L82.9113 272.728C82.783 272.591 82.6125 272.495 82.3996 272.439C81.8125 272.286 81.4429 272.486 81.2907 273.039L81.0889 273.772ZM85.7561 274.885C85.9883 274.946 86.1569 275.024 86.2618 275.12L85.8998 275.832C85.768 275.708 85.5763 275.613 85.3247 275.548C85.1183 275.494 84.8983 275.502 84.6647 275.572C84.4393 275.637 84.2284 275.775 84.0321 275.986C83.8441 276.191 83.7031 276.465 83.6093 276.805L82.8924 279.408L82.1183 279.207L83.4459 274.386L84.0749 274.55L83.9636 275.368C84.3974 274.848 84.9949 274.687 85.7561 274.885ZM89.7671 280.601C89.8961 280.635 90.0296 280.652 90.1674 280.654L89.9518 281.249C89.7535 281.266 89.5511 281.248 89.3446 281.194C89.093 281.128 88.9081 281.021 88.7898 280.874C88.678 280.727 88.6381 280.521 88.6702 280.253C88.4599 280.44 88.1919 280.559 87.8662 280.612C87.5487 280.66 87.2319 280.643 86.9158 280.561C86.4384 280.436 86.075 280.224 85.8255 279.925C85.5779 279.619 85.5115 279.258 85.6266 278.84C85.7275 278.474 85.9755 278.201 86.3706 278.021C86.7675 277.835 87.2866 277.771 87.9277 277.828L89.2731 277.951L89.3475 277.681C89.436 277.36 89.4068 277.077 89.2599 276.832C89.113 276.587 88.8622 276.418 88.5074 276.326C88.1848 276.241 87.883 276.245 87.6018 276.337C87.3271 276.431 87.0836 276.612 86.8714 276.881L86.4146 276.317C86.6428 275.991 86.9603 275.767 87.367 275.646C87.7802 275.526 88.2223 275.528 88.6932 275.651C89.2674 275.8 89.6906 276.059 89.9628 276.426C90.2351 276.793 90.2968 277.247 90.1482 277.787L89.495 280.158C89.4631 280.274 89.4682 280.368 89.5104 280.441C89.5525 280.514 89.6381 280.568 89.7671 280.601ZM87.1404 279.896C87.5468 280.002 87.9217 279.996 88.2651 279.879C88.615 279.764 88.8324 279.552 88.9173 279.243L89.1005 278.578L87.961 278.498C87.5075 278.462 87.154 278.491 86.9004 278.583C86.6486 278.669 86.4917 278.824 86.4297 279.049C86.3749 279.249 86.4098 279.423 86.5345 279.573C86.661 279.716 86.863 279.824 87.1404 279.896ZM97.8125 278.028C98.1351 278.112 98.4165 278.258 98.6567 278.465C98.9051 278.668 99.0784 278.93 99.1764 279.252C99.2745 279.573 99.2678 279.937 99.1563 280.342L98.3066 283.427L97.5325 283.225L98.3609 280.217C98.4759 279.799 98.4545 279.463 98.2965 279.208C98.1467 278.949 97.9008 278.774 97.5589 278.685C97.3009 278.618 97.0445 278.62 96.7897 278.691C96.5432 278.758 96.3186 278.896 96.1159 279.105C95.9213 279.309 95.7781 279.578 95.686 279.912L94.9585 282.554L94.1844 282.352L95.0128 279.344C95.1279 278.926 95.1064 278.59 94.9484 278.335C94.7986 278.076 94.5527 277.902 94.2108 277.812C93.9786 277.752 93.736 277.754 93.483 277.819C93.2318 277.878 93.0007 278.014 92.7898 278.227C92.5788 278.441 92.422 278.734 92.3193 279.107L91.6104 281.681L90.8363 281.479L92.1639 276.659L92.8412 276.835L92.6825 277.6C92.9281 277.361 93.2059 277.206 93.5158 277.135C93.8321 277.066 94.1483 277.073 94.4644 277.155C94.8192 277.248 95.1229 277.413 95.3754 277.651C95.6343 277.891 95.7987 278.185 95.8686 278.534C96.0955 278.262 96.3923 278.088 96.7591 278.012C97.1259 277.935 97.4771 277.941 97.8125 278.028ZM101.739 278.163C101.564 278.118 101.437 278.029 101.355 277.898C101.282 277.761 101.269 277.607 101.317 277.433C101.365 277.26 101.455 277.135 101.586 277.059C101.726 276.978 101.883 276.961 102.057 277.006C102.231 277.051 102.355 277.142 102.428 277.278C102.509 277.41 102.526 277.562 102.478 277.736C102.431 277.909 102.337 278.036 102.197 278.117C102.066 278.193 101.913 278.208 101.739 278.163ZM100.543 284.01L99.769 283.808L101.097 278.988L101.871 279.189L100.543 284.01ZM105.755 280.099C106.303 280.242 106.711 280.517 106.979 280.924C107.247 281.332 107.3 281.831 107.137 282.422L106.287 285.507L105.513 285.306L106.289 282.49C106.427 281.989 106.417 281.597 106.26 281.315C106.109 281.035 105.853 280.847 105.491 280.753C105.233 280.686 104.975 280.681 104.718 280.738C104.462 280.788 104.224 280.922 104.005 281.141C103.794 281.354 103.636 281.654 103.529 282.04L102.823 284.604L102.049 284.402L103.377 279.582L104.054 279.759L103.895 280.523C104.136 280.276 104.417 280.122 104.738 280.061C105.061 279.994 105.4 280.006 105.755 280.099ZM110.62 285.975C111.078 286.095 111.407 286.291 111.609 286.564C111.81 286.837 111.862 287.15 111.765 287.504C111.68 287.812 111.499 288.054 111.222 288.23C110.944 288.413 110.604 288.517 110.203 288.543C109.806 288.578 109.389 288.538 108.95 288.423C108.214 288.231 107.692 287.968 107.384 287.633C107.073 287.304 106.97 286.95 107.075 286.57C107.135 286.352 107.262 286.178 107.457 286.05C107.657 285.923 107.9 285.859 108.184 285.857C108.01 285.709 107.883 285.544 107.801 285.365C107.725 285.187 107.715 284.998 107.77 284.799C107.836 284.561 107.954 284.382 108.126 284.261C108.299 284.134 108.509 284.061 108.756 284.043C108.563 283.841 108.436 283.612 108.375 283.355C108.323 283.093 108.335 282.821 108.413 282.538C108.5 282.223 108.661 281.965 108.896 281.765C109.133 281.558 109.421 281.426 109.762 281.371C110.104 281.308 110.465 281.327 110.846 281.426C111.207 281.52 111.518 281.67 111.78 281.876C112.141 281.267 112.686 281.058 113.415 281.248L113.403 281.969C112.771 281.804 112.339 281.88 112.106 282.199C112.259 282.397 112.358 282.612 112.405 282.845C112.458 283.079 112.45 283.322 112.381 283.572C112.294 283.887 112.132 284.148 111.896 284.355C111.661 284.556 111.372 284.687 111.03 284.749C110.689 284.805 110.329 284.784 109.948 284.685C109.665 284.611 109.424 284.517 109.227 284.403C109.021 284.398 108.863 284.433 108.753 284.507C108.642 284.582 108.564 284.702 108.518 284.87C108.472 285.037 108.495 285.18 108.586 285.301C108.677 285.421 108.82 285.506 109.013 285.557L110.62 285.975ZM110.673 282.052C110.338 281.965 110.031 281.985 109.754 282.113C109.477 282.24 109.298 282.452 109.217 282.747C109.135 283.043 109.182 283.314 109.356 283.559C109.531 283.804 109.785 283.97 110.121 284.058C110.456 284.145 110.763 284.125 111.04 283.998C111.317 283.87 111.496 283.659 111.578 283.363C111.659 283.067 111.613 282.797 111.438 282.552C111.264 282.306 111.009 282.14 110.673 282.052ZM109.215 287.8C109.705 287.928 110.114 287.948 110.442 287.862C110.769 287.781 110.963 287.629 111.025 287.404C111.076 287.217 111.041 287.057 110.919 286.922C110.804 286.788 110.572 286.676 110.223 286.585L108.927 286.247C108.63 286.17 108.387 286.162 108.197 286.222C108.006 286.29 107.885 286.416 107.833 286.603C107.766 286.847 107.849 287.072 108.083 287.278C108.315 287.49 108.692 287.664 109.215 287.8Z" fill="black"/>
<path d="M69.7014 328.501C70.024 328.585 70.3054 328.731 70.5456 328.938C70.794 329.14 70.9673 329.403 71.0653 329.724C71.1634 330.046 71.1567 330.41 71.0452 330.814L70.1955 333.9L69.4214 333.698L70.2498 330.69C70.3648 330.272 70.3434 329.936 70.1854 329.681C70.0356 329.422 69.7897 329.247 69.4478 329.158C69.1898 329.091 68.9334 329.093 68.6786 329.164C68.4321 329.231 68.2075 329.369 68.0048 329.578C67.8102 329.782 67.667 330.051 67.5749 330.385L66.8474 333.027L66.0733 332.825L66.9017 329.817C67.0167 329.399 66.9953 329.063 66.8373 328.808C66.6875 328.549 66.4416 328.374 66.0997 328.285C65.8675 328.225 65.6249 328.227 65.3719 328.292C65.1207 328.35 64.8896 328.486 64.6787 328.7C64.4677 328.914 64.3109 329.207 64.2082 329.58L63.4993 332.154L62.7252 331.952L64.0528 327.132L64.7301 327.308L64.5714 328.073C64.817 327.834 65.0948 327.679 65.4047 327.608C65.721 327.539 66.0372 327.546 66.3533 327.628C66.7081 327.72 67.0118 327.886 67.2643 328.124C67.5232 328.364 67.6876 328.658 67.7575 329.007C67.9844 328.735 68.2812 328.561 68.648 328.485C69.0148 328.408 69.366 328.413 69.7014 328.501ZM75.0538 329.896C75.7827 330.086 76.2926 330.457 76.5833 331.008C76.8805 331.561 76.9211 332.229 76.7052 333.013C76.4892 333.797 76.1105 334.357 75.569 334.691C75.034 335.027 74.402 335.1 73.6731 334.91C72.9441 334.719 72.431 334.348 72.1339 333.795C71.8431 333.244 71.8057 332.577 72.0217 331.792C72.2376 331.008 72.6131 330.448 73.1481 330.112C73.6896 329.778 74.3248 329.706 75.0538 329.896ZM74.8706 330.561C74.3803 330.434 73.9513 330.497 73.5836 330.753C73.216 331.008 72.9534 331.422 72.7958 331.994C72.6383 332.566 72.6531 333.052 72.8402 333.452C73.0273 333.853 73.366 334.116 73.8563 334.244C74.3466 334.372 74.7755 334.308 75.1432 334.053C75.5109 333.797 75.7735 333.384 75.931 332.812C76.0886 332.239 76.0738 331.753 75.8867 331.353C75.6995 330.953 75.3608 330.689 74.8706 330.561ZM80.6507 331.355C81.3797 331.545 81.8895 331.916 82.1802 332.467C82.4774 333.02 82.518 333.688 82.3021 334.472C82.0861 335.257 81.7074 335.816 81.166 336.15C80.631 336.486 79.999 336.559 79.27 336.369C78.541 336.179 78.028 335.807 77.7308 335.254C77.44 334.703 77.4027 334.036 77.6186 333.251C77.8346 332.467 78.21 331.907 78.745 331.571C79.2865 331.237 79.9217 331.165 80.6507 331.355ZM80.4675 332.021C79.9772 331.893 79.5482 331.957 79.1806 332.212C78.8129 332.468 78.5503 332.881 78.3927 333.453C78.2352 334.025 78.25 334.511 78.4371 334.912C78.6242 335.312 78.9629 335.576 79.4532 335.703C79.9435 335.831 80.3725 335.767 80.7401 335.512C81.1078 335.256 81.3704 334.843 81.5279 334.271C81.6855 333.699 81.6707 333.213 81.4836 332.812C81.2965 332.412 80.9578 332.148 80.4675 332.021ZM89.0864 331.281L87.1481 338.319L86.4708 338.143L86.6534 337.291C86.4336 337.537 86.1514 337.708 85.8068 337.804C85.4705 337.896 85.1153 337.892 84.7411 337.795C84.0638 337.618 83.5862 337.256 83.3083 336.708C83.0387 336.156 83.011 335.491 83.2252 334.713C83.4394 333.935 83.8043 333.376 84.32 333.035C84.8438 332.69 85.4445 332.605 86.1218 332.782C86.4766 332.874 86.7715 333.034 87.0064 333.26C87.2478 333.488 87.4104 333.751 87.4945 334.049L88.3123 331.079L89.0864 331.281ZM85.0141 337.143C85.4785 337.264 85.8905 337.199 86.25 336.948C86.6159 336.699 86.8732 336.305 87.0218 335.765L87.0537 335.649C87.2024 335.109 87.1823 334.643 86.9934 334.249C86.811 333.857 86.4875 333.6 86.023 333.479C85.5521 333.356 85.1352 333.427 84.7722 333.69C84.4109 333.948 84.1533 334.356 83.9993 334.915C83.8453 335.474 83.8578 335.956 84.0367 336.361C84.2173 336.759 84.5431 337.02 85.0141 337.143ZM92.3911 334.416C93.0685 334.593 93.5419 334.957 93.8115 335.51C94.0894 336.057 94.1212 336.72 93.907 337.498C93.6928 338.276 93.3238 338.837 92.7999 339.183C92.2843 339.524 91.6878 339.606 91.0104 339.429C90.6362 339.332 90.3238 339.161 90.0731 338.916C89.8306 338.667 89.6773 338.383 89.6133 338.063L89.3339 338.889L88.6565 338.712L90.5948 331.674L91.3689 331.876L90.5511 334.846C90.7768 334.629 91.0495 334.48 91.3694 334.398C91.6957 334.317 92.0363 334.323 92.3911 334.416ZM91.1092 338.732C91.5801 338.855 91.9962 338.787 92.3574 338.53C92.7204 338.267 92.9789 337.855 93.1329 337.296C93.2869 336.737 93.2736 336.258 93.0929 335.86C92.914 335.455 92.5891 335.191 92.1181 335.068C91.6537 334.947 91.2385 335.011 90.8726 335.26C90.5131 335.511 90.2591 335.906 90.1104 336.446L90.0785 336.562C89.9298 337.102 89.9467 337.568 90.1291 337.96C90.318 338.353 90.6447 338.611 91.1092 338.732ZM97.8572 335.841C98.5862 336.031 99.0961 336.402 99.3868 336.953C99.684 337.506 99.7246 338.174 99.5086 338.958C99.2927 339.742 98.914 340.301 98.3725 340.636C97.8375 340.971 97.2055 341.044 96.4765 340.854C95.7476 340.664 95.2345 340.293 94.9373 339.74C94.6466 339.189 94.6092 338.521 94.8252 337.737C95.0411 336.953 95.4166 336.393 95.9516 336.057C96.4931 335.723 97.1283 335.651 97.8572 335.841ZM97.674 336.506C97.1837 336.378 96.7548 336.442 96.3871 336.698C96.0194 336.953 95.7568 337.367 95.5993 337.939C95.4417 338.511 95.4565 338.997 95.6437 339.397C95.8308 339.797 96.1695 340.061 96.6597 340.189C97.15 340.317 97.579 340.253 97.9467 339.998C98.3143 339.742 98.577 339.328 98.7345 338.756C98.892 338.184 98.8772 337.698 98.6901 337.298C98.503 336.898 98.1643 336.634 97.674 336.506ZM104.18 342.16C104.309 342.194 104.442 342.211 104.58 342.213L104.364 342.807C104.166 342.825 103.964 342.806 103.757 342.752C103.506 342.687 103.321 342.58 103.202 342.432C103.091 342.286 103.051 342.079 103.083 341.812C102.872 341.998 102.604 342.118 102.279 342.171C101.961 342.219 101.644 342.202 101.328 342.119C100.851 341.995 100.488 341.783 100.238 341.484C99.9904 341.178 99.9241 340.816 100.039 340.398C100.14 340.032 100.388 339.759 100.783 339.58C101.18 339.394 101.699 339.329 102.34 339.386L103.686 339.51L103.76 339.24C103.849 338.918 103.819 338.635 103.672 338.39C103.526 338.145 103.275 337.977 102.92 337.884C102.597 337.8 102.296 337.804 102.014 337.896C101.74 337.99 101.496 338.171 101.284 338.439L100.827 337.876C101.055 337.55 101.373 337.326 101.78 337.205C102.193 337.085 102.635 337.087 103.106 337.209C103.68 337.359 104.103 337.617 104.375 337.985C104.648 338.352 104.709 338.805 104.561 339.345L103.908 341.717C103.876 341.833 103.881 341.927 103.923 342C103.965 342.073 104.051 342.126 104.18 342.16ZM101.553 341.454C101.959 341.56 102.334 341.555 102.678 341.438C103.028 341.322 103.245 341.11 103.33 340.802L103.513 340.136L102.374 340.056C101.92 340.021 101.567 340.049 101.313 340.142C101.061 340.227 100.904 340.383 100.842 340.608C100.787 340.807 100.822 340.982 100.947 341.131C101.074 341.274 101.276 341.382 101.553 341.454ZM108.887 338.716C109.119 338.777 109.287 338.855 109.392 338.951L109.03 339.663C108.899 339.539 108.707 339.444 108.455 339.379C108.249 339.325 108.029 339.333 107.795 339.403C107.57 339.468 107.359 339.606 107.163 339.817C106.975 340.023 106.834 340.296 106.74 340.637L106.023 343.24L105.249 343.038L106.576 338.217L107.205 338.381L107.094 339.2C107.528 338.679 108.125 338.518 108.887 338.716ZM114.992 338.035L113.054 345.073L112.376 344.896L112.559 344.045C112.339 344.29 112.057 344.461 111.712 344.558C111.376 344.649 111.021 344.646 110.647 344.548C109.969 344.372 109.492 344.01 109.214 343.462C108.944 342.909 108.917 342.244 109.131 341.467C109.345 340.689 109.71 340.13 110.226 339.789C110.749 339.443 111.35 339.359 112.027 339.535C112.382 339.628 112.677 339.787 112.912 340.014C113.153 340.242 113.316 340.505 113.4 340.802L114.218 337.833L114.992 338.035ZM110.92 343.896C111.384 344.017 111.796 343.953 112.156 343.702C112.521 343.453 112.779 343.058 112.927 342.518L112.959 342.403C113.108 341.863 113.088 341.396 112.899 341.002C112.717 340.61 112.393 340.354 111.929 340.233C111.458 340.11 111.041 340.18 110.678 340.444C110.317 340.701 110.059 341.109 109.905 341.668C109.751 342.228 109.763 342.71 109.942 343.115C110.123 343.513 110.449 343.774 110.92 343.896ZM116.532 339.821C116.358 339.775 116.23 339.687 116.148 339.555C116.075 339.419 116.063 339.264 116.11 339.091C116.158 338.917 116.248 338.793 116.379 338.717C116.519 338.636 116.676 338.618 116.85 338.664C117.025 338.709 117.148 338.8 117.221 338.936C117.303 339.068 117.319 339.22 117.272 339.394C117.224 339.567 117.13 339.694 116.99 339.775C116.859 339.851 116.706 339.866 116.532 339.821ZM115.336 345.668L114.562 345.466L115.89 340.645L116.664 340.847L115.336 345.668ZM120.548 341.756C121.096 341.899 121.504 342.175 121.772 342.582C122.04 342.989 122.093 343.489 121.93 344.08L121.081 347.165L120.306 346.963L121.082 344.148C121.22 343.647 121.21 343.255 121.053 342.973C120.902 342.693 120.646 342.505 120.284 342.411C120.026 342.344 119.769 342.339 119.511 342.395C119.255 342.446 119.018 342.58 118.798 342.799C118.587 343.012 118.429 343.312 118.323 343.698L117.616 346.262L116.842 346.06L118.17 341.24L118.847 341.416L118.688 342.181C118.929 341.934 119.21 341.78 119.531 341.719C119.854 341.651 120.193 341.664 120.548 341.756ZM125.413 347.633C125.871 347.753 126.201 347.949 126.402 348.222C126.603 348.495 126.655 348.808 126.558 349.162C126.473 349.47 126.292 349.712 126.016 349.888C125.737 350.07 125.397 350.175 124.996 350.201C124.599 350.235 124.182 350.195 123.743 350.081C123.008 349.889 122.486 349.626 122.177 349.29C121.866 348.961 121.763 348.607 121.868 348.228C121.928 348.01 122.055 347.836 122.25 347.708C122.451 347.581 122.693 347.517 122.977 347.515C122.804 347.366 122.676 347.202 122.594 347.022C122.519 346.844 122.508 346.656 122.563 346.456C122.629 346.219 122.747 346.039 122.919 345.919C123.092 345.792 123.302 345.719 123.549 345.701C123.356 345.499 123.229 345.269 123.168 345.013C123.116 344.751 123.129 344.479 123.207 344.196C123.293 343.881 123.454 343.623 123.689 343.423C123.926 343.216 124.214 343.084 124.555 343.028C124.897 342.966 125.258 342.984 125.639 343.084C126 343.178 126.312 343.328 126.573 343.534C126.934 342.925 127.479 342.716 128.208 342.906L128.196 343.626C127.564 343.462 127.132 343.538 126.899 343.856C127.052 344.055 127.151 344.27 127.198 344.503C127.251 344.737 127.243 344.979 127.174 345.23C127.087 345.545 126.925 345.806 126.689 346.013C126.454 346.213 126.165 346.345 125.823 346.407C125.483 346.463 125.122 346.442 124.742 346.342C124.458 346.268 124.217 346.175 124.02 346.061C123.814 346.056 123.656 346.09 123.546 346.165C123.435 346.239 123.357 346.36 123.311 346.527C123.265 346.695 123.288 346.838 123.379 346.958C123.47 347.079 123.613 347.164 123.806 347.215L125.413 347.633ZM125.466 343.71C125.131 343.623 124.825 343.643 124.548 343.77C124.27 343.898 124.091 344.11 124.01 344.405C123.928 344.701 123.975 344.971 124.149 345.217C124.324 345.462 124.579 345.628 124.914 345.716C125.25 345.803 125.556 345.783 125.833 345.656C126.11 345.528 126.289 345.316 126.371 345.021C126.452 344.725 126.406 344.455 126.231 344.209C126.057 343.964 125.802 343.798 125.466 343.71ZM124.008 349.458C124.498 349.586 124.907 349.606 125.236 349.519C125.562 349.439 125.756 349.287 125.818 349.062C125.869 348.875 125.834 348.714 125.712 348.579C125.597 348.446 125.365 348.334 125.017 348.243L123.72 347.905C123.423 347.828 123.18 347.819 122.99 347.88C122.799 347.947 122.678 348.074 122.626 348.261C122.559 348.505 122.642 348.73 122.876 348.935C123.108 349.147 123.485 349.322 124.008 349.458ZM127.474 349.555L126.749 349.366L131.834 342.425L132.56 342.615L127.474 349.555ZM65.7737 337.603L63.8354 344.641L63.158 344.465L63.3406 343.613C63.1208 343.859 62.8386 344.03 62.4941 344.126C62.1578 344.218 61.8025 344.215 61.4284 344.117C60.751 343.941 60.2734 343.579 59.9956 343.031C59.726 342.478 59.6983 341.813 59.9125 341.035C60.1267 340.258 60.4916 339.698 61.0072 339.358C61.5311 339.012 62.1317 338.927 62.8091 339.104C63.1639 339.196 63.4587 339.356 63.6937 339.583C63.935 339.811 64.0977 340.074 64.1817 340.371L64.9995 337.402L65.7737 337.603ZM61.7013 343.465C62.1658 343.586 62.5778 343.521 62.9372 343.271C63.3031 343.022 63.5604 342.627 63.7091 342.087L63.741 341.972C63.8897 341.432 63.8696 340.965 63.6807 340.571C63.4982 340.179 63.1748 339.923 62.7103 339.802C62.2394 339.679 61.8224 339.749 61.4594 340.013C61.0982 340.27 60.8406 340.678 60.6866 341.237C60.5326 341.796 60.545 342.278 60.7239 342.683C60.9046 343.082 61.2304 343.342 61.7013 343.465ZM70.2279 343.456C70.1783 343.636 70.1158 343.813 70.0405 343.986L66.3924 343.035C66.303 343.535 66.3599 343.956 66.5629 344.299C66.7724 344.642 67.0997 344.872 67.5449 344.989C67.8997 345.081 68.21 345.096 68.4759 345.035C68.7482 344.975 68.9581 344.84 69.1057 344.631L69.6611 345.137C69.3738 345.427 69.0441 345.62 68.6719 345.716C68.2998 345.812 67.8622 345.795 67.359 345.663C66.63 345.473 66.117 345.102 65.8198 344.549C65.529 343.998 65.4917 343.33 65.7076 342.546C65.9236 341.762 66.2894 341.2 66.805 340.859C67.3271 340.519 67.9527 340.445 68.6816 340.635C69.1332 340.753 69.4961 340.954 69.7702 341.239C70.0443 341.524 70.2183 341.859 70.2922 342.243C70.3662 342.627 70.3447 343.032 70.2279 343.456ZM68.4958 341.31C68.07 341.199 67.6903 341.234 67.3568 341.416C67.0297 341.599 66.7743 341.912 66.5906 342.353L69.5226 343.117C69.5949 342.654 69.543 342.265 69.3669 341.95C69.1926 341.629 68.9022 341.416 68.4958 341.31ZM72.2946 346.95C71.8301 346.829 71.4356 346.63 71.111 346.352C70.7881 346.068 70.5892 345.724 70.5141 345.318L71.2626 345.048C71.2944 345.36 71.4263 345.622 71.6583 345.834C71.8903 346.046 72.1901 346.2 72.5579 346.295C72.9385 346.395 73.2473 346.403 73.4845 346.32C73.7217 346.237 73.8686 346.093 73.9252 345.887C73.9765 345.701 73.9237 345.529 73.7667 345.371C73.6115 345.206 73.3099 345.021 72.862 344.814C72.4206 344.61 72.0803 344.414 71.8412 344.228C71.6039 344.035 71.4487 343.833 71.3757 343.621C71.3045 343.403 71.306 343.158 71.3804 342.888C71.453 342.625 71.5967 342.404 71.8118 342.226C72.0268 342.048 72.2971 341.932 72.6228 341.879C72.9503 341.82 73.3043 341.84 73.6849 341.939C74.201 342.074 74.5873 342.278 74.8439 342.551C75.1087 342.82 75.2548 343.168 75.2823 343.596L74.5181 343.81C74.4998 343.474 74.4028 343.211 74.2271 343.021C74.0579 342.832 73.8152 342.697 73.4991 342.614C73.183 342.532 72.8958 342.533 72.6375 342.617C72.3792 342.701 72.2244 342.836 72.1731 343.023C72.1147 343.235 72.1631 343.423 72.3183 343.588C72.48 343.754 72.7944 343.943 73.2617 344.154C73.9025 344.438 74.3315 344.726 74.5488 345.016C74.766 345.307 74.8197 345.652 74.7099 346.05C74.6338 346.327 74.4818 346.552 74.2539 346.727C74.0342 346.897 73.7527 347.003 73.4095 347.044C73.0726 347.087 72.701 347.056 72.2946 346.95ZM77.4582 342.034C77.2841 341.989 77.1563 341.9 77.075 341.769C77.0018 341.633 76.9892 341.478 77.037 341.304C77.0848 341.131 77.1744 341.006 77.306 340.93C77.4457 340.85 77.6027 340.832 77.7769 340.877C77.951 340.923 78.0747 341.014 78.1478 341.15C78.2292 341.281 78.2459 341.434 78.1981 341.607C78.1504 341.781 78.0566 341.908 77.9168 341.988C77.7853 342.064 77.6324 342.08 77.4582 342.034ZM76.2628 347.881L75.4887 347.679L76.8163 342.859L77.5904 343.061L76.2628 347.881ZM80.6384 348.361C81.0965 348.48 81.4262 348.676 81.6276 348.949C81.829 349.222 81.881 349.535 81.7836 349.889C81.6987 350.197 81.5179 350.44 81.2413 350.615C80.9629 350.798 80.623 350.902 80.2217 350.928C79.825 350.963 79.4074 350.923 78.9687 350.808C78.2333 350.617 77.7112 350.353 77.4026 350.018C77.0921 349.689 76.9891 349.335 77.0936 348.955C77.1537 348.737 77.281 348.563 77.4754 348.435C77.6763 348.308 77.9187 348.244 78.2027 348.242C78.0292 348.094 77.9016 347.93 77.8197 347.75C77.7443 347.572 77.734 347.383 77.7889 347.184C77.8544 346.946 77.9729 346.767 78.1444 346.646C78.3177 346.519 78.5278 346.446 78.7749 346.428C78.5816 346.226 78.4546 345.997 78.394 345.74C78.3416 345.478 78.3544 345.206 78.4322 344.923C78.519 344.608 78.6798 344.351 78.9148 344.15C79.1516 343.943 79.4402 343.812 79.7805 343.756C80.1227 343.693 80.4841 343.712 80.8647 343.811C81.2259 343.905 81.5372 344.055 81.7986 344.261C82.1598 343.653 82.7048 343.443 83.4338 343.633L83.4221 344.354C82.7899 344.189 82.3574 344.266 82.1246 344.584C82.2774 344.782 82.3771 344.997 82.4237 345.23C82.4767 345.464 82.4687 345.707 82.3996 345.957C82.3129 346.272 82.1512 346.533 81.9144 346.74C81.6794 346.941 81.3908 347.072 81.0487 347.135C80.7083 347.191 80.3478 347.169 79.9672 347.07C79.6834 346.996 79.443 346.902 79.246 346.789C79.0401 346.783 78.8819 346.818 78.7715 346.892C78.6611 346.967 78.5829 347.088 78.5369 347.255C78.4908 347.422 78.5135 347.566 78.6048 347.686C78.6962 347.806 78.8386 347.891 79.0321 347.942L80.6384 348.361ZM80.6921 344.438C80.3566 344.35 80.0503 344.37 79.7732 344.498C79.4961 344.625 79.3168 344.837 79.2354 345.133C79.154 345.428 79.2005 345.699 79.3749 345.944C79.5494 346.189 79.8043 346.356 80.1398 346.443C80.4753 346.53 80.7815 346.51 81.0587 346.383C81.3358 346.255 81.5151 346.044 81.5965 345.748C81.6779 345.452 81.6314 345.182 81.4569 344.937C81.2825 344.691 81.0275 344.525 80.6921 344.438ZM79.2337 350.185C79.724 350.313 80.1331 350.333 80.4612 350.247C80.7876 350.167 80.9817 350.014 81.0437 349.789C81.095 349.603 81.0598 349.442 80.9379 349.307C80.8226 349.173 80.5907 349.061 80.2423 348.97L78.9457 348.632C78.6489 348.555 78.4058 348.547 78.2162 348.607C78.0248 348.675 77.9034 348.802 77.8521 348.988C77.7848 349.232 77.8681 349.457 78.1019 349.663C78.3339 349.875 78.7111 350.049 79.2337 350.185ZM86.4948 345.279C87.0431 345.422 87.4513 345.697 87.7194 346.104C87.9875 346.512 88.0401 347.011 87.8772 347.602L87.0276 350.688L86.2534 350.486L87.0287 347.671C87.1668 347.169 87.1572 346.778 86.9998 346.495C86.8488 346.215 86.5928 346.028 86.2315 345.933C85.9735 345.866 85.7156 345.861 85.458 345.918C85.2021 345.968 84.9646 346.103 84.7454 346.321C84.5344 346.535 84.3758 346.834 84.2696 347.22L83.5633 349.784L82.7892 349.583L84.1168 344.762L84.7942 344.939L84.6354 345.703C84.8764 345.456 85.1574 345.302 85.4784 345.241C85.8012 345.174 86.14 345.186 86.4948 345.279ZM93.1162 352.378C92.6518 352.257 92.2572 352.058 91.9326 351.78C91.6098 351.496 91.4109 351.152 91.3358 350.746L92.0843 350.477C92.116 350.788 92.2479 351.05 92.4799 351.262C92.7119 351.474 93.0118 351.628 93.3795 351.724C93.7601 351.823 94.069 351.831 94.3062 351.748C94.5433 351.665 94.6902 351.521 94.7469 351.315C94.7982 351.129 94.7454 350.957 94.5884 350.799C94.4332 350.634 94.1316 350.449 93.6837 350.243C93.2422 350.038 92.9019 349.842 92.6629 349.656C92.4255 349.463 92.2704 349.261 92.1974 349.049C92.1261 348.831 92.1277 348.587 92.202 348.317C92.2746 348.053 92.4184 347.832 92.6334 347.654C92.8484 347.476 93.1188 347.36 93.4445 347.308C93.7719 347.248 94.126 347.268 94.5066 347.367C95.0227 347.502 95.409 347.706 95.6655 347.98C95.9303 348.248 96.0764 348.596 96.1039 349.024L95.3397 349.238C95.3215 348.902 95.2245 348.64 95.0488 348.449C94.8795 348.26 94.6368 348.125 94.3207 348.042C94.0046 347.96 93.7174 347.961 93.4592 348.045C93.2009 348.129 93.0461 348.265 92.9948 348.451C92.9363 348.663 92.9847 348.851 93.14 349.016C93.3016 349.182 93.6161 349.371 94.0834 349.582C94.7242 349.866 95.1532 350.154 95.3704 350.445C95.5876 350.735 95.6414 351.08 95.5316 351.479C95.4555 351.755 95.3035 351.981 95.0756 352.155C94.8559 352.325 94.5744 352.431 94.2311 352.473C93.8943 352.516 93.5227 352.484 93.1162 352.378ZM97.6329 354.32C97.3184 354.734 97.0193 355.004 96.7358 355.13C96.4504 355.262 96.1239 355.281 95.7562 355.185C95.5111 355.121 95.3135 355.035 95.1634 354.927C95.0199 354.821 94.8998 354.679 94.8033 354.502L95.2548 353.917C95.3711 354.223 95.5969 354.42 95.9324 354.507C96.1195 354.556 96.2999 354.541 96.4737 354.463C96.6521 354.392 96.8369 354.223 97.028 353.956L97.4522 353.395L96.7547 348.057L97.6353 348.286L97.9793 351.745L98.0429 352.681L98.6542 351.817L100.625 349.066L101.458 349.283L97.6329 354.32ZM102.401 354.799C101.937 354.678 101.542 354.478 101.218 354.201C100.895 353.917 100.696 353.572 100.621 353.167L101.369 352.897C101.401 353.209 101.533 353.47 101.765 353.682C101.997 353.894 102.297 354.048 102.664 354.144C103.045 354.243 103.354 354.252 103.591 354.169C103.828 354.086 103.975 353.942 104.032 353.736C104.083 353.55 104.03 353.377 103.873 353.219C103.718 353.055 103.417 352.869 102.969 352.663C102.527 352.458 102.187 352.263 101.948 352.077C101.711 351.884 101.555 351.682 101.482 351.47C101.411 351.251 101.413 351.007 101.487 350.737C101.56 350.474 101.703 350.253 101.918 350.075C102.133 349.896 102.404 349.781 102.729 349.728C103.057 349.669 103.411 349.689 103.792 349.788C104.308 349.923 104.694 350.127 104.951 350.4C105.215 350.669 105.361 351.017 105.389 351.444L104.625 351.658C104.606 351.323 104.509 351.06 104.334 350.87C104.164 350.681 103.922 350.545 103.606 350.463C103.29 350.38 103.002 350.381 102.744 350.466C102.486 350.55 102.331 350.685 102.28 350.871C102.221 351.084 102.27 351.272 102.425 351.436C102.587 351.602 102.901 351.791 103.368 352.003C104.009 352.287 104.438 352.574 104.655 352.865C104.873 353.156 104.926 353.501 104.817 353.899C104.74 354.176 104.588 354.401 104.361 354.576C104.141 354.746 103.859 354.852 103.516 354.893C103.179 354.936 102.808 354.905 102.401 354.799ZM108.649 355.963C108.247 356.168 107.791 356.204 107.282 356.071C106.888 355.969 106.595 355.778 106.401 355.501C106.215 355.225 106.178 354.867 106.292 354.429L107.107 351.469L106.14 351.216L106.323 350.551L107.291 350.804L107.609 349.647L108.442 349.636L108.065 351.005L109.855 351.472L109.672 352.137L107.882 351.671L107.104 354.495C107.04 354.727 107.056 354.92 107.151 355.076C107.255 355.227 107.416 355.331 107.635 355.388C107.945 355.469 108.252 355.422 108.556 355.246L108.649 355.963ZM114.243 354.931C114.194 355.111 114.131 355.287 114.056 355.46L110.408 354.509C110.318 355.01 110.375 355.431 110.578 355.773C110.788 356.117 111.115 356.347 111.56 356.463C111.915 356.556 112.225 356.571 112.491 356.51C112.763 356.45 112.973 356.315 113.121 356.105L113.676 356.612C113.389 356.902 113.059 357.095 112.687 357.191C112.315 357.287 111.877 357.269 111.374 357.138C110.645 356.948 110.132 356.577 109.835 356.024C109.544 355.473 109.507 354.805 109.723 354.021C109.939 353.237 110.305 352.674 110.82 352.333C111.342 351.994 111.968 351.92 112.697 352.11C113.148 352.227 113.511 352.429 113.785 352.714C114.06 352.999 114.234 353.333 114.307 353.718C114.381 354.102 114.36 354.506 114.243 354.931ZM112.511 352.784C112.085 352.673 111.706 352.709 111.372 352.891C111.045 353.074 110.79 353.386 110.606 353.827L113.538 354.592C113.61 354.128 113.558 353.739 113.382 353.425C113.208 353.104 112.917 352.89 112.511 352.784ZM121.668 354.448C121.99 354.532 122.271 354.678 122.512 354.885C122.76 355.088 122.933 355.35 123.031 355.672C123.13 355.994 123.123 356.357 123.011 356.762L122.162 359.847L121.388 359.645L122.216 356.637C122.331 356.219 122.31 355.883 122.151 355.628C122.002 355.369 121.756 355.195 121.414 355.105C121.156 355.038 120.9 355.04 120.645 355.112C120.398 355.178 120.174 355.316 119.971 355.525C119.776 355.729 119.633 355.998 119.541 356.332L118.814 358.974L118.039 358.772L118.868 355.764C118.983 355.347 118.961 355.01 118.803 354.756C118.654 354.496 118.408 354.322 118.066 354.233C117.834 354.172 117.591 354.174 117.338 354.239C117.087 354.298 116.856 354.434 116.645 354.647C116.434 354.861 116.277 355.154 116.174 355.527L115.465 358.101L114.691 357.899L116.019 353.079L116.696 353.256L116.538 354.02C116.783 353.781 117.061 353.626 117.371 353.555C117.687 353.486 118.003 353.493 118.319 353.575C118.674 353.668 118.978 353.833 119.23 354.071C119.489 354.311 119.654 354.605 119.724 354.954C119.951 354.683 120.247 354.509 120.614 354.432C120.981 354.355 121.332 354.361 121.668 354.448Z" fill="black"/>
<path d="M65.7737 204.536L63.8354 211.574L63.158 211.397L63.3406 210.546C63.1208 210.791 62.8386 210.962 62.4941 211.059C62.1578 211.15 61.8025 211.147 61.4284 211.049C60.751 210.873 60.2734 210.511 59.9956 209.963C59.726 209.41 59.6983 208.745 59.9125 207.968C60.1267 207.19 60.4916 206.631 61.0072 206.29C61.5311 205.944 62.1317 205.859 62.8091 206.036C63.1639 206.129 63.4587 206.288 63.6937 206.515C63.935 206.743 64.0977 207.006 64.1817 207.303L64.9995 204.334L65.7737 204.536ZM61.7013 210.397C62.1658 210.518 62.5778 210.454 62.9372 210.203C63.3031 209.954 63.5604 209.559 63.7091 209.019L63.741 208.904C63.8897 208.364 63.8696 207.897 63.6807 207.503C63.4982 207.111 63.1748 206.855 62.7103 206.734C62.2394 206.611 61.8224 206.681 61.4594 206.945C61.0982 207.202 60.8406 207.61 60.6866 208.169C60.5326 208.729 60.545 209.211 60.7239 209.615C60.9046 210.014 61.2304 210.274 61.7013 210.397ZM70.2279 210.388C70.1783 210.568 70.1158 210.745 70.0405 210.918L66.3924 209.967C66.303 210.467 66.3599 210.888 66.5629 211.231C66.7724 211.575 67.0997 211.805 67.5449 211.921C67.8997 212.013 68.21 212.029 68.4759 211.967C68.7482 211.907 68.9581 211.772 69.1057 211.563L69.6611 212.069C69.3738 212.36 69.0441 212.553 68.6719 212.648C68.2998 212.744 67.8622 212.727 67.359 212.596C66.63 212.405 66.117 212.034 65.8198 211.481C65.529 210.93 65.4917 210.262 65.7076 209.478C65.9236 208.694 66.2894 208.132 66.805 207.791C67.3271 207.452 67.9527 207.377 68.6816 207.567C69.1332 207.685 69.4961 207.886 69.7702 208.171C70.0443 208.456 70.2183 208.791 70.2922 209.175C70.3662 209.56 70.3447 209.964 70.2279 210.388ZM68.4958 208.242C68.07 208.131 67.6903 208.166 67.3568 208.348C67.0297 208.531 66.7743 208.844 66.5906 209.285L69.5226 210.049C69.5949 209.586 69.543 209.197 69.3669 208.882C69.1926 208.561 68.9022 208.348 68.4958 208.242ZM72.2946 213.882C71.8301 213.761 71.4356 213.562 71.111 213.284C70.7881 213 70.5892 212.656 70.5141 212.25L71.2626 211.981C71.2944 212.292 71.4263 212.554 71.6583 212.766C71.8903 212.978 72.1901 213.132 72.5579 213.228C72.9385 213.327 73.2473 213.335 73.4845 213.252C73.7217 213.169 73.8686 213.025 73.9252 212.819C73.9765 212.633 73.9237 212.461 73.7667 212.303C73.6115 212.138 73.3099 211.953 72.862 211.746C72.4206 211.542 72.0803 211.346 71.8412 211.16C71.6039 210.967 71.4487 210.765 71.3757 210.553C71.3045 210.335 71.306 210.091 71.3804 209.821C71.453 209.557 71.5967 209.336 71.8118 209.158C72.0268 208.98 72.2971 208.864 72.6228 208.811C72.9503 208.752 73.3043 208.772 73.6849 208.871C74.201 209.006 74.5873 209.21 74.8439 209.484C75.1087 209.752 75.2548 210.1 75.2823 210.528L74.5181 210.742C74.4998 210.406 74.4028 210.144 74.2271 209.953C74.0579 209.764 73.8152 209.629 73.4991 209.546C73.183 209.464 72.8958 209.465 72.6375 209.549C72.3792 209.633 72.2244 209.769 72.1731 209.955C72.1147 210.167 72.1631 210.355 72.3183 210.52C72.48 210.686 72.7944 210.875 73.2617 211.086C73.9025 211.37 74.3315 211.658 74.5488 211.949C74.766 212.239 74.8197 212.584 74.7099 212.983C74.6338 213.259 74.4818 213.485 74.2539 213.659C74.0342 213.829 73.7527 213.935 73.4095 213.977C73.0726 214.02 72.701 213.988 72.2946 213.882ZM77.4582 208.966C77.2841 208.921 77.1563 208.833 77.075 208.701C77.0018 208.565 76.9892 208.41 77.037 208.237C77.0848 208.063 77.1744 207.938 77.306 207.862C77.4457 207.782 77.6027 207.764 77.7769 207.809C77.951 207.855 78.0747 207.946 78.1478 208.082C78.2292 208.213 78.2459 208.366 78.1981 208.539C78.1504 208.713 78.0566 208.84 77.9168 208.921C77.7853 208.997 77.6324 209.012 77.4582 208.966ZM76.2628 214.813L75.4887 214.612L76.8163 209.791L77.5904 209.993L76.2628 214.813ZM80.6384 215.293C81.0965 215.412 81.4262 215.608 81.6276 215.881C81.829 216.154 81.881 216.467 81.7836 216.821C81.6987 217.129 81.5179 217.372 81.2413 217.548C80.9629 217.73 80.623 217.834 80.2217 217.86C79.825 217.895 79.4074 217.855 78.9687 217.74C78.2333 217.549 77.7112 217.285 77.4026 216.95C77.0921 216.621 76.9891 216.267 77.0936 215.888C77.1537 215.669 77.281 215.496 77.4754 215.367C77.6763 215.24 77.9187 215.176 78.2027 215.174C78.0292 215.026 77.9016 214.862 77.8197 214.682C77.7443 214.504 77.734 214.315 77.7889 214.116C77.8544 213.878 77.9729 213.699 78.1444 213.578C78.3177 213.451 78.5278 213.379 78.7749 213.36C78.5816 213.158 78.4546 212.929 78.394 212.672C78.3416 212.41 78.3544 212.138 78.4322 211.855C78.519 211.54 78.6798 211.283 78.9148 211.082C79.1516 210.875 79.4402 210.744 79.7805 210.688C80.1227 210.625 80.4841 210.644 80.8647 210.743C81.2259 210.837 81.5372 210.987 81.7986 211.193C82.1598 210.585 82.7048 210.376 83.4338 210.566L83.4221 211.286C82.7899 211.121 82.3574 211.198 82.1246 211.516C82.2774 211.714 82.3771 211.93 82.4237 212.162C82.4767 212.396 82.4687 212.639 82.3996 212.89C82.3129 213.205 82.1512 213.465 81.9144 213.672C81.6794 213.873 81.3908 214.004 81.0487 214.067C80.7083 214.123 80.3478 214.101 79.9672 214.002C79.6834 213.928 79.443 213.834 79.246 213.721C79.0401 213.715 78.8819 213.75 78.7715 213.824C78.6611 213.899 78.5829 214.02 78.5369 214.187C78.4908 214.354 78.5135 214.498 78.6048 214.618C78.6962 214.738 78.8386 214.824 79.0321 214.874L80.6384 215.293ZM80.6921 211.37C80.3566 211.282 80.0503 211.302 79.7732 211.43C79.4961 211.557 79.3168 211.769 79.2354 212.065C79.154 212.36 79.2005 212.631 79.3749 212.876C79.5494 213.121 79.8043 213.288 80.1398 213.375C80.4753 213.463 80.7815 213.443 81.0587 213.315C81.3358 213.187 81.5151 212.976 81.5965 212.68C81.6779 212.385 81.6314 212.114 81.4569 211.869C81.2825 211.624 81.0275 211.457 80.6921 211.37ZM79.2337 217.117C79.724 217.245 80.1331 217.266 80.4612 217.179C80.7876 217.099 80.9817 216.946 81.0437 216.721C81.095 216.535 81.0598 216.374 80.9379 216.239C80.8226 216.105 80.5907 215.993 80.2423 215.903L78.9457 215.564C78.6489 215.487 78.4058 215.479 78.2162 215.54C78.0248 215.607 77.9034 215.734 77.8521 215.92C77.7848 216.164 77.8681 216.389 78.1019 216.595C78.3339 216.807 78.7111 216.981 79.2337 217.117ZM86.4948 212.211C87.0431 212.354 87.4513 212.629 87.7194 213.036C87.9875 213.444 88.0401 213.943 87.8772 214.535L87.0276 217.62L86.2534 217.418L87.0287 214.603C87.1668 214.101 87.1572 213.71 86.9998 213.428C86.8488 213.147 86.5928 212.96 86.2315 212.866C85.9735 212.798 85.7156 212.793 85.458 212.85C85.2021 212.9 84.9646 213.035 84.7454 213.253C84.5344 213.467 84.3758 213.766 84.2696 214.152L83.5633 216.717L82.7892 216.515L84.1168 211.694L84.7942 211.871L84.6354 212.635C84.8764 212.388 85.1574 212.234 85.4784 212.173C85.8012 212.106 86.14 212.118 86.4948 212.211ZM88.401 218.701L87.6752 218.512L92.7604 211.571L93.4862 211.76L88.401 218.701ZM100.968 216.087L99.6404 220.908L98.963 220.731L99.1164 219.986C98.6416 220.455 97.9882 220.58 97.156 220.364C96.6334 220.227 96.2443 219.971 95.9885 219.594C95.7391 219.219 95.6968 218.733 95.8614 218.135L96.7296 214.982L97.5037 215.184L96.6913 218.134C96.562 218.604 96.5668 218.963 96.7054 219.213C96.8459 219.456 97.1031 219.626 97.4773 219.724C97.9224 219.84 98.3273 219.801 98.692 219.607C99.0631 219.414 99.3229 219.048 99.4716 218.508L100.194 215.886L100.968 216.087ZM103.121 215.657C102.947 215.611 102.819 215.523 102.738 215.391C102.664 215.255 102.652 215.1 102.7 214.927C102.747 214.753 102.837 214.628 102.969 214.553C103.108 214.472 103.265 214.454 103.439 214.5C103.614 214.545 103.737 214.636 103.81 214.772C103.892 214.903 103.909 215.056 103.861 215.229C103.813 215.403 103.719 215.53 103.579 215.611C103.448 215.687 103.295 215.702 103.121 215.657ZM101.925 221.504L101.151 221.302L102.479 216.481L103.253 216.683L101.925 221.504ZM110.56 223.155C110.689 223.189 110.823 223.207 110.961 223.208L110.745 223.803C110.547 223.82 110.344 223.802 110.138 223.748C109.886 223.682 109.701 223.576 109.583 223.428C109.471 223.281 109.431 223.075 109.464 222.807C109.253 222.994 108.985 223.113 108.659 223.166C108.342 223.214 108.025 223.197 107.709 223.115C107.232 222.99 106.868 222.778 106.619 222.479C106.371 222.173 106.305 221.812 106.42 221.394C106.521 221.028 106.769 220.755 107.164 220.575C107.561 220.389 108.08 220.325 108.721 220.382L110.066 220.505L110.141 220.235C110.229 219.914 110.2 219.631 110.053 219.386C109.906 219.141 109.655 218.972 109.301 218.88C108.978 218.796 108.676 218.8 108.395 218.892C108.12 218.985 107.877 219.166 107.665 219.435L107.208 218.871C107.436 218.545 107.754 218.321 108.16 218.2C108.574 218.08 109.016 218.082 109.487 218.205C110.061 218.354 110.484 218.613 110.756 218.98C111.028 219.347 111.09 219.801 110.941 220.341L110.288 222.712C110.256 222.828 110.262 222.922 110.304 222.995C110.346 223.068 110.431 223.122 110.56 223.155ZM107.934 222.45C108.34 222.556 108.715 222.55 109.058 222.433C109.408 222.318 109.626 222.106 109.711 221.797L109.894 221.132L108.754 221.052C108.301 221.016 107.947 221.045 107.694 221.137C107.442 221.223 107.285 221.378 107.223 221.603C107.168 221.803 107.203 221.977 107.328 222.127C107.454 222.27 107.656 222.378 107.934 222.45ZM113.248 224.559C112.784 224.438 112.389 224.238 112.064 223.961C111.742 223.677 111.543 223.332 111.468 222.927L112.216 222.657C112.248 222.968 112.38 223.23 112.612 223.442C112.844 223.654 113.144 223.808 113.511 223.904C113.892 224.003 114.201 224.011 114.438 223.929C114.675 223.846 114.822 223.701 114.879 223.496C114.93 223.309 114.877 223.137 114.72 222.979C114.565 222.815 114.263 222.629 113.815 222.423C113.374 222.218 113.034 222.023 112.795 221.837C112.557 221.644 112.402 221.441 112.329 221.229C112.258 221.011 112.26 220.767 112.334 220.497C112.406 220.234 112.55 220.013 112.765 219.835C112.98 219.656 113.251 219.541 113.576 219.488C113.904 219.429 114.258 219.449 114.638 219.548C115.155 219.682 115.541 219.886 115.797 220.16C116.062 220.429 116.208 220.777 116.236 221.204L115.472 221.418C115.453 221.083 115.356 220.82 115.181 220.63C115.011 220.441 114.769 220.305 114.453 220.223C114.136 220.14 113.849 220.141 113.591 220.225C113.333 220.31 113.178 220.445 113.127 220.631C113.068 220.843 113.117 221.032 113.272 221.196C113.433 221.362 113.748 221.551 114.215 221.763C114.856 222.047 115.285 222.334 115.502 222.625C115.719 222.916 115.773 223.261 115.663 223.659C115.587 223.935 115.435 224.161 115.207 224.336C114.988 224.506 114.706 224.612 114.363 224.653C114.026 224.696 113.654 224.665 113.248 224.559ZM118.061 225.813C117.596 225.692 117.202 225.493 116.877 225.215C116.554 224.931 116.355 224.587 116.28 224.182L117.029 223.912C117.06 224.223 117.192 224.485 117.424 224.697C117.656 224.909 117.956 225.063 118.324 225.159C118.705 225.258 119.013 225.266 119.251 225.183C119.488 225.1 119.635 224.956 119.691 224.75C119.743 224.564 119.69 224.392 119.533 224.234C119.378 224.069 119.076 223.884 118.628 223.678C118.187 223.473 117.846 223.277 117.607 223.091C117.37 222.898 117.215 222.696 117.142 222.484C117.071 222.266 117.072 222.022 117.146 221.752C117.219 221.488 117.363 221.267 117.578 221.089C117.793 220.911 118.063 220.795 118.389 220.743C118.716 220.683 119.07 220.703 119.451 220.802C119.967 220.937 120.353 221.141 120.61 221.415C120.875 221.683 121.021 222.032 121.048 222.459L120.284 222.673C120.266 222.338 120.169 222.075 119.993 221.884C119.824 221.695 119.581 221.56 119.265 221.477C118.949 221.395 118.662 221.396 118.404 221.48C118.145 221.564 117.99 221.7 117.939 221.886C117.881 222.098 117.929 222.286 118.084 222.451C118.246 222.617 118.56 222.806 119.028 223.017C119.669 223.301 120.098 223.589 120.315 223.88C120.532 224.171 120.586 224.515 120.476 224.914C120.4 225.19 120.248 225.416 120.02 225.59C119.8 225.761 119.519 225.866 119.176 225.908C118.839 225.951 118.467 225.919 118.061 225.813ZM126.139 224.964C126.089 225.144 126.027 225.321 125.951 225.494L122.303 224.543C122.214 225.043 122.271 225.464 122.474 225.807C122.683 226.15 123.011 226.38 123.456 226.496C123.811 226.589 124.121 226.604 124.387 226.543C124.659 226.483 124.869 226.348 125.017 226.139L125.572 226.645C125.285 226.935 124.955 227.128 124.583 227.224C124.211 227.32 123.773 227.303 123.27 227.171C122.541 226.981 122.028 226.61 121.731 226.057C121.44 225.506 121.403 224.838 121.619 224.054C121.835 223.27 122.2 222.708 122.716 222.367C123.238 222.027 123.864 221.953 124.593 222.143C125.044 222.261 125.407 222.462 125.681 222.747C125.955 223.032 126.129 223.367 126.203 223.751C126.277 224.135 126.256 224.54 126.139 224.964ZM124.407 222.818C123.981 222.707 123.601 222.742 123.268 222.924C122.941 223.107 122.685 223.42 122.502 223.861L125.434 224.625C125.506 224.162 125.454 223.773 125.278 223.458C125.104 223.137 124.813 222.924 124.407 222.818ZM129.499 228.33C129.097 228.535 128.641 228.572 128.132 228.439C127.738 228.336 127.445 228.146 127.252 227.868C127.065 227.592 127.028 227.235 127.142 226.796L127.957 223.836L126.99 223.584L127.173 222.919L128.141 223.171L128.459 222.014L129.292 222.004L128.915 223.373L130.705 223.84L130.522 224.505L128.732 224.038L127.954 226.863C127.89 227.094 127.906 227.288 128.001 227.444C128.105 227.595 128.266 227.699 128.486 227.756C128.795 227.837 129.102 227.789 129.406 227.614L129.499 228.33ZM131.827 229.402C131.363 229.281 130.968 229.082 130.644 228.804C130.321 228.52 130.122 228.176 130.047 227.77L130.795 227.501C130.827 227.812 130.959 228.074 131.191 228.286C131.423 228.498 131.723 228.652 132.091 228.748C132.471 228.847 132.78 228.855 133.017 228.772C133.255 228.689 133.401 228.545 133.458 228.339C133.509 228.153 133.457 227.981 133.3 227.823C133.144 227.658 132.843 227.473 132.395 227.267C131.953 227.062 131.613 226.866 131.374 226.68C131.137 226.487 130.982 226.285 130.909 226.073C130.837 225.855 130.839 225.611 130.913 225.341C130.986 225.077 131.13 224.856 131.345 224.678C131.56 224.5 131.83 224.384 132.156 224.332C132.483 224.272 132.837 224.292 133.218 224.391C133.734 224.526 134.12 224.73 134.377 225.004C134.642 225.272 134.788 225.62 134.815 226.048L134.051 226.262C134.033 225.927 133.936 225.664 133.76 225.473C133.591 225.284 133.348 225.149 133.032 225.066C132.716 224.984 132.429 224.985 132.17 225.069C131.912 225.153 131.757 225.289 131.706 225.475C131.648 225.687 131.696 225.875 131.851 226.04C132.013 226.206 132.327 226.395 132.795 226.606C133.435 226.89 133.864 227.178 134.082 227.469C134.299 227.759 134.353 228.104 134.243 228.503C134.167 228.779 134.015 229.005 133.787 229.179C133.567 229.349 133.286 229.455 132.942 229.497C132.605 229.54 132.234 229.508 131.827 229.402Z" fill="black"/>
<path d="M63.2736 142.243C63.9509 142.419 64.4244 142.784 64.694 143.336C64.9718 143.884 65.0037 144.547 64.7895 145.325C64.5753 146.102 64.2063 146.664 63.6824 147.01C63.1667 147.351 62.5702 147.433 61.8929 147.256C61.5381 147.164 61.24 147.003 60.9986 146.775C60.7637 146.548 60.6042 146.286 60.5202 145.989L59.7555 148.766L58.9814 148.564L60.8666 141.719L61.5439 141.895L61.3613 142.747C61.5811 142.501 61.8592 142.332 62.1955 142.241C62.54 142.145 62.8994 142.145 63.2736 142.243ZM61.9916 146.559C62.4626 146.681 62.8786 146.614 63.2399 146.357C63.6028 146.093 63.8613 145.682 64.0153 145.123C64.1693 144.564 64.156 144.085 63.9753 143.686C63.7964 143.282 63.4715 143.018 63.0006 142.895C62.5361 142.774 62.1209 142.838 61.755 143.087C61.3956 143.338 61.1415 143.733 60.9928 144.273L60.961 144.389C60.8123 144.929 60.8291 145.394 61.0116 145.786C61.2005 146.18 61.5272 146.438 61.9916 146.559ZM68.9816 143.731C69.2138 143.791 69.3824 143.87 69.4873 143.966L69.1253 144.678C68.9935 144.554 68.8018 144.459 68.5502 144.393C68.3438 144.34 68.1238 144.348 67.8902 144.418C67.6648 144.483 67.4539 144.621 67.2576 144.831C67.0696 145.037 66.9286 145.311 66.8348 145.651L66.1179 148.254L65.3438 148.053L66.6714 143.232L67.3004 143.396L67.1891 144.214C67.6229 143.694 68.2204 143.532 68.9816 143.731ZM72.2482 144.583C72.9772 144.773 73.487 145.143 73.7777 145.694C74.0749 146.247 74.1155 146.916 73.8996 147.7C73.6836 148.484 73.3049 149.043 72.7635 149.377C72.2285 149.713 71.5965 149.786 70.8675 149.596C70.1385 149.406 69.6255 149.034 69.3283 148.482C69.0376 147.93 69.0002 147.263 69.2161 146.479C69.4321 145.695 69.8076 145.135 70.3426 144.799C70.884 144.465 71.5192 144.392 72.2482 144.583ZM72.065 145.248C71.5747 145.12 71.1457 145.184 70.7781 145.439C70.4104 145.695 70.1478 146.108 69.9902 146.681C69.8327 147.253 69.8475 147.739 70.0346 148.139C70.2217 148.539 70.5604 148.803 71.0507 148.931C71.541 149.058 71.97 148.995 72.3376 148.739C72.7053 148.484 72.9679 148.07 73.1255 147.498C73.283 146.926 73.2682 146.44 73.0811 146.04C72.894 145.64 72.5553 145.376 72.065 145.248ZM77.4181 150.839C77.0159 151.044 76.56 151.08 76.0504 150.947C75.6569 150.844 75.3635 150.654 75.1703 150.377C74.9836 150.101 74.9472 149.743 75.0611 149.304L75.8763 146.345L74.9086 146.092L75.0918 145.427L76.0595 145.679L76.3781 144.523L77.2106 144.512L76.8336 145.881L78.6238 146.348L78.4406 147.013L76.6504 146.546L75.8724 149.371C75.8087 149.603 75.8245 149.796 75.9199 149.952C76.0235 150.103 76.185 150.207 76.4043 150.264C76.714 150.345 77.0209 150.298 77.3251 150.122L77.4181 150.839ZM81.5237 147.001C82.2527 147.191 82.7625 147.561 83.0533 148.112C83.3505 148.665 83.3911 149.334 83.1751 150.118C82.9592 150.902 82.5805 151.461 82.039 151.795C81.504 152.131 80.872 152.204 80.143 152.014C79.4141 151.824 78.901 151.453 78.6038 150.9C78.3131 150.349 78.2757 149.681 78.4917 148.897C78.7076 148.113 79.0831 147.553 79.6181 147.217C80.1595 146.883 80.7948 146.811 81.5237 147.001ZM81.3405 147.666C80.8502 147.538 80.4213 147.602 80.0536 147.857C79.6859 148.113 79.4233 148.527 79.2658 149.099C79.1082 149.671 79.123 150.157 79.3101 150.557C79.4973 150.957 79.836 151.221 80.3262 151.349C80.8165 151.477 81.2455 151.413 81.6132 151.157C81.9808 150.902 82.2435 150.488 82.401 149.916C82.5585 149.344 82.5437 148.858 82.3566 148.458C82.1695 148.058 81.8308 147.794 81.3405 147.666ZM86.6937 153.257C86.2915 153.462 85.8355 153.498 85.3259 153.365C84.9324 153.263 84.639 153.072 84.4459 152.795C84.2591 152.519 84.2227 152.161 84.3367 151.723L85.1518 148.763L84.1841 148.511L84.3673 147.845L85.335 148.098L85.6536 146.941L86.4862 146.93L86.1091 148.299L87.8993 148.766L87.7161 149.431L85.9259 148.965L85.148 151.789C85.0842 152.021 85.1001 152.214 85.1955 152.37C85.2991 152.521 85.4605 152.625 85.6799 152.682C85.9895 152.763 86.2964 152.716 86.6006 152.54L86.6937 153.257ZM89.0189 155.093C88.7044 155.507 88.4053 155.776 88.1217 155.902C87.8364 156.035 87.5099 156.053 87.1422 155.957C86.897 155.893 86.6994 155.807 86.5494 155.699C86.4058 155.593 86.2858 155.451 86.1892 155.275L86.6407 154.69C86.757 154.995 86.9829 155.192 87.3183 155.28C87.5054 155.328 87.6859 155.313 87.8596 155.235C88.0381 155.164 88.2229 154.995 88.414 154.728L88.8382 154.167L88.1407 148.829L89.0212 149.059L89.3652 152.517L89.4289 153.453L90.0401 152.589L92.0113 149.838L92.8435 150.055L89.0189 155.093ZM96.0261 150.781C96.7035 150.958 97.177 151.322 97.4466 151.875C97.7244 152.423 97.7562 153.085 97.542 153.863C97.3279 154.641 96.9588 155.203 96.435 155.548C95.9193 155.889 95.3228 155.971 94.6454 155.795C94.2906 155.702 93.9925 155.542 93.7512 155.314C93.5163 155.087 93.3568 154.825 93.2728 154.528L92.5081 157.304L91.734 157.102L93.6191 150.257L94.2965 150.434L94.1139 151.285C94.3337 151.039 94.6118 150.871 94.9481 150.779C95.2926 150.683 95.652 150.684 96.0261 150.781ZM94.7442 155.097C95.2151 155.22 95.6312 155.153 95.9924 154.896C96.3554 154.632 96.6139 154.221 96.7679 153.661C96.9219 153.102 96.9086 152.623 96.7279 152.225C96.549 151.82 96.2241 151.556 95.7532 151.434C95.2887 151.312 94.8735 151.376 94.5076 151.625C94.1482 151.876 93.8941 152.272 93.7454 152.811L93.7135 152.927C93.5648 153.467 93.5817 153.933 93.7642 154.325C93.9531 154.719 94.2797 154.976 94.7442 155.097ZM102.98 155.012C102.931 155.192 102.868 155.369 102.793 155.542L99.145 154.591C99.0556 155.091 99.1124 155.513 99.3155 155.855C99.525 156.199 99.8523 156.429 100.297 156.545C100.652 156.637 100.963 156.653 101.228 156.591C101.501 156.531 101.711 156.397 101.858 156.187L102.414 156.694C102.126 156.984 101.797 157.177 101.425 157.273C101.052 157.369 100.615 157.351 100.112 157.22C99.3826 157.03 98.8695 156.658 98.5723 156.105C98.2816 155.554 98.2442 154.887 98.4602 154.103C98.6761 153.318 99.0419 152.756 99.5576 152.415C100.08 152.076 100.705 152.001 101.434 152.191C101.886 152.309 102.249 152.51 102.523 152.795C102.797 153.08 102.971 153.415 103.045 153.799C103.119 154.184 103.097 154.588 102.98 155.012ZM101.248 152.866C100.823 152.755 100.443 152.79 100.109 152.972C99.7823 153.156 99.5269 153.468 99.3432 153.909L102.275 154.673C102.347 154.21 102.296 153.821 102.119 153.507C101.945 153.186 101.655 152.972 101.248 152.866ZM107.222 154.61L107.64 155.731L107.035 155.966L106.596 154.849L106.403 154.045L105.822 154.647L104.868 155.401L104.466 154.904L105.403 154.135L106.117 153.691L105.366 153.33L104.364 152.676L104.709 152.136L105.736 152.775L106.369 153.302L106.49 152.486L106.811 151.32L107.45 151.486L107.129 152.653L106.814 153.418L107.633 153.27L108.851 153.215L108.873 153.851L107.669 153.93L106.833 153.878L107.222 154.61Z" fill="black"/>
<path d="M63.0612 82.9757C62.659 83.1808 62.2031 83.2169 61.6934 83.0841C61.2999 82.9815 61.0066 82.7914 60.8134 82.5137C60.6267 82.2376 60.5903 81.8803 60.7042 81.4415L61.5193 78.4817L60.5517 78.2295L60.7349 77.5642L61.7025 77.8165L62.0211 76.6596L62.8537 76.6493L62.4766 78.0183L64.2668 78.485L64.0836 79.1502L62.2934 78.6835L61.5155 81.5084C61.4517 81.7398 61.4676 81.9333 61.563 82.0891C61.6666 82.2401 61.8281 82.3442 62.0474 82.4014C62.357 82.4821 62.664 82.4347 62.9681 82.2591L63.0612 82.9757ZM68.655 81.9436C68.6054 82.1236 68.5429 82.3002 68.4676 82.4734L64.8195 81.5224C64.7301 82.0226 64.787 82.4439 64.99 82.7862C65.1995 83.1301 65.5268 83.3601 65.972 83.4762C66.3268 83.5687 66.6371 83.5841 66.903 83.5225C67.1753 83.4626 67.3852 83.3279 67.5328 83.1184L68.0882 83.6249C67.8009 83.9151 67.4712 84.1081 67.099 84.204C66.7269 84.2999 66.2893 84.2822 65.7861 84.151C65.0571 83.961 64.544 83.5896 64.2469 83.0368C63.9561 82.4856 63.9187 81.818 64.1347 81.0339C64.3507 80.2497 64.7165 79.6872 65.2321 79.3463C65.7542 79.0071 66.3798 78.9325 67.1087 79.1225C67.5603 79.2403 67.9231 79.4416 68.1973 79.7267C68.4714 80.0117 68.6454 80.3464 68.7193 80.7308C68.7932 81.1151 68.7718 81.5194 68.655 81.9436ZM66.9229 79.7974C66.4971 79.6864 66.1174 79.7218 65.7839 79.9035C65.4568 80.0869 65.2014 80.3992 65.0177 80.8404L67.9497 81.6048C68.022 81.1414 67.9701 80.7524 67.794 80.4378C67.6196 80.1168 67.3293 79.9034 66.9229 79.7974ZM70.7217 85.4377C70.2572 85.3166 69.8627 85.1173 69.5381 84.8398C69.2152 84.5559 69.0163 84.2113 68.9412 83.8059L69.6897 83.536C69.7215 83.8474 69.8534 84.1091 70.0854 84.3212C70.3174 84.5332 70.6172 84.6872 70.9849 84.783C71.3656 84.8823 71.6744 84.8904 71.9116 84.8076C72.1488 84.7248 72.2957 84.5805 72.3523 84.3748C72.4036 84.1884 72.3508 84.0162 72.1938 83.8582C72.0386 83.6937 71.737 83.5083 71.2891 83.302C70.8476 83.0974 70.5074 82.9019 70.2683 82.7155C70.031 82.5228 69.8758 82.3205 69.8028 82.1085C69.7316 81.8902 69.7331 81.646 69.8075 81.3761C69.8801 81.1126 70.0238 80.8917 70.2389 80.7136C70.4539 80.5354 70.7242 80.4199 71.0499 80.367C71.3774 80.3077 71.7314 80.3277 72.112 80.4269C72.6281 80.5614 73.0144 80.7655 73.271 81.039C73.5358 81.3078 73.6819 81.6559 73.7094 82.0833L72.9452 82.2974C72.9269 81.962 72.8299 81.699 72.6542 81.5086C72.485 81.3198 72.2423 81.1842 71.9262 81.1018C71.6101 81.0194 71.3229 81.0203 71.0646 81.1045C70.8063 81.1887 70.6515 81.324 70.6002 81.5104C70.5418 81.7225 70.5902 81.9108 70.7454 82.0753C70.9071 82.2414 71.2215 82.4302 71.6888 82.6415C72.3296 82.9257 72.7586 83.2132 72.9758 83.5041C73.1931 83.7949 73.2468 84.1396 73.137 84.5381C73.0609 84.8145 72.9089 85.0401 72.681 85.2149C72.4613 85.3849 72.1798 85.4906 71.8365 85.532C71.4997 85.5751 71.1281 85.5437 70.7217 85.4377ZM76.9698 86.6016C76.5675 86.8067 76.1116 86.8429 75.602 86.71C75.2085 86.6074 74.9151 86.4173 74.722 86.1396C74.5352 85.8636 74.4988 85.5062 74.6127 85.0675L75.4279 82.1077L74.4602 81.8554L74.6434 81.1902L75.6111 81.4424L75.9297 80.2855L76.7622 80.2752L76.3852 81.6442L78.1754 82.1109L77.9922 82.7762L76.202 82.3095L75.424 85.1343C75.3603 85.3657 75.3762 85.5593 75.4715 85.715C75.5752 85.866 75.7366 85.9701 75.956 86.0273C76.2656 86.108 76.5725 86.0606 76.8767 85.885L76.9698 86.6016ZM80.598 88.6325L79.8723 88.4433L84.9575 81.5023L85.6832 81.6915L80.598 88.6325ZM89.617 84.1017C89.4428 84.0563 89.3151 83.9679 89.2337 83.8365C89.1606 83.7003 89.1479 83.5455 89.1957 83.3719C89.2435 83.1984 89.3332 83.0736 89.4647 82.9977C89.6045 82.917 89.7615 82.8994 89.9356 82.9448C90.1098 82.9902 90.2335 83.081 90.3066 83.2172C90.3879 83.3486 90.4047 83.5011 90.3569 83.6746C90.3091 83.8482 90.2153 83.9753 90.0756 84.056C89.944 84.1319 89.7912 84.1471 89.617 84.1017ZM88.4216 89.9487L87.6475 89.7469L88.975 84.9264L89.7492 85.1282L88.4216 89.9487ZM92.9815 90.7758C92.5793 90.9809 92.1233 91.0171 91.6137 90.8842C91.2202 90.7816 90.9268 90.5915 90.7337 90.3138C90.5469 90.0378 90.5105 89.6804 90.6245 89.2417L91.4396 86.2819L90.4719 86.0296L90.6551 85.3644L91.6228 85.6166L91.9414 84.4597L92.774 84.4494L92.3969 85.8185L94.1871 86.2851L94.0039 86.9504L92.2137 86.4837L91.4358 89.3085C91.372 89.5399 91.3879 89.7335 91.4833 89.8892C91.5869 90.0402 91.7483 90.1443 91.9677 90.2015C92.2773 90.2822 92.5842 90.2348 92.8884 90.0592L92.9815 90.7758ZM98.5752 89.7438C98.5257 89.9237 98.4632 90.1003 98.3878 90.2736L94.7398 89.3225C94.6504 89.8228 94.7072 90.2441 94.9103 90.5863C95.1198 90.9303 95.4471 91.1603 95.8922 91.2763C96.247 91.3688 96.5574 91.3843 96.8233 91.3227C97.0956 91.2628 97.3055 91.1281 97.4531 90.9186L98.0085 91.425C97.7212 91.7152 97.3914 91.9083 97.0193 92.0041C96.6472 92.1 96.2096 92.0824 95.7064 91.9512C94.9774 91.7611 94.4643 91.3897 94.1671 90.8369C93.8764 90.2858 93.839 89.6182 94.055 88.834C94.2709 88.0499 94.6367 87.4874 95.1524 87.1465C95.6745 86.8072 96.3 86.7326 97.029 86.9227C97.4806 87.0404 97.8434 87.2418 98.1176 87.5268C98.3917 87.8118 98.5657 88.1465 98.6396 88.5309C98.7135 88.9153 98.6921 89.3196 98.5752 89.7438ZM96.8431 87.5976C96.4174 87.4866 96.0377 87.5219 95.7042 87.7036C95.3771 87.887 95.1217 88.1993 94.938 88.6405L97.87 89.4049C97.9423 88.9415 97.8904 88.5526 97.7143 88.238C97.5399 87.917 97.2496 87.7035 96.8431 87.5976ZM102.661 88.391C102.894 88.4516 103.062 88.5299 103.167 88.6262L102.805 89.3378C102.673 89.2139 102.482 89.1191 102.23 89.0536C102.023 88.9997 101.803 89.0078 101.57 89.0778C101.344 89.143 101.134 89.281 100.937 89.4916C100.749 89.6974 100.608 89.9707 100.515 90.3113L99.7976 92.9144L99.0235 92.7126L100.351 87.8921L100.98 88.0561L100.869 88.8744C101.303 88.3537 101.9 88.1926 102.661 88.391ZM106.672 94.1073C106.801 94.1409 106.935 94.1585 107.073 94.16L106.857 94.7548C106.659 94.772 106.456 94.7537 106.25 94.6998C105.998 94.6342 105.813 94.5275 105.695 94.3795C105.583 94.2333 105.543 94.0265 105.575 93.7594C105.365 93.9456 105.097 94.0652 104.771 94.1181C104.454 94.1662 104.137 94.1491 103.821 94.0666C103.344 93.9422 102.98 93.7303 102.731 93.4311C102.483 93.1254 102.417 92.7637 102.532 92.3459C102.633 91.9795 102.881 91.7066 103.276 91.5272C103.673 91.3413 104.192 91.2769 104.833 91.3338L106.178 91.4572L106.253 91.1873C106.341 90.8659 106.312 90.5827 106.165 90.3378C106.018 90.0928 105.767 89.9241 105.413 89.8316C105.09 89.7475 104.788 89.7515 104.507 89.8435C104.232 89.9372 103.989 90.1183 103.777 90.3868L103.32 89.8234C103.548 89.4971 103.865 89.2733 104.272 89.152C104.685 89.0324 105.128 89.034 105.598 89.1567C106.173 89.3064 106.596 89.5648 106.868 89.932C107.14 90.2992 107.202 90.7528 107.053 91.2927L106.4 93.6644C106.368 93.7801 106.373 93.8744 106.416 93.9474C106.458 94.0204 106.543 94.0737 106.672 94.1073ZM104.046 93.4019C104.452 93.5078 104.827 93.5022 105.17 93.3851C105.52 93.2696 105.738 93.0576 105.823 92.7491L106.006 92.0839L104.866 92.0038C104.413 91.9683 104.059 91.9966 103.806 92.089C103.554 92.1749 103.397 92.3303 103.335 92.5553C103.28 92.7545 103.315 92.929 103.44 93.0786C103.566 93.2218 103.768 93.3295 104.046 93.4019ZM110.606 95.3706C110.204 95.5757 109.748 95.6119 109.239 95.479C108.845 95.3764 108.552 95.1863 108.359 94.9086C108.172 94.6326 108.136 94.2752 108.249 93.8365L109.065 90.8767L108.097 90.6244L108.28 89.9592L109.248 90.2114L109.566 89.0545L110.399 89.0442L110.022 90.4132L111.812 90.8799L111.629 91.5452L109.839 91.0785L109.061 93.9033C108.997 94.1347 109.013 94.3283 109.108 94.484C109.212 94.635 109.373 94.7391 109.593 94.7963C109.902 94.877 110.209 94.8296 110.513 94.654L110.606 95.3706ZM116.2 94.3386C116.151 94.5185 116.088 94.6951 116.013 94.8684L112.365 93.9173C112.275 94.4176 112.332 94.8388 112.535 95.1811C112.745 95.5251 113.072 95.7551 113.517 95.8711C113.872 95.9636 114.182 95.9791 114.448 95.9175C114.721 95.8576 114.931 95.7229 115.078 95.5134L115.633 96.0198C115.346 96.31 115.016 96.503 114.644 96.5989C114.272 96.6948 113.835 96.6771 113.331 96.546C112.602 96.3559 112.089 95.9845 111.792 95.4317C111.501 94.8806 111.464 94.2129 111.68 93.4288C111.896 92.6447 112.262 92.0821 112.777 91.7412C113.299 91.402 113.925 91.3274 114.654 91.5175C115.106 91.6352 115.468 91.8366 115.743 92.1216C116.017 92.4066 116.191 92.7413 116.265 93.1257C116.339 93.5101 116.317 93.9144 116.2 94.3386ZM114.468 92.1924C114.042 92.0814 113.663 92.1167 113.329 92.2984C113.002 92.4818 112.747 92.7941 112.563 93.2353L115.495 93.9997C115.567 93.5363 115.515 93.1474 115.339 92.8328C115.165 92.5118 114.875 92.2983 114.468 92.1924ZM119.567 98.7916L118.841 98.6024L123.926 91.6615L124.652 91.8507L119.567 98.7916ZM127.708 98.8059C127.64 99.0501 127.629 99.2297 127.673 99.3446C127.726 99.4547 127.852 99.5359 128.052 99.588C128.188 99.6234 128.307 99.644 128.409 99.6499C128.517 99.6576 128.646 99.6533 128.796 99.6372L128.466 100.347C128.228 100.381 127.977 100.364 127.712 100.295C127.319 100.192 127.055 100.01 126.919 99.7474C126.791 99.4865 126.787 99.1375 126.907 98.7005L128.516 92.858L129.29 93.0598L127.708 98.8059ZM134.168 99.0227C134.118 99.2027 134.056 99.3793 133.981 99.5525L130.333 98.6015C130.243 99.1018 130.3 99.523 130.503 99.8653C130.713 100.209 131.04 100.439 131.485 100.555C131.84 100.648 132.15 100.663 132.416 100.602C132.688 100.542 132.898 100.407 133.046 100.198L133.601 100.704C133.314 100.994 132.984 101.187 132.612 101.283C132.24 101.379 131.802 101.361 131.299 101.23C130.57 101.04 130.057 100.669 129.76 100.116C129.469 99.5647 129.432 98.8971 129.648 98.113C129.864 97.3288 130.23 96.7663 130.745 96.4254C131.267 96.0862 131.893 96.0116 132.622 96.2016C133.073 96.3194 133.436 96.5207 133.71 96.8058C133.984 97.0908 134.159 97.4255 134.232 97.8099C134.306 98.1942 134.285 98.5985 134.168 99.0227ZM132.436 96.8765C132.01 96.7655 131.631 96.8009 131.297 96.9826C130.97 97.166 130.715 97.4783 130.531 97.9195L133.463 98.6839C133.535 98.2205 133.483 97.8315 133.307 97.517C133.133 97.196 132.842 96.9825 132.436 96.8765ZM138.738 102.467C138.867 102.5 139 102.518 139.138 102.519L138.922 103.114C138.724 103.131 138.522 103.113 138.315 103.059C138.064 102.994 137.879 102.887 137.76 102.739C137.649 102.593 137.609 102.386 137.641 102.119C137.43 102.305 137.162 102.425 136.837 102.477C136.519 102.526 136.203 102.508 135.886 102.426C135.409 102.302 135.046 102.09 134.796 101.79C134.548 101.485 134.482 101.123 134.597 100.705C134.698 100.339 134.946 100.066 135.341 99.8866C135.738 99.7007 136.257 99.6362 136.898 99.6932L138.244 99.8166L138.318 99.5466C138.407 99.2253 138.377 98.9421 138.231 98.6972C138.084 98.4522 137.833 98.2835 137.478 98.191C137.155 98.1069 136.854 98.1109 136.572 98.2029C136.298 98.2966 136.054 98.4777 135.842 98.7461L135.385 98.1827C135.613 97.8564 135.931 97.6326 136.338 97.5113C136.751 97.3917 137.193 97.3933 137.664 97.5161C138.238 97.6658 138.661 97.9242 138.933 98.2914C139.206 98.6586 139.267 99.1121 139.119 99.652L138.466 102.024C138.434 102.139 138.439 102.234 138.481 102.307C138.523 102.38 138.609 102.433 138.738 102.467ZM136.111 101.761C136.517 101.867 136.892 101.862 137.236 101.744C137.586 101.629 137.803 101.417 137.888 101.108L138.071 100.443L136.932 100.363C136.478 100.328 136.125 100.356 135.871 100.448C135.619 100.534 135.462 100.69 135.4 100.915C135.345 101.114 135.38 101.288 135.505 101.438C135.632 101.581 135.834 101.689 136.111 101.761ZM143.512 99.0408C144.061 99.1838 144.469 99.459 144.737 99.8664C145.005 100.274 145.058 100.773 144.895 101.365L144.045 104.45L143.271 104.248L144.046 101.433C144.184 100.931 144.175 100.54 144.017 100.257C143.866 99.977 143.61 99.7897 143.249 99.6955C142.991 99.6282 142.733 99.623 142.476 99.6798C142.22 99.7302 141.982 99.8647 141.763 100.083C141.552 100.297 141.393 100.596 141.287 100.982L140.581 103.547L139.807 103.345L141.134 98.5242L141.812 98.7008L141.653 99.4654C141.894 99.2182 142.175 99.0641 142.496 99.0032C142.819 98.9358 143.158 98.9483 143.512 99.0408Z" fill="black"/>
<path d="M61.0984 25.9088C61.0312 26.153 61.0197 26.3326 61.0642 26.4475C61.1168 26.5576 61.2431 26.6388 61.4431 26.6909C61.5785 26.7262 61.6973 26.7469 61.7994 26.7528C61.9079 26.7604 62.037 26.7562 62.1866 26.7401L61.8564 27.4497C61.6187 27.4842 61.3676 27.4669 61.1032 27.398C60.7096 27.2954 60.4453 27.1128 60.3102 26.8503C60.1815 26.5894 60.1774 26.2404 60.2978 25.8034L61.9068 19.9609L62.6809 20.1627L61.0984 25.9088ZM66.7961 28.1794C66.9251 28.2131 67.0586 28.2307 67.1964 28.2322L66.9808 28.8269C66.7825 28.8441 66.5801 28.8258 66.3736 28.772C66.122 28.7064 65.9371 28.5996 65.8188 28.4517C65.707 28.3054 65.6671 28.0987 65.6992 27.8315C65.4889 28.0178 65.2209 28.1373 64.8952 28.1902C64.5777 28.2383 64.2609 28.2212 63.9448 28.1388C63.4674 28.0143 63.104 27.8025 62.8546 27.5032C62.6069 27.1975 62.5405 26.8358 62.6556 26.418C62.7565 26.0517 63.0045 25.7788 63.3996 25.5993C63.7965 25.4135 64.3156 25.349 64.9567 25.4059L66.3021 25.5294L66.3765 25.2594C66.465 24.938 66.4358 24.6549 66.2889 24.4099C66.142 24.165 65.8912 23.9962 65.5364 23.9037C65.2138 23.8196 64.912 23.8236 64.6308 23.9157C64.3561 24.0094 64.1126 24.1904 63.9004 24.4589L63.4436 23.8955C63.6718 23.5692 63.9893 23.3454 64.396 23.2241C64.8092 23.1045 65.2513 23.1061 65.7222 23.2289C66.2964 23.3785 66.7196 23.637 66.9918 24.0042C67.2641 24.3714 67.3258 24.8249 67.1772 25.3648L66.524 27.7365C66.4921 27.8522 66.4973 27.9465 66.5394 28.0195C66.5815 28.0925 66.6671 28.1458 66.7961 28.1794ZM64.1694 27.474C64.5758 27.58 64.9507 27.5744 65.2941 27.4572C65.644 27.3418 65.8614 27.1298 65.9463 26.8213L66.1295 26.156L64.99 26.0759C64.5365 26.0404 64.183 26.0688 63.9294 26.1611C63.6776 26.247 63.5207 26.4025 63.4587 26.6274C63.4039 26.8267 63.4388 27.0011 63.5635 27.1507C63.69 27.2939 63.892 27.4017 64.1694 27.474ZM73.3828 25.3293L72.0552 30.1498L71.3779 29.9732L71.5313 29.2279C71.0565 29.6966 70.403 29.8224 69.5708 29.6055C69.0483 29.4693 68.6591 29.2128 68.4033 28.8361C68.154 28.4611 68.1116 27.9747 68.2762 27.377L69.1445 24.2244L69.9186 24.4262L69.1061 27.3763C68.9769 27.8455 68.9816 28.205 69.1203 28.4547C69.2607 28.698 69.518 28.8684 69.8922 28.9659C70.3373 29.082 70.7422 29.0429 71.1068 28.8486C71.4779 28.656 71.7378 28.2897 71.8865 27.7498L72.6087 25.1275L73.3828 25.3293ZM77.2717 26.2398C77.82 26.3827 78.2282 26.6579 78.4963 27.0654C78.7644 27.4728 78.817 27.9722 78.6541 28.5635L77.8045 31.6486L77.0304 31.4468L77.8057 28.6316C77.9437 28.1303 77.9341 27.7386 77.7767 27.4564C77.6258 27.176 77.3697 26.9887 77.0084 26.8945C76.7504 26.8272 76.4925 26.822 76.2349 26.8788C75.979 26.9292 75.7415 27.0636 75.5223 27.282C75.3113 27.4957 75.1528 27.7954 75.0466 28.181L74.3403 30.7455L73.5662 30.5437L74.8937 25.7232L75.5711 25.8998L75.4124 26.6644C75.6533 26.4172 75.9343 26.2631 76.2553 26.2021C76.5781 26.1347 76.9169 26.1473 77.2717 26.2398ZM82.6629 27.6453C83.1467 27.7714 83.5222 27.9898 83.7892 28.3005C84.0645 28.6065 84.239 28.9896 84.3128 29.4497L83.4818 29.6051C83.4506 28.9149 83.1093 28.4849 82.4577 28.3151C81.9739 28.189 81.5481 28.2536 81.1804 28.5091C80.821 28.7598 80.5625 29.1712 80.405 29.7433C80.2474 30.3153 80.259 30.8005 80.4397 31.199C80.6285 31.5926 80.9649 31.8526 81.4487 31.9787C81.8229 32.0762 82.1459 32.0709 82.4177 31.9626C82.6977 31.8496 82.9175 31.6417 83.0769 31.3388L83.724 31.7762C83.4323 32.1824 83.0778 32.4654 82.6604 32.6252C82.2448 32.7787 81.7854 32.7898 81.2822 32.6586C80.5533 32.4686 80.0402 32.0971 79.743 31.5443C79.4523 30.9932 79.4149 30.3256 79.6308 29.5414C79.8468 28.7573 80.2223 28.1973 80.7573 27.8615C81.2987 27.5273 81.9339 27.4552 82.6629 27.6453ZM88.1442 29.0742C88.6926 29.2172 89.1008 29.4924 89.3689 29.8998C89.6369 30.3073 89.6895 30.8066 89.5267 31.3979L88.677 34.4831L87.9029 34.2813L88.6782 31.4661C88.8163 30.9647 88.8066 30.573 88.6492 30.2909C88.4983 30.0104 88.2422 29.8231 87.881 29.7289C87.6294 29.6633 87.3715 29.6581 87.1074 29.7133C86.8498 29.7701 86.6114 29.9077 86.3922 30.1261C86.1812 30.3398 86.0226 30.6395 85.9164 31.0251L85.2128 33.58L84.4387 33.3782L86.377 26.3402L87.1511 26.542L86.3413 29.4825C86.5787 29.2482 86.8514 29.0989 87.1595 29.0345C87.4741 28.9719 87.8023 28.9851 88.1442 29.0742Z" fill="black"/>
<path d="M60.7809 396.764C61.2648 396.891 61.6402 397.109 61.9073 397.42C62.1825 397.726 62.3571 398.109 62.4309 398.569L61.5998 398.724C61.5687 398.034 61.2273 397.604 60.5757 397.434C60.0919 397.308 59.6661 397.373 59.2985 397.628C58.939 397.879 58.6805 398.29 58.523 398.862C58.3654 399.434 58.377 399.92 58.5577 400.318C58.7466 400.712 59.0829 400.972 59.5668 401.098C59.9409 401.195 60.2639 401.19 60.5357 401.082C60.8157 400.969 61.0355 400.761 61.195 400.458L61.842 400.895C61.5504 401.302 61.1958 401.585 60.7785 401.744C60.3628 401.898 59.9034 401.909 59.4003 401.778C58.6713 401.588 58.1582 401.216 57.861 400.663C57.5703 400.112 57.5329 399.445 57.7489 398.661C57.9648 397.876 58.3403 397.316 58.8753 396.981C59.4168 396.646 60.052 396.574 60.7809 396.764ZM65.9526 398.113C66.6816 398.303 67.1914 398.673 67.4822 399.224C67.7793 399.777 67.82 400.446 67.604 401.23C67.3881 402.014 67.0093 402.573 66.4679 402.907C65.9329 403.243 65.3009 403.316 64.5719 403.126C63.843 402.936 63.3299 402.565 63.0327 402.012C62.742 401.461 62.7046 400.793 62.9205 400.009C63.1365 399.225 63.512 398.665 64.047 398.329C64.5884 397.995 65.2236 397.923 65.9526 398.113ZM65.7694 398.778C65.2791 398.65 64.8502 398.714 64.4825 398.969C64.1148 399.225 63.8522 399.639 63.6947 400.211C63.5371 400.783 63.5519 401.269 63.739 401.669C63.9262 402.069 64.2649 402.333 64.7551 402.461C65.2454 402.589 65.6744 402.525 66.0421 402.269C66.4097 402.014 66.6723 401.6 66.8299 401.028C66.9874 400.456 66.9726 399.97 66.7855 399.57C66.5984 399.17 66.2597 398.906 65.7694 398.778ZM71.8592 399.652C72.4075 399.795 72.8157 400.071 73.0838 400.478C73.3519 400.886 73.4045 401.385 73.2416 401.976L72.392 405.061L71.6179 404.86L72.3932 402.044C72.5312 401.543 72.5216 401.151 72.3642 400.869C72.2133 400.589 71.9572 400.401 71.5959 400.307C71.3379 400.24 71.08 400.235 70.8224 400.292C70.5665 400.342 70.329 400.476 70.1098 400.695C69.8988 400.908 69.7402 401.208 69.634 401.594L68.9278 404.158L68.1536 403.956L69.4812 399.136L70.1586 399.312L69.9999 400.077C70.2408 399.83 70.5218 399.676 70.8428 399.615C71.1656 399.547 71.5044 399.56 71.8592 399.652ZM77.2504 401.058C77.7342 401.184 78.1097 401.403 78.3767 401.713C78.652 402.019 78.8265 402.402 78.9003 402.862L78.0693 403.018C78.0381 402.328 77.6967 401.898 77.0452 401.728C76.5614 401.602 76.1356 401.666 75.7679 401.922C75.4085 402.173 75.15 402.584 74.9925 403.156C74.8349 403.728 74.8465 404.213 75.0271 404.612C75.216 405.005 75.5524 405.265 76.0362 405.391C76.4104 405.489 76.7334 405.484 77.0052 405.375C77.2852 405.262 77.505 405.054 77.6644 404.752L78.3115 405.189C78.0198 405.595 77.6653 405.878 77.2479 406.038C76.8323 406.191 76.3729 406.202 75.8697 406.071C75.1407 405.881 74.6277 405.51 74.3305 404.957C74.0398 404.406 74.0024 403.738 74.2183 402.954C74.4343 402.17 74.8098 401.61 75.3448 401.274C75.8862 400.94 76.5214 400.868 77.2504 401.058ZM83.9103 405.212C83.8607 405.392 83.7982 405.569 83.7229 405.742L80.0748 404.791C79.9854 405.291 80.0423 405.712 80.2453 406.055C80.4548 406.399 80.7821 406.629 81.2273 406.745C81.5821 406.837 81.8924 406.853 82.1583 406.791C82.4306 406.731 82.6405 406.596 82.7881 406.387L83.3435 406.893C83.0562 407.184 82.7265 407.377 82.3543 407.473C81.9822 407.568 81.5446 407.551 81.0414 407.42C80.3124 407.23 79.7993 406.858 79.5022 406.305C79.2114 405.754 79.174 405.087 79.39 404.302C79.606 403.518 79.9718 402.956 80.4874 402.615C81.0095 402.276 81.6351 402.201 82.364 402.391C82.8156 402.509 83.1784 402.71 83.4526 402.995C83.7267 403.28 83.9007 403.615 83.9746 403.999C84.0485 404.384 84.0271 404.788 83.9103 405.212ZM82.1782 403.066C81.7524 402.955 81.3727 402.99 81.0392 403.172C80.7121 403.355 80.4567 403.668 80.273 404.109L83.205 404.873C83.2773 404.41 83.2254 404.021 83.0493 403.706C82.8749 403.385 82.5846 403.172 82.1782 403.066ZM88.0931 403.885C88.7704 404.061 89.2439 404.426 89.5135 404.978C89.7914 405.526 89.8232 406.189 89.609 406.966C89.3948 407.744 89.0258 408.306 88.5019 408.652C87.9863 408.992 87.3898 409.075 86.7124 408.898C86.3576 408.805 86.0595 408.645 85.8181 408.417C85.5832 408.19 85.4238 407.928 85.3397 407.631L84.575 410.407L83.8009 410.206L85.6861 403.36L86.3635 403.537L86.1808 404.388C86.4006 404.143 86.6787 403.974 87.015 403.883C87.3596 403.786 87.7189 403.787 88.0931 403.885ZM86.8112 408.2C87.2821 408.323 87.6982 408.256 88.0594 407.999C88.4224 407.735 88.6809 407.324 88.8349 406.765C88.9889 406.205 88.9755 405.727 88.7949 405.328C88.616 404.923 88.2911 404.66 87.8201 404.537C87.3557 404.416 86.9405 404.48 86.5746 404.729C86.2151 404.979 85.961 405.375 85.8124 405.915L85.7805 406.03C85.6318 406.57 85.6487 407.036 85.8311 407.428C86.02 407.822 86.3467 408.079 86.8112 408.2ZM93.1322 410.107C92.73 410.312 92.2741 410.348 91.7645 410.215C91.371 410.112 91.0776 409.922 90.8844 409.645C90.6977 409.369 90.6613 409.011 90.7752 408.572L91.5904 405.613L90.6227 405.36L90.8059 404.695L91.7736 404.947L92.0922 403.791L92.9247 403.78L92.5477 405.149L94.3379 405.616L94.1547 406.281L92.3645 405.815L91.5865 408.639C91.5228 408.871 91.5386 409.064 91.634 409.22C91.7376 409.371 91.8991 409.475 92.1184 409.532C92.4281 409.613 92.735 409.566 93.0392 409.39L93.1322 410.107ZM99.3595 406.925L98.0319 411.746L97.3545 411.569L97.5079 410.824C97.0332 411.292 96.3797 411.418 95.5475 411.201C95.025 411.065 94.6358 410.809 94.38 410.432C94.1306 410.057 94.0883 409.571 94.2529 408.973L95.1211 405.82L95.8953 406.022L95.0828 408.972C94.9536 409.441 94.9583 409.801 95.0969 410.05C95.2374 410.294 95.4947 410.464 95.8688 410.562C96.3139 410.678 96.7188 410.639 97.0835 410.444C97.4546 410.252 97.7145 409.886 97.8631 409.346L98.5854 406.723L99.3595 406.925ZM103.664 412.615C103.793 412.648 103.927 412.666 104.065 412.667L103.849 413.262C103.651 413.279 103.448 413.261 103.242 413.207C102.99 413.142 102.805 413.035 102.687 412.887C102.575 412.741 102.535 412.534 102.567 412.267C102.357 412.453 102.089 412.573 101.763 412.625C101.446 412.673 101.129 412.656 100.813 412.574C100.336 412.449 99.9721 412.238 99.7226 411.938C99.4749 411.633 99.4086 411.271 99.5237 410.853C99.6246 410.487 99.8726 410.214 100.268 410.035C100.665 409.849 101.184 409.784 101.825 409.841L103.17 409.965L103.245 409.695C103.333 409.373 103.304 409.09 103.157 408.845C103.01 408.6 102.759 408.431 102.404 408.339C102.082 408.255 101.78 408.259 101.499 408.351C101.224 408.445 100.981 408.626 100.768 408.894L100.312 408.331C100.54 408.004 100.857 407.781 101.264 407.659C101.677 407.54 102.119 407.541 102.59 407.664C103.164 407.814 103.588 408.072 103.86 408.439C104.132 408.807 104.194 409.26 104.045 409.8L103.392 412.172C103.36 412.287 103.365 412.382 103.407 412.455C103.45 412.528 103.535 412.581 103.664 412.615ZM101.037 411.909C101.444 412.015 101.819 412.01 102.162 411.892C102.512 411.777 102.729 411.565 102.814 411.256L102.998 410.591L101.858 410.511C101.405 410.476 101.051 410.504 100.798 410.596C100.546 410.682 100.389 410.838 100.327 411.063C100.272 411.262 100.307 411.436 100.432 411.586C100.558 411.729 100.76 411.837 101.037 411.909ZM105.825 412.392C105.757 412.637 105.746 412.816 105.79 412.931C105.843 413.041 105.969 413.123 106.169 413.175C106.305 413.21 106.423 413.231 106.526 413.237C106.634 413.244 106.763 413.24 106.913 413.224L106.583 413.933C106.345 413.968 106.094 413.951 105.829 413.882C105.436 413.779 105.171 413.597 105.036 413.334C104.908 413.073 104.904 412.724 105.024 412.287L106.633 406.445L107.407 406.646L105.825 412.392Z" fill="black"/>
<path d="M14.8749 283.177L13.9929 283.807L13.6509 283.339L14.5239 282.691L15.1809 282.331L14.5239 281.971L13.6509 281.323L13.9929 280.855L14.8749 281.485L15.4239 281.998L15.5679 281.26L15.9099 280.234L16.4589 280.405L16.1349 281.449L15.8199 282.124L16.5579 282.034L17.6469 282.034L17.6469 282.628L16.5579 282.628L15.8199 282.538L16.1349 283.213L16.4589 284.257L15.9099 284.428L15.5679 283.402L15.4239 282.664L14.8749 283.177ZM17.1069 288.003C17.1069 288.561 16.9809 289.047 16.7289 289.461C16.4829 289.875 16.1289 290.193 15.6669 290.415C15.2109 290.643 14.6709 290.757 14.0469 290.757C13.4229 290.757 12.8799 290.643 12.4179 290.415C11.9619 290.193 11.6079 289.875 11.3559 289.461C11.1099 289.047 10.9869 288.561 10.9869 288.003C10.9869 287.445 11.1099 286.959 11.3559 286.545C11.6079 286.131 11.9619 285.81 12.4179 285.582C12.8799 285.36 13.4229 285.249 14.0469 285.249C14.6709 285.249 15.2109 285.36 15.6669 285.582C16.1289 285.81 16.4829 286.131 16.7289 286.545C16.9809 286.959 17.1069 287.445 17.1069 288.003ZM16.4319 288.003C16.4319 287.385 16.2189 286.896 15.7929 286.536C15.3729 286.182 14.7909 286.005 14.0469 286.005C13.3029 286.005 12.7179 286.182 12.2919 286.536C11.8719 286.896 11.6619 287.385 11.6619 288.003C11.6619 288.621 11.8719 289.107 12.2919 289.461C12.7179 289.821 13.3029 290.001 14.0469 290.001C14.7909 290.001 15.3729 289.821 15.7929 289.461C16.2189 289.107 16.4319 288.621 16.4319 288.003ZM15.5769 295.833L11.0769 295.833L11.0769 295.203L11.7609 295.158C11.2449 294.858 10.9869 294.321 10.9869 293.547C10.9869 293.061 11.1219 292.662 11.3919 292.35C11.6619 292.044 12.0759 291.891 12.6339 291.891L15.5769 291.891L15.5769 292.611L12.8229 292.611C12.3849 292.611 12.0729 292.701 11.8869 292.881C11.7069 293.061 11.6169 293.325 11.6169 293.673C11.6169 294.087 11.7429 294.429 11.9949 294.699C12.2469 294.975 12.6249 295.113 13.1289 295.113L15.5769 295.113L15.5769 295.833ZM15.6669 299.363C15.6669 299.579 15.6369 299.744 15.5769 299.858L14.8749 299.714C14.9529 299.57 14.9919 299.381 14.9919 299.147C14.9919 298.955 14.9349 298.766 14.8209 298.58C14.7129 298.4 14.5449 298.25 14.3169 298.13C14.0949 298.016 13.8249 297.959 13.5069 297.959L11.0769 297.959L11.0769 297.239L15.5769 297.239L15.5769 297.824L14.8389 297.923C15.3909 298.175 15.6669 298.655 15.6669 299.363ZM15.6669 305.443C15.6669 306.073 15.4569 306.571 15.0369 306.937C14.6229 307.309 14.0529 307.495 13.3269 307.495C12.6009 307.495 12.0279 307.309 11.6079 306.937C11.1939 306.571 10.9869 306.073 10.9869 305.443C10.9869 305.113 11.0589 304.816 11.2029 304.552C11.3469 304.294 11.5389 304.093 11.7789 303.949L9.1869 303.949L9.1869 303.229L15.5769 303.229L15.5769 303.859L14.7939 303.904C15.0579 304.036 15.2679 304.237 15.4239 304.507C15.5859 304.783 15.6669 305.095 15.6669 305.443ZM11.6169 305.362C11.6169 305.8 11.7699 306.145 12.0759 306.397C12.3879 306.649 12.8049 306.775 13.3269 306.775C13.8489 306.775 14.2629 306.649 14.5689 306.397C14.8809 306.145 15.0369 305.8 15.0369 305.362C15.0369 304.93 14.8869 304.585 14.5869 304.327C14.2869 304.075 13.8849 303.949 13.3809 303.949L13.2729 303.949C12.7689 303.949 12.3669 304.075 12.0669 304.327C11.7669 304.585 11.6169 304.93 11.6169 305.362ZM15.6669 310.752C15.6669 310.968 15.6369 311.133 15.5769 311.247L14.8749 311.103C14.9529 310.959 14.9919 310.77 14.9919 310.536C14.9919 310.344 14.9349 310.155 14.8209 309.969C14.7129 309.789 14.5449 309.639 14.3169 309.519C14.0949 309.405 13.8249 309.348 13.5069 309.348L11.0769 309.348L11.0769 308.628L15.5769 308.628L15.5769 309.213L14.8389 309.312C15.3909 309.564 15.6669 310.044 15.6669 310.752ZM15.6669 313.79C15.6669 314.468 15.4599 314.999 15.0459 315.383C14.6319 315.773 14.0589 315.968 13.3269 315.968C12.5949 315.968 12.0219 315.773 11.6079 315.383C11.1939 314.999 10.9869 314.468 10.9869 313.79C10.9869 313.112 11.1939 312.578 11.6079 312.188C12.0219 311.804 12.5949 311.612 13.3269 311.612C14.0589 311.612 14.6319 311.804 15.0459 312.188C15.4599 312.578 15.6669 313.112 15.6669 313.79ZM15.0459 313.79C15.0459 313.334 14.8929 312.977 14.5869 312.719C14.2809 312.461 13.8609 312.332 13.3269 312.332C12.7929 312.332 12.3729 312.461 12.0669 312.719C11.7609 312.977 11.6079 313.334 11.6079 313.79C11.6079 314.246 11.7609 314.603 12.0669 314.861C12.3729 315.119 12.7929 315.248 13.3269 315.248C13.8609 315.248 14.2809 315.119 14.5869 314.861C14.8929 314.603 15.0459 314.246 15.0459 313.79ZM11.3919 319.772C11.1219 319.472 10.9869 319.085 10.9869 318.611C10.9869 318.245 11.0859 317.945 11.2839 317.711C11.4819 317.483 11.7849 317.366 12.1929 317.36L14.9559 317.36L14.9559 316.46L15.5769 316.46L15.5769 317.36L16.6569 317.36L16.8549 318.08L15.5769 318.08L15.5769 319.745L14.9559 319.745L14.9559 318.08L12.3189 318.08C12.1029 318.08 11.9379 318.14 11.8239 318.26C11.7159 318.386 11.6619 318.551 11.6619 318.755C11.6619 319.043 11.7729 319.298 11.9949 319.52L11.3919 319.772ZM15.6669 322.417C15.6669 323.095 15.4599 323.626 15.0459 324.01C14.6319 324.4 14.0589 324.595 13.3269 324.595C12.5949 324.595 12.0219 324.4 11.6079 324.01C11.1939 323.626 10.9869 323.095 10.9869 322.417C10.9869 321.739 11.1939 321.205 11.6079 320.815C12.0219 320.431 12.5949 320.239 13.3269 320.239C14.0589 320.239 14.6319 320.431 15.0459 320.815C15.4599 321.205 15.6669 321.739 15.6669 322.417ZM15.0459 322.417C15.0459 321.961 14.8929 321.604 14.5869 321.346C14.2809 321.088 13.8609 320.959 13.3269 320.959C12.7929 320.959 12.3729 321.088 12.0669 321.346C11.7609 321.604 11.6079 321.961 11.6079 322.417C11.6079 322.873 11.7609 323.23 12.0669 323.488C12.3729 323.746 12.7929 323.875 13.3269 323.875C13.8609 323.875 14.2809 323.746 14.5869 323.488C14.8929 323.23 15.0459 322.873 15.0459 322.417ZM11.3919 328.399C11.1219 328.099 10.9869 327.712 10.9869 327.238C10.9869 326.872 11.0859 326.572 11.2839 326.338C11.4819 326.11 11.7849 325.993 12.1929 325.987L14.9559 325.987L14.9559 325.087L15.5769 325.087L15.5769 325.987L16.6569 325.987L16.8549 326.707L15.5769 326.707L15.5769 328.372L14.9559 328.372L14.9559 326.707L12.3189 326.707C12.1029 326.707 11.9379 326.767 11.8239 326.887C11.7159 327.013 11.6619 327.178 11.6619 327.382C11.6619 327.67 11.7729 327.925 11.9949 328.147L11.3919 328.399ZM10.3209 330.855C9.8889 330.681 9.5859 330.486 9.4119 330.27C9.2319 330.054 9.1419 329.775 9.1419 329.433C9.1419 329.205 9.1719 329.013 9.2319 328.857C9.2919 328.707 9.3879 328.569 9.5199 328.443L10.1319 328.695C9.8919 328.869 9.7719 329.112 9.7719 329.424C9.7719 329.598 9.8259 329.751 9.9339 329.883C10.0359 330.021 10.2249 330.141 10.5009 330.243L11.0859 330.477L15.5769 328.596L15.5769 329.415L12.6429 330.54L11.8419 330.819L12.7329 331.143L15.5769 332.196L15.5769 332.97L10.3209 330.855ZM15.6669 335.905C15.6669 336.535 15.4569 337.033 15.0369 337.399C14.6229 337.771 14.0529 337.957 13.3269 337.957C12.6009 337.957 12.0279 337.771 11.6079 337.399C11.1939 337.033 10.9869 336.535 10.9869 335.905C10.9869 335.575 11.0589 335.278 11.2029 335.014C11.3469 334.756 11.5389 334.555 11.7789 334.411L9.1869 334.411L9.1869 333.691L15.5769 333.691L15.5769 334.321L14.7939 334.366C15.0579 334.498 15.2679 334.699 15.4239 334.969C15.5859 335.245 15.6669 335.557 15.6669 335.905ZM11.6169 335.824C11.6169 336.262 11.7699 336.607 12.0759 336.859C12.3879 337.111 12.8049 337.237 13.3269 337.237C13.8489 337.237 14.2629 337.111 14.5689 336.859C14.8809 336.607 15.0369 336.262 15.0369 335.824C15.0369 335.392 14.8869 335.047 14.5869 334.789C14.2869 334.537 13.8849 334.411 13.3809 334.411L13.2729 334.411C12.7689 334.411 12.3669 334.537 12.0669 334.789C11.7669 335.047 11.6169 335.392 11.6169 335.824ZM13.5609 342.951C13.3929 342.951 13.2249 342.939 13.0569 342.915L13.0569 339.522C12.6009 339.564 12.2469 339.714 11.9949 339.972C11.7429 340.236 11.6169 340.575 11.6169 340.989C11.6169 341.319 11.6739 341.592 11.7879 341.808C11.9019 342.03 12.0669 342.18 12.2829 342.258L11.9679 342.861C11.6499 342.681 11.4069 342.441 11.2389 342.141C11.0709 341.841 10.9869 341.457 10.9869 340.989C10.9869 340.311 11.1939 339.777 11.6079 339.387C12.0219 339.003 12.5949 338.811 13.3269 338.811C14.0589 338.811 14.6319 338.994 15.0459 339.36C15.4599 339.732 15.6669 340.257 15.6669 340.935C15.6669 341.355 15.5739 341.718 15.3879 342.024C15.2019 342.33 14.9499 342.561 14.6319 342.717C14.3139 342.873 13.9569 342.951 13.5609 342.951ZM15.0369 340.935C15.0369 340.539 14.9199 340.218 14.6859 339.972C14.4519 339.732 14.1219 339.585 13.6959 339.531L13.6959 342.258C14.1159 342.21 14.4429 342.072 14.6769 341.844C14.9169 341.616 15.0369 341.313 15.0369 340.935ZM10.9869 345.58C10.9869 345.148 11.0709 344.758 11.2389 344.41C11.4129 344.062 11.6679 343.807 12.0039 343.645L12.4089 344.23C12.1449 344.332 11.9469 344.509 11.8149 344.761C11.6829 345.013 11.6169 345.31 11.6169 345.652C11.6169 346.006 11.6799 346.276 11.8059 346.462C11.9319 346.648 12.0909 346.741 12.2829 346.741C12.4569 346.741 12.5949 346.654 12.6969 346.48C12.8049 346.306 12.8979 346 12.9759 345.562C13.0539 345.13 13.1469 344.788 13.2549 344.536C13.3689 344.284 13.5099 344.101 13.6779 343.987C13.8519 343.873 14.0649 343.816 14.3169 343.816C14.5629 343.816 14.7879 343.888 14.9919 344.032C15.1959 344.176 15.3579 344.383 15.4779 344.653C15.6039 344.923 15.6669 345.235 15.6669 345.589C15.6669 346.069 15.5769 346.453 15.3969 346.741C15.2229 347.035 14.9529 347.245 14.5869 347.371L14.2269 346.759C14.5149 346.663 14.7219 346.516 14.8479 346.318C14.9739 346.126 15.0369 345.883 15.0369 345.589C15.0369 345.295 14.9709 345.046 14.8389 344.842C14.7069 344.638 14.5539 344.536 14.3799 344.536C14.1819 344.536 14.0289 344.623 13.9209 344.797C13.8129 344.977 13.7199 345.295 13.6419 345.751C13.5399 346.375 13.3869 346.816 13.1829 347.074C12.9789 347.332 12.6909 347.461 12.3189 347.461C12.0609 347.461 11.8299 347.383 11.6259 347.227C11.4279 347.077 11.2719 346.858 11.1579 346.57C11.0439 346.288 10.9869 345.958 10.9869 345.58ZM11.5989 355.013C11.5989 355.133 11.6139 355.253 11.6439 355.373L11.0769 355.328C11.0169 355.16 10.9869 354.98 10.9869 354.788C10.9869 354.554 11.0379 354.368 11.1399 354.23C11.2419 354.098 11.4129 354.014 11.6529 353.978C11.4429 353.84 11.2779 353.636 11.1579 353.366C11.0439 353.102 10.9869 352.823 10.9869 352.529C10.9869 352.085 11.0889 351.719 11.2929 351.431C11.5029 351.143 11.8029 350.999 12.1929 350.999C12.5349 350.999 12.8289 351.149 13.0749 351.449C13.3269 351.749 13.5009 352.184 13.5969 352.754L13.7949 353.951L14.0469 353.951C14.3469 353.951 14.5869 353.858 14.7669 353.672C14.9469 353.486 15.0369 353.228 15.0369 352.898C15.0369 352.598 14.9649 352.337 14.8209 352.115C14.6769 351.899 14.4639 351.731 14.1819 351.611L14.5689 351.08C14.9049 351.2 15.1719 351.422 15.3699 351.746C15.5679 352.076 15.6669 352.46 15.6669 352.898C15.6669 353.432 15.5379 353.861 15.2799 354.185C15.0219 354.509 14.6409 354.671 14.1369 354.671L11.9229 354.671C11.8149 354.671 11.7339 354.698 11.6799 354.752C11.6259 354.806 11.5989 354.893 11.5989 355.013ZM11.6169 352.565C11.6169 352.943 11.7069 353.267 11.8869 353.537C12.0669 353.813 12.3009 353.951 12.5889 353.951L13.2099 353.951L13.0209 352.943C12.9489 352.541 12.8439 352.241 12.7059 352.043C12.5739 351.845 12.4029 351.746 12.1929 351.746C12.0069 351.746 11.8629 351.818 11.7609 351.962C11.6649 352.106 11.6169 352.307 11.6169 352.565ZM15.6669 358.275C15.6669 358.491 15.6369 358.656 15.5769 358.77L14.8749 358.626C14.9529 358.482 14.9919 358.293 14.9919 358.059C14.9919 357.867 14.9349 357.678 14.8209 357.492C14.7129 357.312 14.5449 357.162 14.3169 357.042C14.0949 356.928 13.8249 356.871 13.5069 356.871L11.0769 356.871L11.0769 356.151L15.5769 356.151L15.5769 356.736L14.8389 356.835C15.3909 357.087 15.6669 357.567 15.6669 358.275ZM13.5609 363.275C13.3929 363.275 13.2249 363.263 13.0569 363.239L13.0569 359.846C12.6009 359.888 12.2469 360.038 11.9949 360.296C11.7429 360.56 11.6169 360.899 11.6169 361.313C11.6169 361.643 11.6739 361.916 11.7879 362.132C11.9019 362.354 12.0669 362.504 12.2829 362.582L11.9679 363.185C11.6499 363.005 11.4069 362.765 11.2389 362.465C11.0709 362.165 10.9869 361.781 10.9869 361.313C10.9869 360.635 11.1939 360.101 11.6079 359.711C12.0219 359.327 12.5949 359.135 13.3269 359.135C14.0589 359.135 14.6319 359.318 15.0459 359.684C15.4599 360.056 15.6669 360.581 15.6669 361.259C15.6669 361.679 15.5739 362.042 15.3879 362.348C15.2019 362.654 14.9499 362.885 14.6319 363.041C14.3139 363.197 13.9569 363.275 13.5609 363.275ZM15.0369 361.259C15.0369 360.863 14.9199 360.542 14.6859 360.296C14.4519 360.056 14.1219 359.909 13.6959 359.855L13.6959 362.582C14.1159 362.534 14.4429 362.396 14.6769 362.168C14.9169 361.94 15.0369 361.637 15.0369 361.259ZM15.6669 369.358C15.6669 369.868 15.5199 370.288 15.2259 370.618C14.9319 370.948 14.5089 371.113 13.9569 371.113L11.0769 371.113L11.0769 370.393L13.7049 370.393C14.1729 370.393 14.5119 370.291 14.7219 370.087C14.9319 369.889 15.0369 369.622 15.0369 369.286C15.0369 369.046 14.9829 368.821 14.8749 368.611C14.7729 368.401 14.6019 368.227 14.3619 368.089C14.1279 367.957 13.8309 367.891 13.4709 367.891L11.0769 367.891L11.0769 367.171L15.5769 367.171L15.5769 367.801L14.8749 367.846C15.1449 367.996 15.3429 368.203 15.4689 368.467C15.6009 368.731 15.6669 369.028 15.6669 369.358ZM15.6669 374.372C15.6669 375.05 15.4599 375.581 15.0459 375.965C14.6319 376.355 14.0589 376.55 13.3269 376.55C12.5949 376.55 12.0219 376.355 11.6079 375.965C11.1939 375.581 10.9869 375.05 10.9869 374.372C10.9869 373.694 11.1939 373.16 11.6079 372.77C12.0219 372.386 12.5949 372.194 13.3269 372.194C14.0589 372.194 14.6319 372.386 15.0459 372.77C15.4599 373.16 15.6669 373.694 15.6669 374.372ZM15.0459 374.372C15.0459 373.916 14.8929 373.559 14.5869 373.301C14.2809 373.043 13.8609 372.914 13.3269 372.914C12.7929 372.914 12.3729 373.043 12.0669 373.301C11.7609 373.559 11.6079 373.916 11.6079 374.372C11.6079 374.828 11.7609 375.185 12.0669 375.443C12.3729 375.701 12.7929 375.83 13.3269 375.83C13.8609 375.83 14.2809 375.701 14.5869 375.443C14.8929 375.185 15.0459 374.828 15.0459 374.372ZM11.3919 380.354C11.1219 380.054 10.9869 379.667 10.9869 379.193C10.9869 378.827 11.0859 378.527 11.2839 378.293C11.4819 378.065 11.7849 377.948 12.1929 377.942L14.9559 377.942L14.9559 377.042L15.5769 377.042L15.5769 377.942L16.6569 377.942L16.8549 378.662L15.5769 378.662L15.5769 380.327L14.9559 380.327L14.9559 378.662L12.3189 378.662C12.1029 378.662 11.9379 378.722 11.8239 378.842C11.7159 378.968 11.6619 379.133 11.6619 379.337C11.6619 379.625 11.7729 379.88 11.9949 380.102L11.3919 380.354ZM10.9869 385.428C10.9869 384.996 11.0709 384.606 11.2389 384.258C11.4129 383.91 11.6679 383.655 12.0039 383.493L12.4089 384.078C12.1449 384.18 11.9469 384.357 11.8149 384.609C11.6829 384.861 11.6169 385.158 11.6169 385.5C11.6169 385.854 11.6799 386.124 11.8059 386.31C11.9319 386.496 12.0909 386.589 12.2829 386.589C12.4569 386.589 12.5949 386.502 12.6969 386.328C12.8049 386.154 12.8979 385.848 12.9759 385.41C13.0539 384.978 13.1469 384.636 13.2549 384.384C13.3689 384.132 13.5099 383.949 13.6779 383.835C13.8519 383.721 14.0649 383.664 14.3169 383.664C14.5629 383.664 14.7879 383.736 14.9919 383.88C15.1959 384.024 15.3579 384.231 15.4779 384.501C15.6039 384.771 15.6669 385.083 15.6669 385.437C15.6669 385.917 15.5769 386.301 15.3969 386.589C15.2229 386.883 14.9529 387.093 14.5869 387.219L14.2269 386.607C14.5149 386.511 14.7219 386.364 14.8479 386.166C14.9739 385.974 15.0369 385.731 15.0369 385.437C15.0369 385.143 14.9709 384.894 14.8389 384.69C14.7069 384.486 14.5539 384.384 14.3799 384.384C14.1819 384.384 14.0289 384.471 13.9209 384.645C13.8129 384.825 13.7199 385.143 13.6419 385.599C13.5399 386.223 13.3869 386.664 13.1829 386.922C12.9789 387.18 12.6909 387.309 12.3189 387.309C12.0609 387.309 11.8299 387.231 11.6259 387.075C11.4279 386.925 11.2719 386.706 11.1579 386.418C11.0439 386.136 10.9869 385.806 10.9869 385.428ZM11.3919 391.128C11.1219 390.828 10.9869 390.441 10.9869 389.967C10.9869 389.601 11.0859 389.301 11.2839 389.067C11.4819 388.839 11.7849 388.722 12.1929 388.716L14.9559 388.716L14.9559 387.816L15.5769 387.816L15.5769 388.716L16.6569 388.716L16.8549 389.436L15.5769 389.436L15.5769 391.101L14.9559 391.101L14.9559 389.436L12.3189 389.436C12.1029 389.436 11.9379 389.496 11.8239 389.616C11.7159 389.742 11.6619 389.907 11.6619 390.111C11.6619 390.399 11.7729 390.654 11.9949 390.876L11.3919 391.128ZM11.5989 395.564C11.5989 395.684 11.6139 395.804 11.6439 395.924L11.0769 395.879C11.0169 395.711 10.9869 395.531 10.9869 395.339C10.9869 395.105 11.0379 394.919 11.1399 394.781C11.2419 394.649 11.4129 394.565 11.6529 394.529C11.4429 394.391 11.2779 394.187 11.1579 393.917C11.0439 393.653 10.9869 393.374 10.9869 393.08C10.9869 392.636 11.0889 392.27 11.2929 391.982C11.5029 391.694 11.8029 391.55 12.1929 391.55C12.5349 391.55 12.8289 391.7 13.0749 392C13.3269 392.3 13.5009 392.735 13.5969 393.305L13.7949 394.502L14.0469 394.502C14.3469 394.502 14.5869 394.409 14.7669 394.223C14.9469 394.037 15.0369 393.779 15.0369 393.449C15.0369 393.149 14.9649 392.888 14.8209 392.666C14.6769 392.45 14.4639 392.282 14.1819 392.162L14.5689 391.631C14.9049 391.751 15.1719 391.973 15.3699 392.297C15.5679 392.627 15.6669 393.011 15.6669 393.449C15.6669 393.983 15.5379 394.412 15.2799 394.736C15.0219 395.06 14.6409 395.222 14.1369 395.222L11.9229 395.222C11.8149 395.222 11.7339 395.249 11.6799 395.303C11.6259 395.357 11.5989 395.444 11.5989 395.564ZM11.6169 393.116C11.6169 393.494 11.7069 393.818 11.8869 394.088C12.0669 394.364 12.3009 394.502 12.5889 394.502L13.2099 394.502L13.0209 393.494C12.9489 393.092 12.8439 392.792 12.7059 392.594C12.5739 392.396 12.4029 392.297 12.1929 392.297C12.0069 392.297 11.8629 392.369 11.7609 392.513C11.6649 392.657 11.6169 392.858 11.6169 393.116ZM11.3919 399.28C11.1219 398.98 10.9869 398.593 10.9869 398.119C10.9869 397.753 11.0859 397.453 11.2839 397.219C11.4819 396.991 11.7849 396.874 12.1929 396.868L14.9559 396.868L14.9559 395.968L15.5769 395.968L15.5769 396.868L16.6569 396.868L16.8549 397.588L15.5769 397.588L15.5769 399.253L14.9559 399.253L14.9559 397.588L12.3189 397.588C12.1029 397.588 11.9379 397.648 11.8239 397.768C11.7159 397.894 11.6619 398.059 11.6619 398.263C11.6619 398.551 11.7729 398.806 11.9949 399.028L11.3919 399.28ZM16.4409 400.387C16.4409 400.225 16.4889 400.093 16.5849 399.991C16.6869 399.895 16.8189 399.847 16.9809 399.847C17.1429 399.847 17.2719 399.895 17.3679 399.991C17.4699 400.093 17.5209 400.225 17.5209 400.387C17.5209 400.549 17.4699 400.678 17.3679 400.774C17.2719 400.876 17.1429 400.927 16.9809 400.927C16.8189 400.927 16.6869 400.876 16.5849 400.774C16.4889 400.678 16.4409 400.549 16.4409 400.387ZM11.0769 400.747L11.0769 400.027L15.5769 400.027L15.5769 400.747L11.0769 400.747ZM15.6669 404.046C15.6669 404.496 15.5619 404.874 15.3519 405.18C15.1479 405.492 14.8539 405.735 14.4699 405.909L14.1459 405.225C14.7399 405.033 15.0369 404.634 15.0369 404.028C15.0369 403.578 14.8839 403.224 14.5779 402.966C14.2779 402.714 13.8609 402.588 13.3269 402.588C12.7929 402.588 12.3729 402.714 12.0669 402.966C11.7669 403.224 11.6169 403.578 11.6169 404.028C11.6169 404.376 11.6949 404.655 11.8509 404.865C12.0129 405.081 12.2439 405.222 12.5439 405.288L12.3099 405.954C11.8899 405.798 11.5629 405.558 11.3289 405.234C11.1009 404.91 10.9869 404.514 10.9869 404.046C10.9869 403.368 11.1939 402.834 11.6079 402.444C12.0219 402.06 12.5949 401.868 13.3269 401.868C14.0589 401.868 14.6319 402.06 15.0459 402.444C15.4599 402.834 15.6669 403.368 15.6669 404.046ZM12.1569 407.317C12.1569 407.491 12.1029 407.632 11.9949 407.74C11.8869 407.848 11.7459 407.902 11.5719 407.902C11.3979 407.902 11.2569 407.848 11.1489 407.74C11.0409 407.632 10.9869 407.491 10.9869 407.317C10.9869 407.143 11.0409 407.002 11.1489 406.894C11.2569 406.786 11.3979 406.732 11.5719 406.732C11.7459 406.732 11.8869 406.786 11.9949 406.894C12.1029 407.002 12.1569 407.143 12.1569 407.317Z" fill="black"/>
<path d="M36.077 6.24174e-09L42.1392 10.2158L30.0148 10.2158L36.077 6.24174e-09Z" fill="black"/>
<line x1="36.0385" y1="9.42993" x2="36.0384" y2="428.541" stroke="black"/>
</svg>
